%TF.GenerationSoftware,KiCad,Pcbnew,8.0.1*%
%TF.CreationDate,2024-04-29T03:40:20-07:00*%
%TF.ProjectId,CanSat PCB,43616e53-6174-4205-9043-422e6b696361,4*%
%TF.SameCoordinates,Original*%
%TF.FileFunction,Legend,Top*%
%TF.FilePolarity,Positive*%
%FSLAX46Y46*%
G04 Gerber Fmt 4.6, Leading zero omitted, Abs format (unit mm)*
G04 Created by KiCad (PCBNEW 8.0.1) date 2024-04-29 03:40:20*
%MOMM*%
%LPD*%
G01*
G04 APERTURE LIST*
%ADD10C,0.100000*%
%ADD11C,0.150000*%
%ADD12C,0.000000*%
%ADD13C,0.120000*%
%ADD14C,0.152400*%
%ADD15C,0.127000*%
%ADD16C,0.200000*%
G04 APERTURE END LIST*
D10*
X83955627Y-87442219D02*
X84288960Y-88442219D01*
X84288960Y-88442219D02*
X84622293Y-87442219D01*
X84908008Y-87537457D02*
X84955627Y-87489838D01*
X84955627Y-87489838D02*
X85050865Y-87442219D01*
X85050865Y-87442219D02*
X85288960Y-87442219D01*
X85288960Y-87442219D02*
X85384198Y-87489838D01*
X85384198Y-87489838D02*
X85431817Y-87537457D01*
X85431817Y-87537457D02*
X85479436Y-87632695D01*
X85479436Y-87632695D02*
X85479436Y-87727933D01*
X85479436Y-87727933D02*
X85431817Y-87870790D01*
X85431817Y-87870790D02*
X84860389Y-88442219D01*
X84860389Y-88442219D02*
X85479436Y-88442219D01*
X79256627Y-85283219D02*
X79828055Y-85283219D01*
X79542341Y-86283219D02*
X79542341Y-85283219D01*
X80542341Y-86235600D02*
X80447103Y-86283219D01*
X80447103Y-86283219D02*
X80256627Y-86283219D01*
X80256627Y-86283219D02*
X80161389Y-86235600D01*
X80161389Y-86235600D02*
X80113770Y-86140361D01*
X80113770Y-86140361D02*
X80113770Y-85759409D01*
X80113770Y-85759409D02*
X80161389Y-85664171D01*
X80161389Y-85664171D02*
X80256627Y-85616552D01*
X80256627Y-85616552D02*
X80447103Y-85616552D01*
X80447103Y-85616552D02*
X80542341Y-85664171D01*
X80542341Y-85664171D02*
X80589960Y-85759409D01*
X80589960Y-85759409D02*
X80589960Y-85854647D01*
X80589960Y-85854647D02*
X80113770Y-85949885D01*
X81447103Y-86283219D02*
X81447103Y-85759409D01*
X81447103Y-85759409D02*
X81399484Y-85664171D01*
X81399484Y-85664171D02*
X81304246Y-85616552D01*
X81304246Y-85616552D02*
X81113770Y-85616552D01*
X81113770Y-85616552D02*
X81018532Y-85664171D01*
X81447103Y-86235600D02*
X81351865Y-86283219D01*
X81351865Y-86283219D02*
X81113770Y-86283219D01*
X81113770Y-86283219D02*
X81018532Y-86235600D01*
X81018532Y-86235600D02*
X80970913Y-86140361D01*
X80970913Y-86140361D02*
X80970913Y-86045123D01*
X80970913Y-86045123D02*
X81018532Y-85949885D01*
X81018532Y-85949885D02*
X81113770Y-85902266D01*
X81113770Y-85902266D02*
X81351865Y-85902266D01*
X81351865Y-85902266D02*
X81447103Y-85854647D01*
X81923294Y-86283219D02*
X81923294Y-85616552D01*
X81923294Y-85711790D02*
X81970913Y-85664171D01*
X81970913Y-85664171D02*
X82066151Y-85616552D01*
X82066151Y-85616552D02*
X82209008Y-85616552D01*
X82209008Y-85616552D02*
X82304246Y-85664171D01*
X82304246Y-85664171D02*
X82351865Y-85759409D01*
X82351865Y-85759409D02*
X82351865Y-86283219D01*
X82351865Y-85759409D02*
X82399484Y-85664171D01*
X82399484Y-85664171D02*
X82494722Y-85616552D01*
X82494722Y-85616552D02*
X82637579Y-85616552D01*
X82637579Y-85616552D02*
X82732818Y-85664171D01*
X82732818Y-85664171D02*
X82780437Y-85759409D01*
X82780437Y-85759409D02*
X82780437Y-86283219D01*
X83970913Y-85997504D02*
X84447103Y-85997504D01*
X83875675Y-86283219D02*
X84209008Y-85283219D01*
X84209008Y-85283219D02*
X84542341Y-86283219D01*
X84875675Y-85616552D02*
X84875675Y-86616552D01*
X84875675Y-85664171D02*
X84970913Y-85616552D01*
X84970913Y-85616552D02*
X85161389Y-85616552D01*
X85161389Y-85616552D02*
X85256627Y-85664171D01*
X85256627Y-85664171D02*
X85304246Y-85711790D01*
X85304246Y-85711790D02*
X85351865Y-85807028D01*
X85351865Y-85807028D02*
X85351865Y-86092742D01*
X85351865Y-86092742D02*
X85304246Y-86187980D01*
X85304246Y-86187980D02*
X85256627Y-86235600D01*
X85256627Y-86235600D02*
X85161389Y-86283219D01*
X85161389Y-86283219D02*
X84970913Y-86283219D01*
X84970913Y-86283219D02*
X84875675Y-86235600D01*
X85780437Y-86283219D02*
X85780437Y-85283219D01*
X86209008Y-86283219D02*
X86209008Y-85759409D01*
X86209008Y-85759409D02*
X86161389Y-85664171D01*
X86161389Y-85664171D02*
X86066151Y-85616552D01*
X86066151Y-85616552D02*
X85923294Y-85616552D01*
X85923294Y-85616552D02*
X85828056Y-85664171D01*
X85828056Y-85664171D02*
X85780437Y-85711790D01*
X87066151Y-86235600D02*
X86970913Y-86283219D01*
X86970913Y-86283219D02*
X86780437Y-86283219D01*
X86780437Y-86283219D02*
X86685199Y-86235600D01*
X86685199Y-86235600D02*
X86637580Y-86140361D01*
X86637580Y-86140361D02*
X86637580Y-85759409D01*
X86637580Y-85759409D02*
X86685199Y-85664171D01*
X86685199Y-85664171D02*
X86780437Y-85616552D01*
X86780437Y-85616552D02*
X86970913Y-85616552D01*
X86970913Y-85616552D02*
X87066151Y-85664171D01*
X87066151Y-85664171D02*
X87113770Y-85759409D01*
X87113770Y-85759409D02*
X87113770Y-85854647D01*
X87113770Y-85854647D02*
X86637580Y-85949885D01*
X87685199Y-86283219D02*
X87589961Y-86235600D01*
X87589961Y-86235600D02*
X87542342Y-86140361D01*
X87542342Y-86140361D02*
X87542342Y-85283219D01*
X88066152Y-86283219D02*
X88066152Y-85616552D01*
X88066152Y-85283219D02*
X88018533Y-85330838D01*
X88018533Y-85330838D02*
X88066152Y-85378457D01*
X88066152Y-85378457D02*
X88113771Y-85330838D01*
X88113771Y-85330838D02*
X88066152Y-85283219D01*
X88066152Y-85283219D02*
X88066152Y-85378457D01*
X88685199Y-86283219D02*
X88589961Y-86235600D01*
X88589961Y-86235600D02*
X88542342Y-86187980D01*
X88542342Y-86187980D02*
X88494723Y-86092742D01*
X88494723Y-86092742D02*
X88494723Y-85807028D01*
X88494723Y-85807028D02*
X88542342Y-85711790D01*
X88542342Y-85711790D02*
X88589961Y-85664171D01*
X88589961Y-85664171D02*
X88685199Y-85616552D01*
X88685199Y-85616552D02*
X88828056Y-85616552D01*
X88828056Y-85616552D02*
X88923294Y-85664171D01*
X88923294Y-85664171D02*
X88970913Y-85711790D01*
X88970913Y-85711790D02*
X89018532Y-85807028D01*
X89018532Y-85807028D02*
X89018532Y-86092742D01*
X89018532Y-86092742D02*
X88970913Y-86187980D01*
X88970913Y-86187980D02*
X88923294Y-86235600D01*
X88923294Y-86235600D02*
X88828056Y-86283219D01*
X88828056Y-86283219D02*
X88685199Y-86283219D01*
X89447104Y-85616552D02*
X89447104Y-86283219D01*
X89447104Y-85711790D02*
X89494723Y-85664171D01*
X89494723Y-85664171D02*
X89589961Y-85616552D01*
X89589961Y-85616552D02*
X89732818Y-85616552D01*
X89732818Y-85616552D02*
X89828056Y-85664171D01*
X89828056Y-85664171D02*
X89875675Y-85759409D01*
X89875675Y-85759409D02*
X89875675Y-86283219D01*
X115654827Y-68062019D02*
X116226255Y-68062019D01*
X115940541Y-69062019D02*
X115940541Y-68062019D01*
X116464351Y-68062019D02*
X117131017Y-69062019D01*
X117131017Y-68062019D02*
X116464351Y-69062019D01*
X116267512Y-67690419D02*
X115934179Y-67214228D01*
X115696084Y-67690419D02*
X115696084Y-66690419D01*
X115696084Y-66690419D02*
X116077036Y-66690419D01*
X116077036Y-66690419D02*
X116172274Y-66738038D01*
X116172274Y-66738038D02*
X116219893Y-66785657D01*
X116219893Y-66785657D02*
X116267512Y-66880895D01*
X116267512Y-66880895D02*
X116267512Y-67023752D01*
X116267512Y-67023752D02*
X116219893Y-67118990D01*
X116219893Y-67118990D02*
X116172274Y-67166609D01*
X116172274Y-67166609D02*
X116077036Y-67214228D01*
X116077036Y-67214228D02*
X115696084Y-67214228D01*
X116600846Y-66690419D02*
X117267512Y-67690419D01*
X117267512Y-66690419D02*
X116600846Y-67690419D01*
X117905884Y-70967066D02*
X118667789Y-70967066D01*
X118286836Y-71348019D02*
X118286836Y-70586114D01*
X118312666Y-64999515D02*
X118312666Y-64237611D01*
X118388866Y-79680715D02*
X118388866Y-78918811D01*
X118622614Y-74711039D02*
X117872614Y-74711039D01*
X117872614Y-74711039D02*
X117872614Y-74425325D01*
X117872614Y-74425325D02*
X117908328Y-74353896D01*
X117908328Y-74353896D02*
X117944042Y-74318182D01*
X117944042Y-74318182D02*
X118015471Y-74282468D01*
X118015471Y-74282468D02*
X118122614Y-74282468D01*
X118122614Y-74282468D02*
X118194042Y-74318182D01*
X118194042Y-74318182D02*
X118229757Y-74353896D01*
X118229757Y-74353896D02*
X118265471Y-74425325D01*
X118265471Y-74425325D02*
X118265471Y-74711039D01*
X117872614Y-74032468D02*
X118622614Y-73853896D01*
X118622614Y-73853896D02*
X118086900Y-73711039D01*
X118086900Y-73711039D02*
X118622614Y-73568182D01*
X118622614Y-73568182D02*
X117872614Y-73389611D01*
X118622614Y-73103896D02*
X117872614Y-73103896D01*
X117872614Y-73103896D02*
X118408328Y-72853896D01*
X118408328Y-72853896D02*
X117872614Y-72603896D01*
X117872614Y-72603896D02*
X118622614Y-72603896D01*
X118673414Y-57058039D02*
X117923414Y-57058039D01*
X117923414Y-57058039D02*
X117923414Y-56772325D01*
X117923414Y-56772325D02*
X117959128Y-56700896D01*
X117959128Y-56700896D02*
X117994842Y-56665182D01*
X117994842Y-56665182D02*
X118066271Y-56629468D01*
X118066271Y-56629468D02*
X118173414Y-56629468D01*
X118173414Y-56629468D02*
X118244842Y-56665182D01*
X118244842Y-56665182D02*
X118280557Y-56700896D01*
X118280557Y-56700896D02*
X118316271Y-56772325D01*
X118316271Y-56772325D02*
X118316271Y-57058039D01*
X117923414Y-56379468D02*
X118673414Y-56200896D01*
X118673414Y-56200896D02*
X118137700Y-56058039D01*
X118137700Y-56058039D02*
X118673414Y-55915182D01*
X118673414Y-55915182D02*
X117923414Y-55736611D01*
X118673414Y-55450896D02*
X117923414Y-55450896D01*
X117923414Y-55450896D02*
X118459128Y-55200896D01*
X118459128Y-55200896D02*
X117923414Y-54950896D01*
X117923414Y-54950896D02*
X118673414Y-54950896D01*
X118338066Y-61926115D02*
X118338066Y-61164211D01*
X118622614Y-48828439D02*
X117872614Y-48828439D01*
X117872614Y-48828439D02*
X117872614Y-48542725D01*
X117872614Y-48542725D02*
X117908328Y-48471296D01*
X117908328Y-48471296D02*
X117944042Y-48435582D01*
X117944042Y-48435582D02*
X118015471Y-48399868D01*
X118015471Y-48399868D02*
X118122614Y-48399868D01*
X118122614Y-48399868D02*
X118194042Y-48435582D01*
X118194042Y-48435582D02*
X118229757Y-48471296D01*
X118229757Y-48471296D02*
X118265471Y-48542725D01*
X118265471Y-48542725D02*
X118265471Y-48828439D01*
X117872614Y-48149868D02*
X118622614Y-47971296D01*
X118622614Y-47971296D02*
X118086900Y-47828439D01*
X118086900Y-47828439D02*
X118622614Y-47685582D01*
X118622614Y-47685582D02*
X117872614Y-47507011D01*
X118622614Y-47221296D02*
X117872614Y-47221296D01*
X117872614Y-47221296D02*
X118408328Y-46971296D01*
X118408328Y-46971296D02*
X117872614Y-46721296D01*
X117872614Y-46721296D02*
X118622614Y-46721296D01*
X118414266Y-53747315D02*
X118414266Y-52985411D01*
X114707315Y-83210933D02*
X113945411Y-83210933D01*
X110565284Y-83209866D02*
X111327189Y-83209866D01*
X110946236Y-83590819D02*
X110946236Y-82828914D01*
X107533619Y-88221525D02*
X107533619Y-88697715D01*
X107533619Y-88697715D02*
X108009809Y-88745334D01*
X108009809Y-88745334D02*
X107962190Y-88697715D01*
X107962190Y-88697715D02*
X107914571Y-88602477D01*
X107914571Y-88602477D02*
X107914571Y-88364382D01*
X107914571Y-88364382D02*
X107962190Y-88269144D01*
X107962190Y-88269144D02*
X108009809Y-88221525D01*
X108009809Y-88221525D02*
X108105047Y-88173906D01*
X108105047Y-88173906D02*
X108343142Y-88173906D01*
X108343142Y-88173906D02*
X108438380Y-88221525D01*
X108438380Y-88221525D02*
X108486000Y-88269144D01*
X108486000Y-88269144D02*
X108533619Y-88364382D01*
X108533619Y-88364382D02*
X108533619Y-88602477D01*
X108533619Y-88602477D02*
X108486000Y-88697715D01*
X108486000Y-88697715D02*
X108438380Y-88745334D01*
X107533619Y-87888191D02*
X108533619Y-87554858D01*
X108533619Y-87554858D02*
X107533619Y-87221525D01*
X108009809Y-85792953D02*
X108009809Y-86126286D01*
X108533619Y-86126286D02*
X107533619Y-86126286D01*
X107533619Y-86126286D02*
X107533619Y-85650096D01*
X108009809Y-85269143D02*
X108009809Y-84935810D01*
X108533619Y-84792953D02*
X108533619Y-85269143D01*
X108533619Y-85269143D02*
X107533619Y-85269143D01*
X107533619Y-85269143D02*
X107533619Y-84792953D01*
X107533619Y-84507238D02*
X107533619Y-83935810D01*
X108533619Y-84221524D02*
X107533619Y-84221524D01*
X108247474Y-37886819D02*
X107771284Y-37886819D01*
X107771284Y-37886819D02*
X107723665Y-38363009D01*
X107723665Y-38363009D02*
X107771284Y-38315390D01*
X107771284Y-38315390D02*
X107866522Y-38267771D01*
X107866522Y-38267771D02*
X108104617Y-38267771D01*
X108104617Y-38267771D02*
X108199855Y-38315390D01*
X108199855Y-38315390D02*
X108247474Y-38363009D01*
X108247474Y-38363009D02*
X108295093Y-38458247D01*
X108295093Y-38458247D02*
X108295093Y-38696342D01*
X108295093Y-38696342D02*
X108247474Y-38791580D01*
X108247474Y-38791580D02*
X108199855Y-38839200D01*
X108199855Y-38839200D02*
X108104617Y-38886819D01*
X108104617Y-38886819D02*
X107866522Y-38886819D01*
X107866522Y-38886819D02*
X107771284Y-38839200D01*
X107771284Y-38839200D02*
X107723665Y-38791580D01*
X108580808Y-37886819D02*
X108914141Y-38886819D01*
X108914141Y-38886819D02*
X109247474Y-37886819D01*
X78383484Y-78155266D02*
X79145389Y-78155266D01*
X78408884Y-74802466D02*
X79170789Y-74802466D01*
X78789836Y-75183419D02*
X78789836Y-74421514D01*
X74487693Y-73354619D02*
X73916265Y-73354619D01*
X74201979Y-73354619D02*
X74201979Y-72354619D01*
X74201979Y-72354619D02*
X74106741Y-72497476D01*
X74106741Y-72497476D02*
X74011503Y-72592714D01*
X74011503Y-72592714D02*
X73916265Y-72640333D01*
X74868646Y-72449857D02*
X74916265Y-72402238D01*
X74916265Y-72402238D02*
X75011503Y-72354619D01*
X75011503Y-72354619D02*
X75249598Y-72354619D01*
X75249598Y-72354619D02*
X75344836Y-72402238D01*
X75344836Y-72402238D02*
X75392455Y-72449857D01*
X75392455Y-72449857D02*
X75440074Y-72545095D01*
X75440074Y-72545095D02*
X75440074Y-72640333D01*
X75440074Y-72640333D02*
X75392455Y-72783190D01*
X75392455Y-72783190D02*
X74821027Y-73354619D01*
X74821027Y-73354619D02*
X75440074Y-73354619D01*
X75725789Y-72354619D02*
X76059122Y-73354619D01*
X76059122Y-73354619D02*
X76392455Y-72354619D01*
X77821027Y-72830809D02*
X77487694Y-72830809D01*
X77487694Y-73354619D02*
X77487694Y-72354619D01*
X77487694Y-72354619D02*
X77963884Y-72354619D01*
X78344837Y-72830809D02*
X78678170Y-72830809D01*
X78821027Y-73354619D02*
X78344837Y-73354619D01*
X78344837Y-73354619D02*
X78344837Y-72354619D01*
X78344837Y-72354619D02*
X78821027Y-72354619D01*
X79106742Y-72354619D02*
X79678170Y-72354619D01*
X79392456Y-73354619D02*
X79392456Y-72354619D01*
X78586684Y-71449619D02*
X78586684Y-70449619D01*
X78586684Y-70449619D02*
X78967636Y-70449619D01*
X78967636Y-70449619D02*
X79062874Y-70497238D01*
X79062874Y-70497238D02*
X79110493Y-70544857D01*
X79110493Y-70544857D02*
X79158112Y-70640095D01*
X79158112Y-70640095D02*
X79158112Y-70782952D01*
X79158112Y-70782952D02*
X79110493Y-70878190D01*
X79110493Y-70878190D02*
X79062874Y-70925809D01*
X79062874Y-70925809D02*
X78967636Y-70973428D01*
X78967636Y-70973428D02*
X78586684Y-70973428D01*
X79491446Y-70449619D02*
X79729541Y-71449619D01*
X79729541Y-71449619D02*
X79920017Y-70735333D01*
X79920017Y-70735333D02*
X80110493Y-71449619D01*
X80110493Y-71449619D02*
X80348589Y-70449619D01*
X80729541Y-71449619D02*
X80729541Y-70449619D01*
X80729541Y-70449619D02*
X81062874Y-71163904D01*
X81062874Y-71163904D02*
X81396207Y-70449619D01*
X81396207Y-70449619D02*
X81396207Y-71449619D01*
X78916884Y-65988666D02*
X79678789Y-65988666D01*
X75106884Y-64540819D02*
X75106884Y-63540819D01*
X75106884Y-63540819D02*
X75440217Y-64255104D01*
X75440217Y-64255104D02*
X75773550Y-63540819D01*
X75773550Y-63540819D02*
X75773550Y-64540819D01*
X76392598Y-64540819D02*
X76297360Y-64493200D01*
X76297360Y-64493200D02*
X76249741Y-64445580D01*
X76249741Y-64445580D02*
X76202122Y-64350342D01*
X76202122Y-64350342D02*
X76202122Y-64064628D01*
X76202122Y-64064628D02*
X76249741Y-63969390D01*
X76249741Y-63969390D02*
X76297360Y-63921771D01*
X76297360Y-63921771D02*
X76392598Y-63874152D01*
X76392598Y-63874152D02*
X76535455Y-63874152D01*
X76535455Y-63874152D02*
X76630693Y-63921771D01*
X76630693Y-63921771D02*
X76678312Y-63969390D01*
X76678312Y-63969390D02*
X76725931Y-64064628D01*
X76725931Y-64064628D02*
X76725931Y-64350342D01*
X76725931Y-64350342D02*
X76678312Y-64445580D01*
X76678312Y-64445580D02*
X76630693Y-64493200D01*
X76630693Y-64493200D02*
X76535455Y-64540819D01*
X76535455Y-64540819D02*
X76392598Y-64540819D01*
X77011646Y-63874152D02*
X77392598Y-63874152D01*
X77154503Y-63540819D02*
X77154503Y-64397961D01*
X77154503Y-64397961D02*
X77202122Y-64493200D01*
X77202122Y-64493200D02*
X77297360Y-64540819D01*
X77297360Y-64540819D02*
X77392598Y-64540819D01*
X77868789Y-64540819D02*
X77773551Y-64493200D01*
X77773551Y-64493200D02*
X77725932Y-64445580D01*
X77725932Y-64445580D02*
X77678313Y-64350342D01*
X77678313Y-64350342D02*
X77678313Y-64064628D01*
X77678313Y-64064628D02*
X77725932Y-63969390D01*
X77725932Y-63969390D02*
X77773551Y-63921771D01*
X77773551Y-63921771D02*
X77868789Y-63874152D01*
X77868789Y-63874152D02*
X78011646Y-63874152D01*
X78011646Y-63874152D02*
X78106884Y-63921771D01*
X78106884Y-63921771D02*
X78154503Y-63969390D01*
X78154503Y-63969390D02*
X78202122Y-64064628D01*
X78202122Y-64064628D02*
X78202122Y-64350342D01*
X78202122Y-64350342D02*
X78154503Y-64445580D01*
X78154503Y-64445580D02*
X78106884Y-64493200D01*
X78106884Y-64493200D02*
X78011646Y-64540819D01*
X78011646Y-64540819D02*
X77868789Y-64540819D01*
X78630694Y-64540819D02*
X78630694Y-63874152D01*
X78630694Y-64064628D02*
X78678313Y-63969390D01*
X78678313Y-63969390D02*
X78725932Y-63921771D01*
X78725932Y-63921771D02*
X78821170Y-63874152D01*
X78821170Y-63874152D02*
X78916408Y-63874152D01*
X83031684Y-60781666D02*
X83793589Y-60781666D01*
X83107884Y-58267066D02*
X83869789Y-58267066D01*
X83488836Y-58648019D02*
X83488836Y-57886114D01*
X75821217Y-54923809D02*
X75964074Y-54971428D01*
X75964074Y-54971428D02*
X76011693Y-55019047D01*
X76011693Y-55019047D02*
X76059312Y-55114285D01*
X76059312Y-55114285D02*
X76059312Y-55257142D01*
X76059312Y-55257142D02*
X76011693Y-55352380D01*
X76011693Y-55352380D02*
X75964074Y-55400000D01*
X75964074Y-55400000D02*
X75868836Y-55447619D01*
X75868836Y-55447619D02*
X75487884Y-55447619D01*
X75487884Y-55447619D02*
X75487884Y-54447619D01*
X75487884Y-54447619D02*
X75821217Y-54447619D01*
X75821217Y-54447619D02*
X75916455Y-54495238D01*
X75916455Y-54495238D02*
X75964074Y-54542857D01*
X75964074Y-54542857D02*
X76011693Y-54638095D01*
X76011693Y-54638095D02*
X76011693Y-54733333D01*
X76011693Y-54733333D02*
X75964074Y-54828571D01*
X75964074Y-54828571D02*
X75916455Y-54876190D01*
X75916455Y-54876190D02*
X75821217Y-54923809D01*
X75821217Y-54923809D02*
X75487884Y-54923809D01*
X76916455Y-55447619D02*
X76916455Y-54923809D01*
X76916455Y-54923809D02*
X76868836Y-54828571D01*
X76868836Y-54828571D02*
X76773598Y-54780952D01*
X76773598Y-54780952D02*
X76583122Y-54780952D01*
X76583122Y-54780952D02*
X76487884Y-54828571D01*
X76916455Y-55400000D02*
X76821217Y-55447619D01*
X76821217Y-55447619D02*
X76583122Y-55447619D01*
X76583122Y-55447619D02*
X76487884Y-55400000D01*
X76487884Y-55400000D02*
X76440265Y-55304761D01*
X76440265Y-55304761D02*
X76440265Y-55209523D01*
X76440265Y-55209523D02*
X76487884Y-55114285D01*
X76487884Y-55114285D02*
X76583122Y-55066666D01*
X76583122Y-55066666D02*
X76821217Y-55066666D01*
X76821217Y-55066666D02*
X76916455Y-55019047D01*
X77249789Y-54780952D02*
X77630741Y-54780952D01*
X77392646Y-54447619D02*
X77392646Y-55304761D01*
X77392646Y-55304761D02*
X77440265Y-55400000D01*
X77440265Y-55400000D02*
X77535503Y-55447619D01*
X77535503Y-55447619D02*
X77630741Y-55447619D01*
X77821218Y-54780952D02*
X78202170Y-54780952D01*
X77964075Y-54447619D02*
X77964075Y-55304761D01*
X77964075Y-55304761D02*
X78011694Y-55400000D01*
X78011694Y-55400000D02*
X78106932Y-55447619D01*
X78106932Y-55447619D02*
X78202170Y-55447619D01*
X78612084Y-52933066D02*
X79373989Y-52933066D01*
X78993036Y-53314019D02*
X78993036Y-52552114D01*
X78637484Y-49453266D02*
X79399389Y-49453266D01*
X75837074Y-47395819D02*
X75360884Y-47395819D01*
X75360884Y-47395819D02*
X75360884Y-46395819D01*
X76170408Y-46872009D02*
X76503741Y-46872009D01*
X76646598Y-47395819D02*
X76170408Y-47395819D01*
X76170408Y-47395819D02*
X76170408Y-46395819D01*
X76170408Y-46395819D02*
X76646598Y-46395819D01*
X77075170Y-47395819D02*
X77075170Y-46395819D01*
X77075170Y-46395819D02*
X77313265Y-46395819D01*
X77313265Y-46395819D02*
X77456122Y-46443438D01*
X77456122Y-46443438D02*
X77551360Y-46538676D01*
X77551360Y-46538676D02*
X77598979Y-46633914D01*
X77598979Y-46633914D02*
X77646598Y-46824390D01*
X77646598Y-46824390D02*
X77646598Y-46967247D01*
X77646598Y-46967247D02*
X77598979Y-47157723D01*
X77598979Y-47157723D02*
X77551360Y-47252961D01*
X77551360Y-47252961D02*
X77456122Y-47348200D01*
X77456122Y-47348200D02*
X77313265Y-47395819D01*
X77313265Y-47395819D02*
X77075170Y-47395819D01*
D11*
X76493019Y-59870933D02*
X77207304Y-59870933D01*
X77207304Y-59870933D02*
X77350161Y-59918552D01*
X77350161Y-59918552D02*
X77445400Y-60013790D01*
X77445400Y-60013790D02*
X77493019Y-60156647D01*
X77493019Y-60156647D02*
X77493019Y-60251885D01*
X76921590Y-59251885D02*
X76873971Y-59347123D01*
X76873971Y-59347123D02*
X76826352Y-59394742D01*
X76826352Y-59394742D02*
X76731114Y-59442361D01*
X76731114Y-59442361D02*
X76683495Y-59442361D01*
X76683495Y-59442361D02*
X76588257Y-59394742D01*
X76588257Y-59394742D02*
X76540638Y-59347123D01*
X76540638Y-59347123D02*
X76493019Y-59251885D01*
X76493019Y-59251885D02*
X76493019Y-59061409D01*
X76493019Y-59061409D02*
X76540638Y-58966171D01*
X76540638Y-58966171D02*
X76588257Y-58918552D01*
X76588257Y-58918552D02*
X76683495Y-58870933D01*
X76683495Y-58870933D02*
X76731114Y-58870933D01*
X76731114Y-58870933D02*
X76826352Y-58918552D01*
X76826352Y-58918552D02*
X76873971Y-58966171D01*
X76873971Y-58966171D02*
X76921590Y-59061409D01*
X76921590Y-59061409D02*
X76921590Y-59251885D01*
X76921590Y-59251885D02*
X76969209Y-59347123D01*
X76969209Y-59347123D02*
X77016828Y-59394742D01*
X77016828Y-59394742D02*
X77112066Y-59442361D01*
X77112066Y-59442361D02*
X77302542Y-59442361D01*
X77302542Y-59442361D02*
X77397780Y-59394742D01*
X77397780Y-59394742D02*
X77445400Y-59347123D01*
X77445400Y-59347123D02*
X77493019Y-59251885D01*
X77493019Y-59251885D02*
X77493019Y-59061409D01*
X77493019Y-59061409D02*
X77445400Y-58966171D01*
X77445400Y-58966171D02*
X77397780Y-58918552D01*
X77397780Y-58918552D02*
X77302542Y-58870933D01*
X77302542Y-58870933D02*
X77112066Y-58870933D01*
X77112066Y-58870933D02*
X77016828Y-58918552D01*
X77016828Y-58918552D02*
X76969209Y-58966171D01*
X76969209Y-58966171D02*
X76921590Y-59061409D01*
X115822505Y-72184419D02*
X115822505Y-71184419D01*
X115822505Y-71184419D02*
X116060600Y-71184419D01*
X116060600Y-71184419D02*
X116203457Y-71232038D01*
X116203457Y-71232038D02*
X116298695Y-71327276D01*
X116298695Y-71327276D02*
X116346314Y-71422514D01*
X116346314Y-71422514D02*
X116393933Y-71612990D01*
X116393933Y-71612990D02*
X116393933Y-71755847D01*
X116393933Y-71755847D02*
X116346314Y-71946323D01*
X116346314Y-71946323D02*
X116298695Y-72041561D01*
X116298695Y-72041561D02*
X116203457Y-72136800D01*
X116203457Y-72136800D02*
X116060600Y-72184419D01*
X116060600Y-72184419D02*
X115822505Y-72184419D01*
X116727267Y-71184419D02*
X117346314Y-71184419D01*
X117346314Y-71184419D02*
X117012981Y-71565371D01*
X117012981Y-71565371D02*
X117155838Y-71565371D01*
X117155838Y-71565371D02*
X117251076Y-71612990D01*
X117251076Y-71612990D02*
X117298695Y-71660609D01*
X117298695Y-71660609D02*
X117346314Y-71755847D01*
X117346314Y-71755847D02*
X117346314Y-71993942D01*
X117346314Y-71993942D02*
X117298695Y-72089180D01*
X117298695Y-72089180D02*
X117251076Y-72136800D01*
X117251076Y-72136800D02*
X117155838Y-72184419D01*
X117155838Y-72184419D02*
X116870124Y-72184419D01*
X116870124Y-72184419D02*
X116774886Y-72136800D01*
X116774886Y-72136800D02*
X116727267Y-72089180D01*
X115847905Y-50238819D02*
X115847905Y-49238819D01*
X115847905Y-49238819D02*
X116086000Y-49238819D01*
X116086000Y-49238819D02*
X116228857Y-49286438D01*
X116228857Y-49286438D02*
X116324095Y-49381676D01*
X116324095Y-49381676D02*
X116371714Y-49476914D01*
X116371714Y-49476914D02*
X116419333Y-49667390D01*
X116419333Y-49667390D02*
X116419333Y-49810247D01*
X116419333Y-49810247D02*
X116371714Y-50000723D01*
X116371714Y-50000723D02*
X116324095Y-50095961D01*
X116324095Y-50095961D02*
X116228857Y-50191200D01*
X116228857Y-50191200D02*
X116086000Y-50238819D01*
X116086000Y-50238819D02*
X115847905Y-50238819D01*
X117276476Y-49572152D02*
X117276476Y-50238819D01*
X117038381Y-49191200D02*
X116800286Y-49905485D01*
X116800286Y-49905485D02*
X117419333Y-49905485D01*
X115949505Y-58366819D02*
X115949505Y-57366819D01*
X115949505Y-57366819D02*
X116187600Y-57366819D01*
X116187600Y-57366819D02*
X116330457Y-57414438D01*
X116330457Y-57414438D02*
X116425695Y-57509676D01*
X116425695Y-57509676D02*
X116473314Y-57604914D01*
X116473314Y-57604914D02*
X116520933Y-57795390D01*
X116520933Y-57795390D02*
X116520933Y-57938247D01*
X116520933Y-57938247D02*
X116473314Y-58128723D01*
X116473314Y-58128723D02*
X116425695Y-58223961D01*
X116425695Y-58223961D02*
X116330457Y-58319200D01*
X116330457Y-58319200D02*
X116187600Y-58366819D01*
X116187600Y-58366819D02*
X115949505Y-58366819D01*
X117425695Y-57366819D02*
X116949505Y-57366819D01*
X116949505Y-57366819D02*
X116901886Y-57843009D01*
X116901886Y-57843009D02*
X116949505Y-57795390D01*
X116949505Y-57795390D02*
X117044743Y-57747771D01*
X117044743Y-57747771D02*
X117282838Y-57747771D01*
X117282838Y-57747771D02*
X117378076Y-57795390D01*
X117378076Y-57795390D02*
X117425695Y-57843009D01*
X117425695Y-57843009D02*
X117473314Y-57938247D01*
X117473314Y-57938247D02*
X117473314Y-58176342D01*
X117473314Y-58176342D02*
X117425695Y-58271580D01*
X117425695Y-58271580D02*
X117378076Y-58319200D01*
X117378076Y-58319200D02*
X117282838Y-58366819D01*
X117282838Y-58366819D02*
X117044743Y-58366819D01*
X117044743Y-58366819D02*
X116949505Y-58319200D01*
X116949505Y-58319200D02*
X116901886Y-58271580D01*
X115949505Y-76197619D02*
X115949505Y-75197619D01*
X115949505Y-75197619D02*
X116187600Y-75197619D01*
X116187600Y-75197619D02*
X116330457Y-75245238D01*
X116330457Y-75245238D02*
X116425695Y-75340476D01*
X116425695Y-75340476D02*
X116473314Y-75435714D01*
X116473314Y-75435714D02*
X116520933Y-75626190D01*
X116520933Y-75626190D02*
X116520933Y-75769047D01*
X116520933Y-75769047D02*
X116473314Y-75959523D01*
X116473314Y-75959523D02*
X116425695Y-76054761D01*
X116425695Y-76054761D02*
X116330457Y-76150000D01*
X116330457Y-76150000D02*
X116187600Y-76197619D01*
X116187600Y-76197619D02*
X115949505Y-76197619D01*
X117378076Y-75197619D02*
X117187600Y-75197619D01*
X117187600Y-75197619D02*
X117092362Y-75245238D01*
X117092362Y-75245238D02*
X117044743Y-75292857D01*
X117044743Y-75292857D02*
X116949505Y-75435714D01*
X116949505Y-75435714D02*
X116901886Y-75626190D01*
X116901886Y-75626190D02*
X116901886Y-76007142D01*
X116901886Y-76007142D02*
X116949505Y-76102380D01*
X116949505Y-76102380D02*
X116997124Y-76150000D01*
X116997124Y-76150000D02*
X117092362Y-76197619D01*
X117092362Y-76197619D02*
X117282838Y-76197619D01*
X117282838Y-76197619D02*
X117378076Y-76150000D01*
X117378076Y-76150000D02*
X117425695Y-76102380D01*
X117425695Y-76102380D02*
X117473314Y-76007142D01*
X117473314Y-76007142D02*
X117473314Y-75769047D01*
X117473314Y-75769047D02*
X117425695Y-75673809D01*
X117425695Y-75673809D02*
X117378076Y-75626190D01*
X117378076Y-75626190D02*
X117282838Y-75578571D01*
X117282838Y-75578571D02*
X117092362Y-75578571D01*
X117092362Y-75578571D02*
X116997124Y-75626190D01*
X116997124Y-75626190D02*
X116949505Y-75673809D01*
X116949505Y-75673809D02*
X116901886Y-75769047D01*
X81380105Y-68349019D02*
X81380105Y-67349019D01*
X81380105Y-67349019D02*
X81618200Y-67349019D01*
X81618200Y-67349019D02*
X81761057Y-67396638D01*
X81761057Y-67396638D02*
X81856295Y-67491876D01*
X81856295Y-67491876D02*
X81903914Y-67587114D01*
X81903914Y-67587114D02*
X81951533Y-67777590D01*
X81951533Y-67777590D02*
X81951533Y-67920447D01*
X81951533Y-67920447D02*
X81903914Y-68110923D01*
X81903914Y-68110923D02*
X81856295Y-68206161D01*
X81856295Y-68206161D02*
X81761057Y-68301400D01*
X81761057Y-68301400D02*
X81618200Y-68349019D01*
X81618200Y-68349019D02*
X81380105Y-68349019D01*
X82284867Y-67349019D02*
X82951533Y-67349019D01*
X82951533Y-67349019D02*
X82522962Y-68349019D01*
X80922019Y-80082094D02*
X79922019Y-80082094D01*
X79922019Y-80082094D02*
X79922019Y-79843999D01*
X79922019Y-79843999D02*
X79969638Y-79701142D01*
X79969638Y-79701142D02*
X80064876Y-79605904D01*
X80064876Y-79605904D02*
X80160114Y-79558285D01*
X80160114Y-79558285D02*
X80350590Y-79510666D01*
X80350590Y-79510666D02*
X80493447Y-79510666D01*
X80493447Y-79510666D02*
X80683923Y-79558285D01*
X80683923Y-79558285D02*
X80779161Y-79605904D01*
X80779161Y-79605904D02*
X80874400Y-79701142D01*
X80874400Y-79701142D02*
X80922019Y-79843999D01*
X80922019Y-79843999D02*
X80922019Y-80082094D01*
X80350590Y-78939237D02*
X80302971Y-79034475D01*
X80302971Y-79034475D02*
X80255352Y-79082094D01*
X80255352Y-79082094D02*
X80160114Y-79129713D01*
X80160114Y-79129713D02*
X80112495Y-79129713D01*
X80112495Y-79129713D02*
X80017257Y-79082094D01*
X80017257Y-79082094D02*
X79969638Y-79034475D01*
X79969638Y-79034475D02*
X79922019Y-78939237D01*
X79922019Y-78939237D02*
X79922019Y-78748761D01*
X79922019Y-78748761D02*
X79969638Y-78653523D01*
X79969638Y-78653523D02*
X80017257Y-78605904D01*
X80017257Y-78605904D02*
X80112495Y-78558285D01*
X80112495Y-78558285D02*
X80160114Y-78558285D01*
X80160114Y-78558285D02*
X80255352Y-78605904D01*
X80255352Y-78605904D02*
X80302971Y-78653523D01*
X80302971Y-78653523D02*
X80350590Y-78748761D01*
X80350590Y-78748761D02*
X80350590Y-78939237D01*
X80350590Y-78939237D02*
X80398209Y-79034475D01*
X80398209Y-79034475D02*
X80445828Y-79082094D01*
X80445828Y-79082094D02*
X80541066Y-79129713D01*
X80541066Y-79129713D02*
X80731542Y-79129713D01*
X80731542Y-79129713D02*
X80826780Y-79082094D01*
X80826780Y-79082094D02*
X80874400Y-79034475D01*
X80874400Y-79034475D02*
X80922019Y-78939237D01*
X80922019Y-78939237D02*
X80922019Y-78748761D01*
X80922019Y-78748761D02*
X80874400Y-78653523D01*
X80874400Y-78653523D02*
X80826780Y-78605904D01*
X80826780Y-78605904D02*
X80731542Y-78558285D01*
X80731542Y-78558285D02*
X80541066Y-78558285D01*
X80541066Y-78558285D02*
X80445828Y-78605904D01*
X80445828Y-78605904D02*
X80398209Y-78653523D01*
X80398209Y-78653523D02*
X80350590Y-78748761D01*
X80922019Y-74544894D02*
X79922019Y-74544894D01*
X79922019Y-74544894D02*
X79922019Y-74306799D01*
X79922019Y-74306799D02*
X79969638Y-74163942D01*
X79969638Y-74163942D02*
X80064876Y-74068704D01*
X80064876Y-74068704D02*
X80160114Y-74021085D01*
X80160114Y-74021085D02*
X80350590Y-73973466D01*
X80350590Y-73973466D02*
X80493447Y-73973466D01*
X80493447Y-73973466D02*
X80683923Y-74021085D01*
X80683923Y-74021085D02*
X80779161Y-74068704D01*
X80779161Y-74068704D02*
X80874400Y-74163942D01*
X80874400Y-74163942D02*
X80922019Y-74306799D01*
X80922019Y-74306799D02*
X80922019Y-74544894D01*
X80922019Y-73497275D02*
X80922019Y-73306799D01*
X80922019Y-73306799D02*
X80874400Y-73211561D01*
X80874400Y-73211561D02*
X80826780Y-73163942D01*
X80826780Y-73163942D02*
X80683923Y-73068704D01*
X80683923Y-73068704D02*
X80493447Y-73021085D01*
X80493447Y-73021085D02*
X80112495Y-73021085D01*
X80112495Y-73021085D02*
X80017257Y-73068704D01*
X80017257Y-73068704D02*
X79969638Y-73116323D01*
X79969638Y-73116323D02*
X79922019Y-73211561D01*
X79922019Y-73211561D02*
X79922019Y-73402037D01*
X79922019Y-73402037D02*
X79969638Y-73497275D01*
X79969638Y-73497275D02*
X80017257Y-73544894D01*
X80017257Y-73544894D02*
X80112495Y-73592513D01*
X80112495Y-73592513D02*
X80350590Y-73592513D01*
X80350590Y-73592513D02*
X80445828Y-73544894D01*
X80445828Y-73544894D02*
X80493447Y-73497275D01*
X80493447Y-73497275D02*
X80541066Y-73402037D01*
X80541066Y-73402037D02*
X80541066Y-73211561D01*
X80541066Y-73211561D02*
X80493447Y-73116323D01*
X80493447Y-73116323D02*
X80445828Y-73068704D01*
X80445828Y-73068704D02*
X80350590Y-73021085D01*
X107904114Y-82084819D02*
X107904114Y-81084819D01*
X107904114Y-81084819D02*
X108142209Y-81084819D01*
X108142209Y-81084819D02*
X108285066Y-81132438D01*
X108285066Y-81132438D02*
X108380304Y-81227676D01*
X108380304Y-81227676D02*
X108427923Y-81322914D01*
X108427923Y-81322914D02*
X108475542Y-81513390D01*
X108475542Y-81513390D02*
X108475542Y-81656247D01*
X108475542Y-81656247D02*
X108427923Y-81846723D01*
X108427923Y-81846723D02*
X108380304Y-81941961D01*
X108380304Y-81941961D02*
X108285066Y-82037200D01*
X108285066Y-82037200D02*
X108142209Y-82084819D01*
X108142209Y-82084819D02*
X107904114Y-82084819D01*
X109427923Y-82084819D02*
X108856495Y-82084819D01*
X109142209Y-82084819D02*
X109142209Y-81084819D01*
X109142209Y-81084819D02*
X109046971Y-81227676D01*
X109046971Y-81227676D02*
X108951733Y-81322914D01*
X108951733Y-81322914D02*
X108856495Y-81370533D01*
X110046971Y-81084819D02*
X110142209Y-81084819D01*
X110142209Y-81084819D02*
X110237447Y-81132438D01*
X110237447Y-81132438D02*
X110285066Y-81180057D01*
X110285066Y-81180057D02*
X110332685Y-81275295D01*
X110332685Y-81275295D02*
X110380304Y-81465771D01*
X110380304Y-81465771D02*
X110380304Y-81703866D01*
X110380304Y-81703866D02*
X110332685Y-81894342D01*
X110332685Y-81894342D02*
X110285066Y-81989580D01*
X110285066Y-81989580D02*
X110237447Y-82037200D01*
X110237447Y-82037200D02*
X110142209Y-82084819D01*
X110142209Y-82084819D02*
X110046971Y-82084819D01*
X110046971Y-82084819D02*
X109951733Y-82037200D01*
X109951733Y-82037200D02*
X109904114Y-81989580D01*
X109904114Y-81989580D02*
X109856495Y-81894342D01*
X109856495Y-81894342D02*
X109808876Y-81703866D01*
X109808876Y-81703866D02*
X109808876Y-81465771D01*
X109808876Y-81465771D02*
X109856495Y-81275295D01*
X109856495Y-81275295D02*
X109904114Y-81180057D01*
X109904114Y-81180057D02*
X109951733Y-81132438D01*
X109951733Y-81132438D02*
X110046971Y-81084819D01*
X114609714Y-82084819D02*
X114609714Y-81084819D01*
X114609714Y-81084819D02*
X114847809Y-81084819D01*
X114847809Y-81084819D02*
X114990666Y-81132438D01*
X114990666Y-81132438D02*
X115085904Y-81227676D01*
X115085904Y-81227676D02*
X115133523Y-81322914D01*
X115133523Y-81322914D02*
X115181142Y-81513390D01*
X115181142Y-81513390D02*
X115181142Y-81656247D01*
X115181142Y-81656247D02*
X115133523Y-81846723D01*
X115133523Y-81846723D02*
X115085904Y-81941961D01*
X115085904Y-81941961D02*
X114990666Y-82037200D01*
X114990666Y-82037200D02*
X114847809Y-82084819D01*
X114847809Y-82084819D02*
X114609714Y-82084819D01*
X116133523Y-82084819D02*
X115562095Y-82084819D01*
X115847809Y-82084819D02*
X115847809Y-81084819D01*
X115847809Y-81084819D02*
X115752571Y-81227676D01*
X115752571Y-81227676D02*
X115657333Y-81322914D01*
X115657333Y-81322914D02*
X115562095Y-81370533D01*
X117085904Y-82084819D02*
X116514476Y-82084819D01*
X116800190Y-82084819D02*
X116800190Y-81084819D01*
X116800190Y-81084819D02*
X116704952Y-81227676D01*
X116704952Y-81227676D02*
X116609714Y-81322914D01*
X116609714Y-81322914D02*
X116514476Y-81370533D01*
X85729914Y-56995219D02*
X85729914Y-55995219D01*
X85729914Y-55995219D02*
X85968009Y-55995219D01*
X85968009Y-55995219D02*
X86110866Y-56042838D01*
X86110866Y-56042838D02*
X86206104Y-56138076D01*
X86206104Y-56138076D02*
X86253723Y-56233314D01*
X86253723Y-56233314D02*
X86301342Y-56423790D01*
X86301342Y-56423790D02*
X86301342Y-56566647D01*
X86301342Y-56566647D02*
X86253723Y-56757123D01*
X86253723Y-56757123D02*
X86206104Y-56852361D01*
X86206104Y-56852361D02*
X86110866Y-56947600D01*
X86110866Y-56947600D02*
X85968009Y-56995219D01*
X85968009Y-56995219D02*
X85729914Y-56995219D01*
X87253723Y-56995219D02*
X86682295Y-56995219D01*
X86968009Y-56995219D02*
X86968009Y-55995219D01*
X86968009Y-55995219D02*
X86872771Y-56138076D01*
X86872771Y-56138076D02*
X86777533Y-56233314D01*
X86777533Y-56233314D02*
X86682295Y-56280933D01*
X87634676Y-56090457D02*
X87682295Y-56042838D01*
X87682295Y-56042838D02*
X87777533Y-55995219D01*
X87777533Y-55995219D02*
X88015628Y-55995219D01*
X88015628Y-55995219D02*
X88110866Y-56042838D01*
X88110866Y-56042838D02*
X88158485Y-56090457D01*
X88158485Y-56090457D02*
X88206104Y-56185695D01*
X88206104Y-56185695D02*
X88206104Y-56280933D01*
X88206104Y-56280933D02*
X88158485Y-56423790D01*
X88158485Y-56423790D02*
X87587057Y-56995219D01*
X87587057Y-56995219D02*
X88206104Y-56995219D01*
X80871219Y-54751885D02*
X79871219Y-54751885D01*
X79871219Y-54751885D02*
X79871219Y-54513790D01*
X79871219Y-54513790D02*
X79918838Y-54370933D01*
X79918838Y-54370933D02*
X80014076Y-54275695D01*
X80014076Y-54275695D02*
X80109314Y-54228076D01*
X80109314Y-54228076D02*
X80299790Y-54180457D01*
X80299790Y-54180457D02*
X80442647Y-54180457D01*
X80442647Y-54180457D02*
X80633123Y-54228076D01*
X80633123Y-54228076D02*
X80728361Y-54275695D01*
X80728361Y-54275695D02*
X80823600Y-54370933D01*
X80823600Y-54370933D02*
X80871219Y-54513790D01*
X80871219Y-54513790D02*
X80871219Y-54751885D01*
X80871219Y-53228076D02*
X80871219Y-53799504D01*
X80871219Y-53513790D02*
X79871219Y-53513790D01*
X79871219Y-53513790D02*
X80014076Y-53609028D01*
X80014076Y-53609028D02*
X80109314Y-53704266D01*
X80109314Y-53704266D02*
X80156933Y-53799504D01*
X79871219Y-52894742D02*
X79871219Y-52275695D01*
X79871219Y-52275695D02*
X80252171Y-52609028D01*
X80252171Y-52609028D02*
X80252171Y-52466171D01*
X80252171Y-52466171D02*
X80299790Y-52370933D01*
X80299790Y-52370933D02*
X80347409Y-52323314D01*
X80347409Y-52323314D02*
X80442647Y-52275695D01*
X80442647Y-52275695D02*
X80680742Y-52275695D01*
X80680742Y-52275695D02*
X80775980Y-52323314D01*
X80775980Y-52323314D02*
X80823600Y-52370933D01*
X80823600Y-52370933D02*
X80871219Y-52466171D01*
X80871219Y-52466171D02*
X80871219Y-52751885D01*
X80871219Y-52751885D02*
X80823600Y-52847123D01*
X80823600Y-52847123D02*
X80775980Y-52894742D01*
X75299219Y-68806133D02*
X76013504Y-68806133D01*
X76013504Y-68806133D02*
X76156361Y-68853752D01*
X76156361Y-68853752D02*
X76251600Y-68948990D01*
X76251600Y-68948990D02*
X76299219Y-69091847D01*
X76299219Y-69091847D02*
X76299219Y-69187085D01*
X75299219Y-67853752D02*
X75299219Y-68329942D01*
X75299219Y-68329942D02*
X75775409Y-68377561D01*
X75775409Y-68377561D02*
X75727790Y-68329942D01*
X75727790Y-68329942D02*
X75680171Y-68234704D01*
X75680171Y-68234704D02*
X75680171Y-67996609D01*
X75680171Y-67996609D02*
X75727790Y-67901371D01*
X75727790Y-67901371D02*
X75775409Y-67853752D01*
X75775409Y-67853752D02*
X75870647Y-67806133D01*
X75870647Y-67806133D02*
X76108742Y-67806133D01*
X76108742Y-67806133D02*
X76203980Y-67853752D01*
X76203980Y-67853752D02*
X76251600Y-67901371D01*
X76251600Y-67901371D02*
X76299219Y-67996609D01*
X76299219Y-67996609D02*
X76299219Y-68234704D01*
X76299219Y-68234704D02*
X76251600Y-68329942D01*
X76251600Y-68329942D02*
X76203980Y-68377561D01*
X110678933Y-48162380D02*
X110631314Y-48210000D01*
X110631314Y-48210000D02*
X110488457Y-48257619D01*
X110488457Y-48257619D02*
X110393219Y-48257619D01*
X110393219Y-48257619D02*
X110250362Y-48210000D01*
X110250362Y-48210000D02*
X110155124Y-48114761D01*
X110155124Y-48114761D02*
X110107505Y-48019523D01*
X110107505Y-48019523D02*
X110059886Y-47829047D01*
X110059886Y-47829047D02*
X110059886Y-47686190D01*
X110059886Y-47686190D02*
X110107505Y-47495714D01*
X110107505Y-47495714D02*
X110155124Y-47400476D01*
X110155124Y-47400476D02*
X110250362Y-47305238D01*
X110250362Y-47305238D02*
X110393219Y-47257619D01*
X110393219Y-47257619D02*
X110488457Y-47257619D01*
X110488457Y-47257619D02*
X110631314Y-47305238D01*
X110631314Y-47305238D02*
X110678933Y-47352857D01*
X111155124Y-48257619D02*
X111345600Y-48257619D01*
X111345600Y-48257619D02*
X111440838Y-48210000D01*
X111440838Y-48210000D02*
X111488457Y-48162380D01*
X111488457Y-48162380D02*
X111583695Y-48019523D01*
X111583695Y-48019523D02*
X111631314Y-47829047D01*
X111631314Y-47829047D02*
X111631314Y-47448095D01*
X111631314Y-47448095D02*
X111583695Y-47352857D01*
X111583695Y-47352857D02*
X111536076Y-47305238D01*
X111536076Y-47305238D02*
X111440838Y-47257619D01*
X111440838Y-47257619D02*
X111250362Y-47257619D01*
X111250362Y-47257619D02*
X111155124Y-47305238D01*
X111155124Y-47305238D02*
X111107505Y-47352857D01*
X111107505Y-47352857D02*
X111059886Y-47448095D01*
X111059886Y-47448095D02*
X111059886Y-47686190D01*
X111059886Y-47686190D02*
X111107505Y-47781428D01*
X111107505Y-47781428D02*
X111155124Y-47829047D01*
X111155124Y-47829047D02*
X111250362Y-47876666D01*
X111250362Y-47876666D02*
X111440838Y-47876666D01*
X111440838Y-47876666D02*
X111536076Y-47829047D01*
X111536076Y-47829047D02*
X111583695Y-47781428D01*
X111583695Y-47781428D02*
X111631314Y-47686190D01*
X82008742Y-55168419D02*
X81675409Y-54692228D01*
X81437314Y-55168419D02*
X81437314Y-54168419D01*
X81437314Y-54168419D02*
X81818266Y-54168419D01*
X81818266Y-54168419D02*
X81913504Y-54216038D01*
X81913504Y-54216038D02*
X81961123Y-54263657D01*
X81961123Y-54263657D02*
X82008742Y-54358895D01*
X82008742Y-54358895D02*
X82008742Y-54501752D01*
X82008742Y-54501752D02*
X81961123Y-54596990D01*
X81961123Y-54596990D02*
X81913504Y-54644609D01*
X81913504Y-54644609D02*
X81818266Y-54692228D01*
X81818266Y-54692228D02*
X81437314Y-54692228D01*
X82961123Y-55168419D02*
X82389695Y-55168419D01*
X82675409Y-55168419D02*
X82675409Y-54168419D01*
X82675409Y-54168419D02*
X82580171Y-54311276D01*
X82580171Y-54311276D02*
X82484933Y-54406514D01*
X82484933Y-54406514D02*
X82389695Y-54454133D01*
X83913504Y-55168419D02*
X83342076Y-55168419D01*
X83627790Y-55168419D02*
X83627790Y-54168419D01*
X83627790Y-54168419D02*
X83532552Y-54311276D01*
X83532552Y-54311276D02*
X83437314Y-54406514D01*
X83437314Y-54406514D02*
X83342076Y-54454133D01*
X112914133Y-65478819D02*
X112580800Y-65002628D01*
X112342705Y-65478819D02*
X112342705Y-64478819D01*
X112342705Y-64478819D02*
X112723657Y-64478819D01*
X112723657Y-64478819D02*
X112818895Y-64526438D01*
X112818895Y-64526438D02*
X112866514Y-64574057D01*
X112866514Y-64574057D02*
X112914133Y-64669295D01*
X112914133Y-64669295D02*
X112914133Y-64812152D01*
X112914133Y-64812152D02*
X112866514Y-64907390D01*
X112866514Y-64907390D02*
X112818895Y-64955009D01*
X112818895Y-64955009D02*
X112723657Y-65002628D01*
X112723657Y-65002628D02*
X112342705Y-65002628D01*
X113771276Y-64812152D02*
X113771276Y-65478819D01*
X113533181Y-64431200D02*
X113295086Y-65145485D01*
X113295086Y-65145485D02*
X113914133Y-65145485D01*
X80674380Y-48579066D02*
X80722000Y-48626685D01*
X80722000Y-48626685D02*
X80769619Y-48769542D01*
X80769619Y-48769542D02*
X80769619Y-48864780D01*
X80769619Y-48864780D02*
X80722000Y-49007637D01*
X80722000Y-49007637D02*
X80626761Y-49102875D01*
X80626761Y-49102875D02*
X80531523Y-49150494D01*
X80531523Y-49150494D02*
X80341047Y-49198113D01*
X80341047Y-49198113D02*
X80198190Y-49198113D01*
X80198190Y-49198113D02*
X80007714Y-49150494D01*
X80007714Y-49150494D02*
X79912476Y-49102875D01*
X79912476Y-49102875D02*
X79817238Y-49007637D01*
X79817238Y-49007637D02*
X79769619Y-48864780D01*
X79769619Y-48864780D02*
X79769619Y-48769542D01*
X79769619Y-48769542D02*
X79817238Y-48626685D01*
X79817238Y-48626685D02*
X79864857Y-48579066D01*
X79864857Y-48198113D02*
X79817238Y-48150494D01*
X79817238Y-48150494D02*
X79769619Y-48055256D01*
X79769619Y-48055256D02*
X79769619Y-47817161D01*
X79769619Y-47817161D02*
X79817238Y-47721923D01*
X79817238Y-47721923D02*
X79864857Y-47674304D01*
X79864857Y-47674304D02*
X79960095Y-47626685D01*
X79960095Y-47626685D02*
X80055333Y-47626685D01*
X80055333Y-47626685D02*
X80198190Y-47674304D01*
X80198190Y-47674304D02*
X80769619Y-48245732D01*
X80769619Y-48245732D02*
X80769619Y-47626685D01*
X89869180Y-77528657D02*
X89916800Y-77576276D01*
X89916800Y-77576276D02*
X89964419Y-77719133D01*
X89964419Y-77719133D02*
X89964419Y-77814371D01*
X89964419Y-77814371D02*
X89916800Y-77957228D01*
X89916800Y-77957228D02*
X89821561Y-78052466D01*
X89821561Y-78052466D02*
X89726323Y-78100085D01*
X89726323Y-78100085D02*
X89535847Y-78147704D01*
X89535847Y-78147704D02*
X89392990Y-78147704D01*
X89392990Y-78147704D02*
X89202514Y-78100085D01*
X89202514Y-78100085D02*
X89107276Y-78052466D01*
X89107276Y-78052466D02*
X89012038Y-77957228D01*
X89012038Y-77957228D02*
X88964419Y-77814371D01*
X88964419Y-77814371D02*
X88964419Y-77719133D01*
X88964419Y-77719133D02*
X89012038Y-77576276D01*
X89012038Y-77576276D02*
X89059657Y-77528657D01*
X89964419Y-76576276D02*
X89964419Y-77147704D01*
X89964419Y-76861990D02*
X88964419Y-76861990D01*
X88964419Y-76861990D02*
X89107276Y-76957228D01*
X89107276Y-76957228D02*
X89202514Y-77052466D01*
X89202514Y-77052466D02*
X89250133Y-77147704D01*
X89059657Y-76195323D02*
X89012038Y-76147704D01*
X89012038Y-76147704D02*
X88964419Y-76052466D01*
X88964419Y-76052466D02*
X88964419Y-75814371D01*
X88964419Y-75814371D02*
X89012038Y-75719133D01*
X89012038Y-75719133D02*
X89059657Y-75671514D01*
X89059657Y-75671514D02*
X89154895Y-75623895D01*
X89154895Y-75623895D02*
X89250133Y-75623895D01*
X89250133Y-75623895D02*
X89392990Y-75671514D01*
X89392990Y-75671514D02*
X89964419Y-76242942D01*
X89964419Y-76242942D02*
X89964419Y-75623895D01*
X107529333Y-74718819D02*
X107196000Y-74242628D01*
X106957905Y-74718819D02*
X106957905Y-73718819D01*
X106957905Y-73718819D02*
X107338857Y-73718819D01*
X107338857Y-73718819D02*
X107434095Y-73766438D01*
X107434095Y-73766438D02*
X107481714Y-73814057D01*
X107481714Y-73814057D02*
X107529333Y-73909295D01*
X107529333Y-73909295D02*
X107529333Y-74052152D01*
X107529333Y-74052152D02*
X107481714Y-74147390D01*
X107481714Y-74147390D02*
X107434095Y-74195009D01*
X107434095Y-74195009D02*
X107338857Y-74242628D01*
X107338857Y-74242628D02*
X106957905Y-74242628D01*
X107862667Y-73718819D02*
X108529333Y-73718819D01*
X108529333Y-73718819D02*
X108100762Y-74718819D01*
X112964933Y-56639619D02*
X112631600Y-56163428D01*
X112393505Y-56639619D02*
X112393505Y-55639619D01*
X112393505Y-55639619D02*
X112774457Y-55639619D01*
X112774457Y-55639619D02*
X112869695Y-55687238D01*
X112869695Y-55687238D02*
X112917314Y-55734857D01*
X112917314Y-55734857D02*
X112964933Y-55830095D01*
X112964933Y-55830095D02*
X112964933Y-55972952D01*
X112964933Y-55972952D02*
X112917314Y-56068190D01*
X112917314Y-56068190D02*
X112869695Y-56115809D01*
X112869695Y-56115809D02*
X112774457Y-56163428D01*
X112774457Y-56163428D02*
X112393505Y-56163428D01*
X113345886Y-55734857D02*
X113393505Y-55687238D01*
X113393505Y-55687238D02*
X113488743Y-55639619D01*
X113488743Y-55639619D02*
X113726838Y-55639619D01*
X113726838Y-55639619D02*
X113822076Y-55687238D01*
X113822076Y-55687238D02*
X113869695Y-55734857D01*
X113869695Y-55734857D02*
X113917314Y-55830095D01*
X113917314Y-55830095D02*
X113917314Y-55925333D01*
X113917314Y-55925333D02*
X113869695Y-56068190D01*
X113869695Y-56068190D02*
X113298267Y-56639619D01*
X113298267Y-56639619D02*
X113917314Y-56639619D01*
X87056933Y-52881180D02*
X87009314Y-52928800D01*
X87009314Y-52928800D02*
X86866457Y-52976419D01*
X86866457Y-52976419D02*
X86771219Y-52976419D01*
X86771219Y-52976419D02*
X86628362Y-52928800D01*
X86628362Y-52928800D02*
X86533124Y-52833561D01*
X86533124Y-52833561D02*
X86485505Y-52738323D01*
X86485505Y-52738323D02*
X86437886Y-52547847D01*
X86437886Y-52547847D02*
X86437886Y-52404990D01*
X86437886Y-52404990D02*
X86485505Y-52214514D01*
X86485505Y-52214514D02*
X86533124Y-52119276D01*
X86533124Y-52119276D02*
X86628362Y-52024038D01*
X86628362Y-52024038D02*
X86771219Y-51976419D01*
X86771219Y-51976419D02*
X86866457Y-51976419D01*
X86866457Y-51976419D02*
X87009314Y-52024038D01*
X87009314Y-52024038D02*
X87056933Y-52071657D01*
X88009314Y-52976419D02*
X87437886Y-52976419D01*
X87723600Y-52976419D02*
X87723600Y-51976419D01*
X87723600Y-51976419D02*
X87628362Y-52119276D01*
X87628362Y-52119276D02*
X87533124Y-52214514D01*
X87533124Y-52214514D02*
X87437886Y-52262133D01*
X85990133Y-70756419D02*
X85656800Y-70280228D01*
X85418705Y-70756419D02*
X85418705Y-69756419D01*
X85418705Y-69756419D02*
X85799657Y-69756419D01*
X85799657Y-69756419D02*
X85894895Y-69804038D01*
X85894895Y-69804038D02*
X85942514Y-69851657D01*
X85942514Y-69851657D02*
X85990133Y-69946895D01*
X85990133Y-69946895D02*
X85990133Y-70089752D01*
X85990133Y-70089752D02*
X85942514Y-70184990D01*
X85942514Y-70184990D02*
X85894895Y-70232609D01*
X85894895Y-70232609D02*
X85799657Y-70280228D01*
X85799657Y-70280228D02*
X85418705Y-70280228D01*
X86847276Y-69756419D02*
X86656800Y-69756419D01*
X86656800Y-69756419D02*
X86561562Y-69804038D01*
X86561562Y-69804038D02*
X86513943Y-69851657D01*
X86513943Y-69851657D02*
X86418705Y-69994514D01*
X86418705Y-69994514D02*
X86371086Y-70184990D01*
X86371086Y-70184990D02*
X86371086Y-70565942D01*
X86371086Y-70565942D02*
X86418705Y-70661180D01*
X86418705Y-70661180D02*
X86466324Y-70708800D01*
X86466324Y-70708800D02*
X86561562Y-70756419D01*
X86561562Y-70756419D02*
X86752038Y-70756419D01*
X86752038Y-70756419D02*
X86847276Y-70708800D01*
X86847276Y-70708800D02*
X86894895Y-70661180D01*
X86894895Y-70661180D02*
X86942514Y-70565942D01*
X86942514Y-70565942D02*
X86942514Y-70327847D01*
X86942514Y-70327847D02*
X86894895Y-70232609D01*
X86894895Y-70232609D02*
X86847276Y-70184990D01*
X86847276Y-70184990D02*
X86752038Y-70137371D01*
X86752038Y-70137371D02*
X86561562Y-70137371D01*
X86561562Y-70137371D02*
X86466324Y-70184990D01*
X86466324Y-70184990D02*
X86418705Y-70232609D01*
X86418705Y-70232609D02*
X86371086Y-70327847D01*
X112914133Y-62532419D02*
X112580800Y-62056228D01*
X112342705Y-62532419D02*
X112342705Y-61532419D01*
X112342705Y-61532419D02*
X112723657Y-61532419D01*
X112723657Y-61532419D02*
X112818895Y-61580038D01*
X112818895Y-61580038D02*
X112866514Y-61627657D01*
X112866514Y-61627657D02*
X112914133Y-61722895D01*
X112914133Y-61722895D02*
X112914133Y-61865752D01*
X112914133Y-61865752D02*
X112866514Y-61960990D01*
X112866514Y-61960990D02*
X112818895Y-62008609D01*
X112818895Y-62008609D02*
X112723657Y-62056228D01*
X112723657Y-62056228D02*
X112342705Y-62056228D01*
X113247467Y-61532419D02*
X113866514Y-61532419D01*
X113866514Y-61532419D02*
X113533181Y-61913371D01*
X113533181Y-61913371D02*
X113676038Y-61913371D01*
X113676038Y-61913371D02*
X113771276Y-61960990D01*
X113771276Y-61960990D02*
X113818895Y-62008609D01*
X113818895Y-62008609D02*
X113866514Y-62103847D01*
X113866514Y-62103847D02*
X113866514Y-62341942D01*
X113866514Y-62341942D02*
X113818895Y-62437180D01*
X113818895Y-62437180D02*
X113771276Y-62484800D01*
X113771276Y-62484800D02*
X113676038Y-62532419D01*
X113676038Y-62532419D02*
X113390324Y-62532419D01*
X113390324Y-62532419D02*
X113295086Y-62484800D01*
X113295086Y-62484800D02*
X113247467Y-62437180D01*
X108356495Y-48832419D02*
X108356495Y-49641942D01*
X108356495Y-49641942D02*
X108404114Y-49737180D01*
X108404114Y-49737180D02*
X108451733Y-49784800D01*
X108451733Y-49784800D02*
X108546971Y-49832419D01*
X108546971Y-49832419D02*
X108737447Y-49832419D01*
X108737447Y-49832419D02*
X108832685Y-49784800D01*
X108832685Y-49784800D02*
X108880304Y-49737180D01*
X108880304Y-49737180D02*
X108927923Y-49641942D01*
X108927923Y-49641942D02*
X108927923Y-48832419D01*
X109832685Y-49165752D02*
X109832685Y-49832419D01*
X109594590Y-48784800D02*
X109356495Y-49499085D01*
X109356495Y-49499085D02*
X109975542Y-49499085D01*
X121425619Y-76984933D02*
X122139904Y-76984933D01*
X122139904Y-76984933D02*
X122282761Y-77032552D01*
X122282761Y-77032552D02*
X122378000Y-77127790D01*
X122378000Y-77127790D02*
X122425619Y-77270647D01*
X122425619Y-77270647D02*
X122425619Y-77365885D01*
X121758952Y-76080171D02*
X122425619Y-76080171D01*
X121378000Y-76318266D02*
X122092285Y-76556361D01*
X122092285Y-76556361D02*
X122092285Y-75937314D01*
X85990133Y-67810019D02*
X85656800Y-67333828D01*
X85418705Y-67810019D02*
X85418705Y-66810019D01*
X85418705Y-66810019D02*
X85799657Y-66810019D01*
X85799657Y-66810019D02*
X85894895Y-66857638D01*
X85894895Y-66857638D02*
X85942514Y-66905257D01*
X85942514Y-66905257D02*
X85990133Y-67000495D01*
X85990133Y-67000495D02*
X85990133Y-67143352D01*
X85990133Y-67143352D02*
X85942514Y-67238590D01*
X85942514Y-67238590D02*
X85894895Y-67286209D01*
X85894895Y-67286209D02*
X85799657Y-67333828D01*
X85799657Y-67333828D02*
X85418705Y-67333828D01*
X86894895Y-66810019D02*
X86418705Y-66810019D01*
X86418705Y-66810019D02*
X86371086Y-67286209D01*
X86371086Y-67286209D02*
X86418705Y-67238590D01*
X86418705Y-67238590D02*
X86513943Y-67190971D01*
X86513943Y-67190971D02*
X86752038Y-67190971D01*
X86752038Y-67190971D02*
X86847276Y-67238590D01*
X86847276Y-67238590D02*
X86894895Y-67286209D01*
X86894895Y-67286209D02*
X86942514Y-67381447D01*
X86942514Y-67381447D02*
X86942514Y-67619542D01*
X86942514Y-67619542D02*
X86894895Y-67714780D01*
X86894895Y-67714780D02*
X86847276Y-67762400D01*
X86847276Y-67762400D02*
X86752038Y-67810019D01*
X86752038Y-67810019D02*
X86513943Y-67810019D01*
X86513943Y-67810019D02*
X86418705Y-67762400D01*
X86418705Y-67762400D02*
X86371086Y-67714780D01*
X111963295Y-73318019D02*
X111963295Y-74127542D01*
X111963295Y-74127542D02*
X112010914Y-74222780D01*
X112010914Y-74222780D02*
X112058533Y-74270400D01*
X112058533Y-74270400D02*
X112153771Y-74318019D01*
X112153771Y-74318019D02*
X112344247Y-74318019D01*
X112344247Y-74318019D02*
X112439485Y-74270400D01*
X112439485Y-74270400D02*
X112487104Y-74222780D01*
X112487104Y-74222780D02*
X112534723Y-74127542D01*
X112534723Y-74127542D02*
X112534723Y-73318019D01*
X113153771Y-73746590D02*
X113058533Y-73698971D01*
X113058533Y-73698971D02*
X113010914Y-73651352D01*
X113010914Y-73651352D02*
X112963295Y-73556114D01*
X112963295Y-73556114D02*
X112963295Y-73508495D01*
X112963295Y-73508495D02*
X113010914Y-73413257D01*
X113010914Y-73413257D02*
X113058533Y-73365638D01*
X113058533Y-73365638D02*
X113153771Y-73318019D01*
X113153771Y-73318019D02*
X113344247Y-73318019D01*
X113344247Y-73318019D02*
X113439485Y-73365638D01*
X113439485Y-73365638D02*
X113487104Y-73413257D01*
X113487104Y-73413257D02*
X113534723Y-73508495D01*
X113534723Y-73508495D02*
X113534723Y-73556114D01*
X113534723Y-73556114D02*
X113487104Y-73651352D01*
X113487104Y-73651352D02*
X113439485Y-73698971D01*
X113439485Y-73698971D02*
X113344247Y-73746590D01*
X113344247Y-73746590D02*
X113153771Y-73746590D01*
X113153771Y-73746590D02*
X113058533Y-73794209D01*
X113058533Y-73794209D02*
X113010914Y-73841828D01*
X113010914Y-73841828D02*
X112963295Y-73937066D01*
X112963295Y-73937066D02*
X112963295Y-74127542D01*
X112963295Y-74127542D02*
X113010914Y-74222780D01*
X113010914Y-74222780D02*
X113058533Y-74270400D01*
X113058533Y-74270400D02*
X113153771Y-74318019D01*
X113153771Y-74318019D02*
X113344247Y-74318019D01*
X113344247Y-74318019D02*
X113439485Y-74270400D01*
X113439485Y-74270400D02*
X113487104Y-74222780D01*
X113487104Y-74222780D02*
X113534723Y-74127542D01*
X113534723Y-74127542D02*
X113534723Y-73937066D01*
X113534723Y-73937066D02*
X113487104Y-73841828D01*
X113487104Y-73841828D02*
X113439485Y-73794209D01*
X113439485Y-73794209D02*
X113344247Y-73746590D01*
X113168133Y-69289580D02*
X113120514Y-69337200D01*
X113120514Y-69337200D02*
X112977657Y-69384819D01*
X112977657Y-69384819D02*
X112882419Y-69384819D01*
X112882419Y-69384819D02*
X112739562Y-69337200D01*
X112739562Y-69337200D02*
X112644324Y-69241961D01*
X112644324Y-69241961D02*
X112596705Y-69146723D01*
X112596705Y-69146723D02*
X112549086Y-68956247D01*
X112549086Y-68956247D02*
X112549086Y-68813390D01*
X112549086Y-68813390D02*
X112596705Y-68622914D01*
X112596705Y-68622914D02*
X112644324Y-68527676D01*
X112644324Y-68527676D02*
X112739562Y-68432438D01*
X112739562Y-68432438D02*
X112882419Y-68384819D01*
X112882419Y-68384819D02*
X112977657Y-68384819D01*
X112977657Y-68384819D02*
X113120514Y-68432438D01*
X113120514Y-68432438D02*
X113168133Y-68480057D01*
X114025276Y-68384819D02*
X113834800Y-68384819D01*
X113834800Y-68384819D02*
X113739562Y-68432438D01*
X113739562Y-68432438D02*
X113691943Y-68480057D01*
X113691943Y-68480057D02*
X113596705Y-68622914D01*
X113596705Y-68622914D02*
X113549086Y-68813390D01*
X113549086Y-68813390D02*
X113549086Y-69194342D01*
X113549086Y-69194342D02*
X113596705Y-69289580D01*
X113596705Y-69289580D02*
X113644324Y-69337200D01*
X113644324Y-69337200D02*
X113739562Y-69384819D01*
X113739562Y-69384819D02*
X113930038Y-69384819D01*
X113930038Y-69384819D02*
X114025276Y-69337200D01*
X114025276Y-69337200D02*
X114072895Y-69289580D01*
X114072895Y-69289580D02*
X114120514Y-69194342D01*
X114120514Y-69194342D02*
X114120514Y-68956247D01*
X114120514Y-68956247D02*
X114072895Y-68861009D01*
X114072895Y-68861009D02*
X114025276Y-68813390D01*
X114025276Y-68813390D02*
X113930038Y-68765771D01*
X113930038Y-68765771D02*
X113739562Y-68765771D01*
X113739562Y-68765771D02*
X113644324Y-68813390D01*
X113644324Y-68813390D02*
X113596705Y-68861009D01*
X113596705Y-68861009D02*
X113549086Y-68956247D01*
X97790095Y-73414019D02*
X97790095Y-74223542D01*
X97790095Y-74223542D02*
X97837714Y-74318780D01*
X97837714Y-74318780D02*
X97885333Y-74366400D01*
X97885333Y-74366400D02*
X97980571Y-74414019D01*
X97980571Y-74414019D02*
X98171047Y-74414019D01*
X98171047Y-74414019D02*
X98266285Y-74366400D01*
X98266285Y-74366400D02*
X98313904Y-74318780D01*
X98313904Y-74318780D02*
X98361523Y-74223542D01*
X98361523Y-74223542D02*
X98361523Y-73414019D01*
X99313904Y-73414019D02*
X98837714Y-73414019D01*
X98837714Y-73414019D02*
X98790095Y-73890209D01*
X98790095Y-73890209D02*
X98837714Y-73842590D01*
X98837714Y-73842590D02*
X98932952Y-73794971D01*
X98932952Y-73794971D02*
X99171047Y-73794971D01*
X99171047Y-73794971D02*
X99266285Y-73842590D01*
X99266285Y-73842590D02*
X99313904Y-73890209D01*
X99313904Y-73890209D02*
X99361523Y-73985447D01*
X99361523Y-73985447D02*
X99361523Y-74223542D01*
X99361523Y-74223542D02*
X99313904Y-74318780D01*
X99313904Y-74318780D02*
X99266285Y-74366400D01*
X99266285Y-74366400D02*
X99171047Y-74414019D01*
X99171047Y-74414019D02*
X98932952Y-74414019D01*
X98932952Y-74414019D02*
X98837714Y-74366400D01*
X98837714Y-74366400D02*
X98790095Y-74318780D01*
X114882705Y-80052819D02*
X114882705Y-79052819D01*
X114882705Y-79052819D02*
X115120800Y-79052819D01*
X115120800Y-79052819D02*
X115263657Y-79100438D01*
X115263657Y-79100438D02*
X115358895Y-79195676D01*
X115358895Y-79195676D02*
X115406514Y-79290914D01*
X115406514Y-79290914D02*
X115454133Y-79481390D01*
X115454133Y-79481390D02*
X115454133Y-79624247D01*
X115454133Y-79624247D02*
X115406514Y-79814723D01*
X115406514Y-79814723D02*
X115358895Y-79909961D01*
X115358895Y-79909961D02*
X115263657Y-80005200D01*
X115263657Y-80005200D02*
X115120800Y-80052819D01*
X115120800Y-80052819D02*
X114882705Y-80052819D01*
X115835086Y-79148057D02*
X115882705Y-79100438D01*
X115882705Y-79100438D02*
X115977943Y-79052819D01*
X115977943Y-79052819D02*
X116216038Y-79052819D01*
X116216038Y-79052819D02*
X116311276Y-79100438D01*
X116311276Y-79100438D02*
X116358895Y-79148057D01*
X116358895Y-79148057D02*
X116406514Y-79243295D01*
X116406514Y-79243295D02*
X116406514Y-79338533D01*
X116406514Y-79338533D02*
X116358895Y-79481390D01*
X116358895Y-79481390D02*
X115787467Y-80052819D01*
X115787467Y-80052819D02*
X116406514Y-80052819D01*
X109053333Y-79036819D02*
X108720000Y-78560628D01*
X108481905Y-79036819D02*
X108481905Y-78036819D01*
X108481905Y-78036819D02*
X108862857Y-78036819D01*
X108862857Y-78036819D02*
X108958095Y-78084438D01*
X108958095Y-78084438D02*
X109005714Y-78132057D01*
X109005714Y-78132057D02*
X109053333Y-78227295D01*
X109053333Y-78227295D02*
X109053333Y-78370152D01*
X109053333Y-78370152D02*
X109005714Y-78465390D01*
X109005714Y-78465390D02*
X108958095Y-78513009D01*
X108958095Y-78513009D02*
X108862857Y-78560628D01*
X108862857Y-78560628D02*
X108481905Y-78560628D01*
X109624762Y-78465390D02*
X109529524Y-78417771D01*
X109529524Y-78417771D02*
X109481905Y-78370152D01*
X109481905Y-78370152D02*
X109434286Y-78274914D01*
X109434286Y-78274914D02*
X109434286Y-78227295D01*
X109434286Y-78227295D02*
X109481905Y-78132057D01*
X109481905Y-78132057D02*
X109529524Y-78084438D01*
X109529524Y-78084438D02*
X109624762Y-78036819D01*
X109624762Y-78036819D02*
X109815238Y-78036819D01*
X109815238Y-78036819D02*
X109910476Y-78084438D01*
X109910476Y-78084438D02*
X109958095Y-78132057D01*
X109958095Y-78132057D02*
X110005714Y-78227295D01*
X110005714Y-78227295D02*
X110005714Y-78274914D01*
X110005714Y-78274914D02*
X109958095Y-78370152D01*
X109958095Y-78370152D02*
X109910476Y-78417771D01*
X109910476Y-78417771D02*
X109815238Y-78465390D01*
X109815238Y-78465390D02*
X109624762Y-78465390D01*
X109624762Y-78465390D02*
X109529524Y-78513009D01*
X109529524Y-78513009D02*
X109481905Y-78560628D01*
X109481905Y-78560628D02*
X109434286Y-78655866D01*
X109434286Y-78655866D02*
X109434286Y-78846342D01*
X109434286Y-78846342D02*
X109481905Y-78941580D01*
X109481905Y-78941580D02*
X109529524Y-78989200D01*
X109529524Y-78989200D02*
X109624762Y-79036819D01*
X109624762Y-79036819D02*
X109815238Y-79036819D01*
X109815238Y-79036819D02*
X109910476Y-78989200D01*
X109910476Y-78989200D02*
X109958095Y-78941580D01*
X109958095Y-78941580D02*
X110005714Y-78846342D01*
X110005714Y-78846342D02*
X110005714Y-78655866D01*
X110005714Y-78655866D02*
X109958095Y-78560628D01*
X109958095Y-78560628D02*
X109910476Y-78513009D01*
X109910476Y-78513009D02*
X109815238Y-78465390D01*
X84378895Y-51982019D02*
X84378895Y-52791542D01*
X84378895Y-52791542D02*
X84426514Y-52886780D01*
X84426514Y-52886780D02*
X84474133Y-52934400D01*
X84474133Y-52934400D02*
X84569371Y-52982019D01*
X84569371Y-52982019D02*
X84759847Y-52982019D01*
X84759847Y-52982019D02*
X84855085Y-52934400D01*
X84855085Y-52934400D02*
X84902704Y-52886780D01*
X84902704Y-52886780D02*
X84950323Y-52791542D01*
X84950323Y-52791542D02*
X84950323Y-51982019D01*
X85950323Y-52982019D02*
X85378895Y-52982019D01*
X85664609Y-52982019D02*
X85664609Y-51982019D01*
X85664609Y-51982019D02*
X85569371Y-52124876D01*
X85569371Y-52124876D02*
X85474133Y-52220114D01*
X85474133Y-52220114D02*
X85378895Y-52267733D01*
X121273219Y-51127733D02*
X121987504Y-51127733D01*
X121987504Y-51127733D02*
X122130361Y-51175352D01*
X122130361Y-51175352D02*
X122225600Y-51270590D01*
X122225600Y-51270590D02*
X122273219Y-51413447D01*
X122273219Y-51413447D02*
X122273219Y-51508685D01*
X121368457Y-50699161D02*
X121320838Y-50651542D01*
X121320838Y-50651542D02*
X121273219Y-50556304D01*
X121273219Y-50556304D02*
X121273219Y-50318209D01*
X121273219Y-50318209D02*
X121320838Y-50222971D01*
X121320838Y-50222971D02*
X121368457Y-50175352D01*
X121368457Y-50175352D02*
X121463695Y-50127733D01*
X121463695Y-50127733D02*
X121558933Y-50127733D01*
X121558933Y-50127733D02*
X121701790Y-50175352D01*
X121701790Y-50175352D02*
X122273219Y-50746780D01*
X122273219Y-50746780D02*
X122273219Y-50127733D01*
X108305695Y-42671519D02*
X108305695Y-43481042D01*
X108305695Y-43481042D02*
X108353314Y-43576280D01*
X108353314Y-43576280D02*
X108400933Y-43623900D01*
X108400933Y-43623900D02*
X108496171Y-43671519D01*
X108496171Y-43671519D02*
X108686647Y-43671519D01*
X108686647Y-43671519D02*
X108781885Y-43623900D01*
X108781885Y-43623900D02*
X108829504Y-43576280D01*
X108829504Y-43576280D02*
X108877123Y-43481042D01*
X108877123Y-43481042D02*
X108877123Y-42671519D01*
X109258076Y-42671519D02*
X109877123Y-42671519D01*
X109877123Y-42671519D02*
X109543790Y-43052471D01*
X109543790Y-43052471D02*
X109686647Y-43052471D01*
X109686647Y-43052471D02*
X109781885Y-43100090D01*
X109781885Y-43100090D02*
X109829504Y-43147709D01*
X109829504Y-43147709D02*
X109877123Y-43242947D01*
X109877123Y-43242947D02*
X109877123Y-43481042D01*
X109877123Y-43481042D02*
X109829504Y-43576280D01*
X109829504Y-43576280D02*
X109781885Y-43623900D01*
X109781885Y-43623900D02*
X109686647Y-43671519D01*
X109686647Y-43671519D02*
X109400933Y-43671519D01*
X109400933Y-43671519D02*
X109305695Y-43623900D01*
X109305695Y-43623900D02*
X109258076Y-43576280D01*
X111404400Y-41156019D02*
X111404400Y-41394114D01*
X111166305Y-41298876D02*
X111404400Y-41394114D01*
X111404400Y-41394114D02*
X111642495Y-41298876D01*
X111261543Y-41584590D02*
X111404400Y-41394114D01*
X111404400Y-41394114D02*
X111547257Y-41584590D01*
X111186933Y-46378780D02*
X111139314Y-46426400D01*
X111139314Y-46426400D02*
X110996457Y-46474019D01*
X110996457Y-46474019D02*
X110901219Y-46474019D01*
X110901219Y-46474019D02*
X110758362Y-46426400D01*
X110758362Y-46426400D02*
X110663124Y-46331161D01*
X110663124Y-46331161D02*
X110615505Y-46235923D01*
X110615505Y-46235923D02*
X110567886Y-46045447D01*
X110567886Y-46045447D02*
X110567886Y-45902590D01*
X110567886Y-45902590D02*
X110615505Y-45712114D01*
X110615505Y-45712114D02*
X110663124Y-45616876D01*
X110663124Y-45616876D02*
X110758362Y-45521638D01*
X110758362Y-45521638D02*
X110901219Y-45474019D01*
X110901219Y-45474019D02*
X110996457Y-45474019D01*
X110996457Y-45474019D02*
X111139314Y-45521638D01*
X111139314Y-45521638D02*
X111186933Y-45569257D01*
X111520267Y-45474019D02*
X112186933Y-45474019D01*
X112186933Y-45474019D02*
X111758362Y-46474019D01*
X101947742Y-92073380D02*
X101900123Y-92121000D01*
X101900123Y-92121000D02*
X101757266Y-92168619D01*
X101757266Y-92168619D02*
X101662028Y-92168619D01*
X101662028Y-92168619D02*
X101519171Y-92121000D01*
X101519171Y-92121000D02*
X101423933Y-92025761D01*
X101423933Y-92025761D02*
X101376314Y-91930523D01*
X101376314Y-91930523D02*
X101328695Y-91740047D01*
X101328695Y-91740047D02*
X101328695Y-91597190D01*
X101328695Y-91597190D02*
X101376314Y-91406714D01*
X101376314Y-91406714D02*
X101423933Y-91311476D01*
X101423933Y-91311476D02*
X101519171Y-91216238D01*
X101519171Y-91216238D02*
X101662028Y-91168619D01*
X101662028Y-91168619D02*
X101757266Y-91168619D01*
X101757266Y-91168619D02*
X101900123Y-91216238D01*
X101900123Y-91216238D02*
X101947742Y-91263857D01*
X102900123Y-92168619D02*
X102328695Y-92168619D01*
X102614409Y-92168619D02*
X102614409Y-91168619D01*
X102614409Y-91168619D02*
X102519171Y-91311476D01*
X102519171Y-91311476D02*
X102423933Y-91406714D01*
X102423933Y-91406714D02*
X102328695Y-91454333D01*
X103852504Y-92168619D02*
X103281076Y-92168619D01*
X103566790Y-92168619D02*
X103566790Y-91168619D01*
X103566790Y-91168619D02*
X103471552Y-91311476D01*
X103471552Y-91311476D02*
X103376314Y-91406714D01*
X103376314Y-91406714D02*
X103281076Y-91454333D01*
X87107733Y-40384380D02*
X87060114Y-40432000D01*
X87060114Y-40432000D02*
X86917257Y-40479619D01*
X86917257Y-40479619D02*
X86822019Y-40479619D01*
X86822019Y-40479619D02*
X86679162Y-40432000D01*
X86679162Y-40432000D02*
X86583924Y-40336761D01*
X86583924Y-40336761D02*
X86536305Y-40241523D01*
X86536305Y-40241523D02*
X86488686Y-40051047D01*
X86488686Y-40051047D02*
X86488686Y-39908190D01*
X86488686Y-39908190D02*
X86536305Y-39717714D01*
X86536305Y-39717714D02*
X86583924Y-39622476D01*
X86583924Y-39622476D02*
X86679162Y-39527238D01*
X86679162Y-39527238D02*
X86822019Y-39479619D01*
X86822019Y-39479619D02*
X86917257Y-39479619D01*
X86917257Y-39479619D02*
X87060114Y-39527238D01*
X87060114Y-39527238D02*
X87107733Y-39574857D01*
X87964876Y-39812952D02*
X87964876Y-40479619D01*
X87726781Y-39432000D02*
X87488686Y-40146285D01*
X87488686Y-40146285D02*
X88107733Y-40146285D01*
X96875695Y-34806019D02*
X96875695Y-35615542D01*
X96875695Y-35615542D02*
X96923314Y-35710780D01*
X96923314Y-35710780D02*
X96970933Y-35758400D01*
X96970933Y-35758400D02*
X97066171Y-35806019D01*
X97066171Y-35806019D02*
X97256647Y-35806019D01*
X97256647Y-35806019D02*
X97351885Y-35758400D01*
X97351885Y-35758400D02*
X97399504Y-35710780D01*
X97399504Y-35710780D02*
X97447123Y-35615542D01*
X97447123Y-35615542D02*
X97447123Y-34806019D01*
X98351885Y-34806019D02*
X98161409Y-34806019D01*
X98161409Y-34806019D02*
X98066171Y-34853638D01*
X98066171Y-34853638D02*
X98018552Y-34901257D01*
X98018552Y-34901257D02*
X97923314Y-35044114D01*
X97923314Y-35044114D02*
X97875695Y-35234590D01*
X97875695Y-35234590D02*
X97875695Y-35615542D01*
X97875695Y-35615542D02*
X97923314Y-35710780D01*
X97923314Y-35710780D02*
X97970933Y-35758400D01*
X97970933Y-35758400D02*
X98066171Y-35806019D01*
X98066171Y-35806019D02*
X98256647Y-35806019D01*
X98256647Y-35806019D02*
X98351885Y-35758400D01*
X98351885Y-35758400D02*
X98399504Y-35710780D01*
X98399504Y-35710780D02*
X98447123Y-35615542D01*
X98447123Y-35615542D02*
X98447123Y-35377447D01*
X98447123Y-35377447D02*
X98399504Y-35282209D01*
X98399504Y-35282209D02*
X98351885Y-35234590D01*
X98351885Y-35234590D02*
X98256647Y-35186971D01*
X98256647Y-35186971D02*
X98066171Y-35186971D01*
X98066171Y-35186971D02*
X97970933Y-35234590D01*
X97970933Y-35234590D02*
X97923314Y-35282209D01*
X97923314Y-35282209D02*
X97875695Y-35377447D01*
X87802781Y-37829552D02*
X87741828Y-37799076D01*
X87741828Y-37799076D02*
X87650400Y-37799076D01*
X87650400Y-37799076D02*
X87558971Y-37829552D01*
X87558971Y-37829552D02*
X87498019Y-37890504D01*
X87498019Y-37890504D02*
X87467542Y-37951457D01*
X87467542Y-37951457D02*
X87437066Y-38073361D01*
X87437066Y-38073361D02*
X87437066Y-38164790D01*
X87437066Y-38164790D02*
X87467542Y-38286695D01*
X87467542Y-38286695D02*
X87498019Y-38347647D01*
X87498019Y-38347647D02*
X87558971Y-38408600D01*
X87558971Y-38408600D02*
X87650400Y-38439076D01*
X87650400Y-38439076D02*
X87711352Y-38439076D01*
X87711352Y-38439076D02*
X87802781Y-38408600D01*
X87802781Y-38408600D02*
X87833257Y-38378123D01*
X87833257Y-38378123D02*
X87833257Y-38164790D01*
X87833257Y-38164790D02*
X87711352Y-38164790D01*
X88107542Y-38439076D02*
X88107542Y-37799076D01*
X88107542Y-37799076D02*
X88473257Y-38439076D01*
X88473257Y-38439076D02*
X88473257Y-37799076D01*
X88778018Y-38439076D02*
X88778018Y-37799076D01*
X88778018Y-37799076D02*
X88930399Y-37799076D01*
X88930399Y-37799076D02*
X89021828Y-37829552D01*
X89021828Y-37829552D02*
X89082780Y-37890504D01*
X89082780Y-37890504D02*
X89113257Y-37951457D01*
X89113257Y-37951457D02*
X89143733Y-38073361D01*
X89143733Y-38073361D02*
X89143733Y-38164790D01*
X89143733Y-38164790D02*
X89113257Y-38286695D01*
X89113257Y-38286695D02*
X89082780Y-38347647D01*
X89082780Y-38347647D02*
X89021828Y-38408600D01*
X89021828Y-38408600D02*
X88930399Y-38439076D01*
X88930399Y-38439076D02*
X88778018Y-38439076D01*
X107746895Y-69965219D02*
X107746895Y-70774742D01*
X107746895Y-70774742D02*
X107794514Y-70869980D01*
X107794514Y-70869980D02*
X107842133Y-70917600D01*
X107842133Y-70917600D02*
X107937371Y-70965219D01*
X107937371Y-70965219D02*
X108127847Y-70965219D01*
X108127847Y-70965219D02*
X108223085Y-70917600D01*
X108223085Y-70917600D02*
X108270704Y-70869980D01*
X108270704Y-70869980D02*
X108318323Y-70774742D01*
X108318323Y-70774742D02*
X108318323Y-69965219D01*
X108746895Y-70060457D02*
X108794514Y-70012838D01*
X108794514Y-70012838D02*
X108889752Y-69965219D01*
X108889752Y-69965219D02*
X109127847Y-69965219D01*
X109127847Y-69965219D02*
X109223085Y-70012838D01*
X109223085Y-70012838D02*
X109270704Y-70060457D01*
X109270704Y-70060457D02*
X109318323Y-70155695D01*
X109318323Y-70155695D02*
X109318323Y-70250933D01*
X109318323Y-70250933D02*
X109270704Y-70393790D01*
X109270704Y-70393790D02*
X108699276Y-70965219D01*
X108699276Y-70965219D02*
X109318323Y-70965219D01*
X111640780Y-69349100D02*
X111402685Y-69349100D01*
X111497923Y-69111005D02*
X111402685Y-69349100D01*
X111402685Y-69349100D02*
X111497923Y-69587195D01*
X111212209Y-69206243D02*
X111402685Y-69349100D01*
X111402685Y-69349100D02*
X111212209Y-69491957D01*
X110550419Y-69395200D02*
X110788514Y-69395200D01*
X110693276Y-69633295D02*
X110788514Y-69395200D01*
X110788514Y-69395200D02*
X110693276Y-69157105D01*
X110978990Y-69538057D02*
X110788514Y-69395200D01*
X110788514Y-69395200D02*
X110978990Y-69252343D01*
X112914133Y-59586019D02*
X112580800Y-59109828D01*
X112342705Y-59586019D02*
X112342705Y-58586019D01*
X112342705Y-58586019D02*
X112723657Y-58586019D01*
X112723657Y-58586019D02*
X112818895Y-58633638D01*
X112818895Y-58633638D02*
X112866514Y-58681257D01*
X112866514Y-58681257D02*
X112914133Y-58776495D01*
X112914133Y-58776495D02*
X112914133Y-58919352D01*
X112914133Y-58919352D02*
X112866514Y-59014590D01*
X112866514Y-59014590D02*
X112818895Y-59062209D01*
X112818895Y-59062209D02*
X112723657Y-59109828D01*
X112723657Y-59109828D02*
X112342705Y-59109828D01*
X113866514Y-59586019D02*
X113295086Y-59586019D01*
X113580800Y-59586019D02*
X113580800Y-58586019D01*
X113580800Y-58586019D02*
X113485562Y-58728876D01*
X113485562Y-58728876D02*
X113390324Y-58824114D01*
X113390324Y-58824114D02*
X113295086Y-58871733D01*
X110170933Y-40689180D02*
X110123314Y-40736800D01*
X110123314Y-40736800D02*
X109980457Y-40784419D01*
X109980457Y-40784419D02*
X109885219Y-40784419D01*
X109885219Y-40784419D02*
X109742362Y-40736800D01*
X109742362Y-40736800D02*
X109647124Y-40641561D01*
X109647124Y-40641561D02*
X109599505Y-40546323D01*
X109599505Y-40546323D02*
X109551886Y-40355847D01*
X109551886Y-40355847D02*
X109551886Y-40212990D01*
X109551886Y-40212990D02*
X109599505Y-40022514D01*
X109599505Y-40022514D02*
X109647124Y-39927276D01*
X109647124Y-39927276D02*
X109742362Y-39832038D01*
X109742362Y-39832038D02*
X109885219Y-39784419D01*
X109885219Y-39784419D02*
X109980457Y-39784419D01*
X109980457Y-39784419D02*
X110123314Y-39832038D01*
X110123314Y-39832038D02*
X110170933Y-39879657D01*
X110742362Y-40212990D02*
X110647124Y-40165371D01*
X110647124Y-40165371D02*
X110599505Y-40117752D01*
X110599505Y-40117752D02*
X110551886Y-40022514D01*
X110551886Y-40022514D02*
X110551886Y-39974895D01*
X110551886Y-39974895D02*
X110599505Y-39879657D01*
X110599505Y-39879657D02*
X110647124Y-39832038D01*
X110647124Y-39832038D02*
X110742362Y-39784419D01*
X110742362Y-39784419D02*
X110932838Y-39784419D01*
X110932838Y-39784419D02*
X111028076Y-39832038D01*
X111028076Y-39832038D02*
X111075695Y-39879657D01*
X111075695Y-39879657D02*
X111123314Y-39974895D01*
X111123314Y-39974895D02*
X111123314Y-40022514D01*
X111123314Y-40022514D02*
X111075695Y-40117752D01*
X111075695Y-40117752D02*
X111028076Y-40165371D01*
X111028076Y-40165371D02*
X110932838Y-40212990D01*
X110932838Y-40212990D02*
X110742362Y-40212990D01*
X110742362Y-40212990D02*
X110647124Y-40260609D01*
X110647124Y-40260609D02*
X110599505Y-40308228D01*
X110599505Y-40308228D02*
X110551886Y-40403466D01*
X110551886Y-40403466D02*
X110551886Y-40593942D01*
X110551886Y-40593942D02*
X110599505Y-40689180D01*
X110599505Y-40689180D02*
X110647124Y-40736800D01*
X110647124Y-40736800D02*
X110742362Y-40784419D01*
X110742362Y-40784419D02*
X110932838Y-40784419D01*
X110932838Y-40784419D02*
X111028076Y-40736800D01*
X111028076Y-40736800D02*
X111075695Y-40689180D01*
X111075695Y-40689180D02*
X111123314Y-40593942D01*
X111123314Y-40593942D02*
X111123314Y-40403466D01*
X111123314Y-40403466D02*
X111075695Y-40308228D01*
X111075695Y-40308228D02*
X111028076Y-40260609D01*
X111028076Y-40260609D02*
X110932838Y-40212990D01*
X75146819Y-76984933D02*
X75861104Y-76984933D01*
X75861104Y-76984933D02*
X76003961Y-77032552D01*
X76003961Y-77032552D02*
X76099200Y-77127790D01*
X76099200Y-77127790D02*
X76146819Y-77270647D01*
X76146819Y-77270647D02*
X76146819Y-77365885D01*
X75146819Y-76080171D02*
X75146819Y-76270647D01*
X75146819Y-76270647D02*
X75194438Y-76365885D01*
X75194438Y-76365885D02*
X75242057Y-76413504D01*
X75242057Y-76413504D02*
X75384914Y-76508742D01*
X75384914Y-76508742D02*
X75575390Y-76556361D01*
X75575390Y-76556361D02*
X75956342Y-76556361D01*
X75956342Y-76556361D02*
X76051580Y-76508742D01*
X76051580Y-76508742D02*
X76099200Y-76461123D01*
X76099200Y-76461123D02*
X76146819Y-76365885D01*
X76146819Y-76365885D02*
X76146819Y-76175409D01*
X76146819Y-76175409D02*
X76099200Y-76080171D01*
X76099200Y-76080171D02*
X76051580Y-76032552D01*
X76051580Y-76032552D02*
X75956342Y-75984933D01*
X75956342Y-75984933D02*
X75718247Y-75984933D01*
X75718247Y-75984933D02*
X75623009Y-76032552D01*
X75623009Y-76032552D02*
X75575390Y-76080171D01*
X75575390Y-76080171D02*
X75527771Y-76175409D01*
X75527771Y-76175409D02*
X75527771Y-76365885D01*
X75527771Y-76365885D02*
X75575390Y-76461123D01*
X75575390Y-76461123D02*
X75623009Y-76508742D01*
X75623009Y-76508742D02*
X75718247Y-76556361D01*
X89208780Y-46643066D02*
X89256400Y-46690685D01*
X89256400Y-46690685D02*
X89304019Y-46833542D01*
X89304019Y-46833542D02*
X89304019Y-46928780D01*
X89304019Y-46928780D02*
X89256400Y-47071637D01*
X89256400Y-47071637D02*
X89161161Y-47166875D01*
X89161161Y-47166875D02*
X89065923Y-47214494D01*
X89065923Y-47214494D02*
X88875447Y-47262113D01*
X88875447Y-47262113D02*
X88732590Y-47262113D01*
X88732590Y-47262113D02*
X88542114Y-47214494D01*
X88542114Y-47214494D02*
X88446876Y-47166875D01*
X88446876Y-47166875D02*
X88351638Y-47071637D01*
X88351638Y-47071637D02*
X88304019Y-46928780D01*
X88304019Y-46928780D02*
X88304019Y-46833542D01*
X88304019Y-46833542D02*
X88351638Y-46690685D01*
X88351638Y-46690685D02*
X88399257Y-46643066D01*
X88304019Y-46309732D02*
X88304019Y-45690685D01*
X88304019Y-45690685D02*
X88684971Y-46024018D01*
X88684971Y-46024018D02*
X88684971Y-45881161D01*
X88684971Y-45881161D02*
X88732590Y-45785923D01*
X88732590Y-45785923D02*
X88780209Y-45738304D01*
X88780209Y-45738304D02*
X88875447Y-45690685D01*
X88875447Y-45690685D02*
X89113542Y-45690685D01*
X89113542Y-45690685D02*
X89208780Y-45738304D01*
X89208780Y-45738304D02*
X89256400Y-45785923D01*
X89256400Y-45785923D02*
X89304019Y-45881161D01*
X89304019Y-45881161D02*
X89304019Y-46166875D01*
X89304019Y-46166875D02*
X89256400Y-46262113D01*
X89256400Y-46262113D02*
X89208780Y-46309732D01*
X121273219Y-68196533D02*
X121987504Y-68196533D01*
X121987504Y-68196533D02*
X122130361Y-68244152D01*
X122130361Y-68244152D02*
X122225600Y-68339390D01*
X122225600Y-68339390D02*
X122273219Y-68482247D01*
X122273219Y-68482247D02*
X122273219Y-68577485D01*
X122273219Y-67196533D02*
X122273219Y-67767961D01*
X122273219Y-67482247D02*
X121273219Y-67482247D01*
X121273219Y-67482247D02*
X121416076Y-67577485D01*
X121416076Y-67577485D02*
X121511314Y-67672723D01*
X121511314Y-67672723D02*
X121558933Y-67767961D01*
X85547295Y-72708419D02*
X85547295Y-73517942D01*
X85547295Y-73517942D02*
X85594914Y-73613180D01*
X85594914Y-73613180D02*
X85642533Y-73660800D01*
X85642533Y-73660800D02*
X85737771Y-73708419D01*
X85737771Y-73708419D02*
X85928247Y-73708419D01*
X85928247Y-73708419D02*
X86023485Y-73660800D01*
X86023485Y-73660800D02*
X86071104Y-73613180D01*
X86071104Y-73613180D02*
X86118723Y-73517942D01*
X86118723Y-73517942D02*
X86118723Y-72708419D01*
X86499676Y-72708419D02*
X87166342Y-72708419D01*
X87166342Y-72708419D02*
X86737771Y-73708419D01*
X110437933Y-67384580D02*
X110390314Y-67432200D01*
X110390314Y-67432200D02*
X110247457Y-67479819D01*
X110247457Y-67479819D02*
X110152219Y-67479819D01*
X110152219Y-67479819D02*
X110009362Y-67432200D01*
X110009362Y-67432200D02*
X109914124Y-67336961D01*
X109914124Y-67336961D02*
X109866505Y-67241723D01*
X109866505Y-67241723D02*
X109818886Y-67051247D01*
X109818886Y-67051247D02*
X109818886Y-66908390D01*
X109818886Y-66908390D02*
X109866505Y-66717914D01*
X109866505Y-66717914D02*
X109914124Y-66622676D01*
X109914124Y-66622676D02*
X110009362Y-66527438D01*
X110009362Y-66527438D02*
X110152219Y-66479819D01*
X110152219Y-66479819D02*
X110247457Y-66479819D01*
X110247457Y-66479819D02*
X110390314Y-66527438D01*
X110390314Y-66527438D02*
X110437933Y-66575057D01*
X111342695Y-66479819D02*
X110866505Y-66479819D01*
X110866505Y-66479819D02*
X110818886Y-66956009D01*
X110818886Y-66956009D02*
X110866505Y-66908390D01*
X110866505Y-66908390D02*
X110961743Y-66860771D01*
X110961743Y-66860771D02*
X111199838Y-66860771D01*
X111199838Y-66860771D02*
X111295076Y-66908390D01*
X111295076Y-66908390D02*
X111342695Y-66956009D01*
X111342695Y-66956009D02*
X111390314Y-67051247D01*
X111390314Y-67051247D02*
X111390314Y-67289342D01*
X111390314Y-67289342D02*
X111342695Y-67384580D01*
X111342695Y-67384580D02*
X111295076Y-67432200D01*
X111295076Y-67432200D02*
X111199838Y-67479819D01*
X111199838Y-67479819D02*
X110961743Y-67479819D01*
X110961743Y-67479819D02*
X110866505Y-67432200D01*
X110866505Y-67432200D02*
X110818886Y-67384580D01*
X92397342Y-92124180D02*
X92349723Y-92171800D01*
X92349723Y-92171800D02*
X92206866Y-92219419D01*
X92206866Y-92219419D02*
X92111628Y-92219419D01*
X92111628Y-92219419D02*
X91968771Y-92171800D01*
X91968771Y-92171800D02*
X91873533Y-92076561D01*
X91873533Y-92076561D02*
X91825914Y-91981323D01*
X91825914Y-91981323D02*
X91778295Y-91790847D01*
X91778295Y-91790847D02*
X91778295Y-91647990D01*
X91778295Y-91647990D02*
X91825914Y-91457514D01*
X91825914Y-91457514D02*
X91873533Y-91362276D01*
X91873533Y-91362276D02*
X91968771Y-91267038D01*
X91968771Y-91267038D02*
X92111628Y-91219419D01*
X92111628Y-91219419D02*
X92206866Y-91219419D01*
X92206866Y-91219419D02*
X92349723Y-91267038D01*
X92349723Y-91267038D02*
X92397342Y-91314657D01*
X93349723Y-92219419D02*
X92778295Y-92219419D01*
X93064009Y-92219419D02*
X93064009Y-91219419D01*
X93064009Y-91219419D02*
X92968771Y-91362276D01*
X92968771Y-91362276D02*
X92873533Y-91457514D01*
X92873533Y-91457514D02*
X92778295Y-91505133D01*
X93968771Y-91219419D02*
X94064009Y-91219419D01*
X94064009Y-91219419D02*
X94159247Y-91267038D01*
X94159247Y-91267038D02*
X94206866Y-91314657D01*
X94206866Y-91314657D02*
X94254485Y-91409895D01*
X94254485Y-91409895D02*
X94302104Y-91600371D01*
X94302104Y-91600371D02*
X94302104Y-91838466D01*
X94302104Y-91838466D02*
X94254485Y-92028942D01*
X94254485Y-92028942D02*
X94206866Y-92124180D01*
X94206866Y-92124180D02*
X94159247Y-92171800D01*
X94159247Y-92171800D02*
X94064009Y-92219419D01*
X94064009Y-92219419D02*
X93968771Y-92219419D01*
X93968771Y-92219419D02*
X93873533Y-92171800D01*
X93873533Y-92171800D02*
X93825914Y-92124180D01*
X93825914Y-92124180D02*
X93778295Y-92028942D01*
X93778295Y-92028942D02*
X93730676Y-91838466D01*
X93730676Y-91838466D02*
X93730676Y-91600371D01*
X93730676Y-91600371D02*
X93778295Y-91409895D01*
X93778295Y-91409895D02*
X93825914Y-91314657D01*
X93825914Y-91314657D02*
X93873533Y-91267038D01*
X93873533Y-91267038D02*
X93968771Y-91219419D01*
X81913505Y-73245619D02*
X81913505Y-72245619D01*
X81913505Y-72245619D02*
X82151600Y-72245619D01*
X82151600Y-72245619D02*
X82294457Y-72293238D01*
X82294457Y-72293238D02*
X82389695Y-72388476D01*
X82389695Y-72388476D02*
X82437314Y-72483714D01*
X82437314Y-72483714D02*
X82484933Y-72674190D01*
X82484933Y-72674190D02*
X82484933Y-72817047D01*
X82484933Y-72817047D02*
X82437314Y-73007523D01*
X82437314Y-73007523D02*
X82389695Y-73102761D01*
X82389695Y-73102761D02*
X82294457Y-73198000D01*
X82294457Y-73198000D02*
X82151600Y-73245619D01*
X82151600Y-73245619D02*
X81913505Y-73245619D01*
X83437314Y-73245619D02*
X82865886Y-73245619D01*
X83151600Y-73245619D02*
X83151600Y-72245619D01*
X83151600Y-72245619D02*
X83056362Y-72388476D01*
X83056362Y-72388476D02*
X82961124Y-72483714D01*
X82961124Y-72483714D02*
X82865886Y-72531333D01*
X112137866Y-85656819D02*
X112137866Y-86371104D01*
X112137866Y-86371104D02*
X112090247Y-86513961D01*
X112090247Y-86513961D02*
X111995009Y-86609200D01*
X111995009Y-86609200D02*
X111852152Y-86656819D01*
X111852152Y-86656819D02*
X111756914Y-86656819D01*
X112518819Y-85656819D02*
X113185485Y-85656819D01*
X113185485Y-85656819D02*
X112756914Y-86656819D01*
X75248419Y-51483333D02*
X75962704Y-51483333D01*
X75962704Y-51483333D02*
X76105561Y-51530952D01*
X76105561Y-51530952D02*
X76200800Y-51626190D01*
X76200800Y-51626190D02*
X76248419Y-51769047D01*
X76248419Y-51769047D02*
X76248419Y-51864285D01*
X76248419Y-50959523D02*
X76248419Y-50769047D01*
X76248419Y-50769047D02*
X76200800Y-50673809D01*
X76200800Y-50673809D02*
X76153180Y-50626190D01*
X76153180Y-50626190D02*
X76010323Y-50530952D01*
X76010323Y-50530952D02*
X75819847Y-50483333D01*
X75819847Y-50483333D02*
X75438895Y-50483333D01*
X75438895Y-50483333D02*
X75343657Y-50530952D01*
X75343657Y-50530952D02*
X75296038Y-50578571D01*
X75296038Y-50578571D02*
X75248419Y-50673809D01*
X75248419Y-50673809D02*
X75248419Y-50864285D01*
X75248419Y-50864285D02*
X75296038Y-50959523D01*
X75296038Y-50959523D02*
X75343657Y-51007142D01*
X75343657Y-51007142D02*
X75438895Y-51054761D01*
X75438895Y-51054761D02*
X75676990Y-51054761D01*
X75676990Y-51054761D02*
X75772228Y-51007142D01*
X75772228Y-51007142D02*
X75819847Y-50959523D01*
X75819847Y-50959523D02*
X75867466Y-50864285D01*
X75867466Y-50864285D02*
X75867466Y-50673809D01*
X75867466Y-50673809D02*
X75819847Y-50578571D01*
X75819847Y-50578571D02*
X75772228Y-50530952D01*
X75772228Y-50530952D02*
X75676990Y-50483333D01*
X121476419Y-59306533D02*
X122190704Y-59306533D01*
X122190704Y-59306533D02*
X122333561Y-59354152D01*
X122333561Y-59354152D02*
X122428800Y-59449390D01*
X122428800Y-59449390D02*
X122476419Y-59592247D01*
X122476419Y-59592247D02*
X122476419Y-59687485D01*
X121476419Y-58925580D02*
X121476419Y-58306533D01*
X121476419Y-58306533D02*
X121857371Y-58639866D01*
X121857371Y-58639866D02*
X121857371Y-58497009D01*
X121857371Y-58497009D02*
X121904990Y-58401771D01*
X121904990Y-58401771D02*
X121952609Y-58354152D01*
X121952609Y-58354152D02*
X122047847Y-58306533D01*
X122047847Y-58306533D02*
X122285942Y-58306533D01*
X122285942Y-58306533D02*
X122381180Y-58354152D01*
X122381180Y-58354152D02*
X122428800Y-58401771D01*
X122428800Y-58401771D02*
X122476419Y-58497009D01*
X122476419Y-58497009D02*
X122476419Y-58782723D01*
X122476419Y-58782723D02*
X122428800Y-58877961D01*
X122428800Y-58877961D02*
X122381180Y-58925580D01*
X84059733Y-42314019D02*
X83583543Y-42314019D01*
X83583543Y-42314019D02*
X83583543Y-41314019D01*
X84916876Y-42314019D02*
X84345448Y-42314019D01*
X84631162Y-42314019D02*
X84631162Y-41314019D01*
X84631162Y-41314019D02*
X84535924Y-41456876D01*
X84535924Y-41456876D02*
X84440686Y-41552114D01*
X84440686Y-41552114D02*
X84345448Y-41599733D01*
D12*
%TO.C,G\u002A\u002A\u002A*%
G36*
X84800274Y-79205677D02*
G01*
X84865629Y-79206676D01*
X84922787Y-79208731D01*
X84974788Y-79212083D01*
X85024672Y-79216971D01*
X85075477Y-79223635D01*
X85130242Y-79232316D01*
X85184400Y-79241863D01*
X85366282Y-79282063D01*
X85542995Y-79335217D01*
X85713998Y-79400795D01*
X85878752Y-79478268D01*
X86036718Y-79567109D01*
X86187355Y-79666787D01*
X86330124Y-79776775D01*
X86464486Y-79896543D01*
X86589901Y-80025563D01*
X86705830Y-80163305D01*
X86811732Y-80309241D01*
X86907068Y-80462842D01*
X86991300Y-80623580D01*
X87063886Y-80790925D01*
X87124288Y-80964349D01*
X87171966Y-81143323D01*
X87184536Y-81202121D01*
X87195385Y-81257023D01*
X87204389Y-81305507D01*
X87211719Y-81349711D01*
X87217546Y-81391770D01*
X87222042Y-81433822D01*
X87225377Y-81478004D01*
X87227724Y-81526450D01*
X87229253Y-81581300D01*
X87230136Y-81644688D01*
X87230544Y-81718752D01*
X87230638Y-81777283D01*
X87230564Y-81860349D01*
X87230135Y-81931194D01*
X87229212Y-81991887D01*
X87227656Y-82044495D01*
X87225330Y-82091085D01*
X87222095Y-82133727D01*
X87217814Y-82174486D01*
X87212347Y-82215431D01*
X87205558Y-82258631D01*
X87197307Y-82306151D01*
X87194106Y-82323865D01*
X87153533Y-82507701D01*
X87099859Y-82686370D01*
X87033505Y-82859315D01*
X86954891Y-83025980D01*
X86864439Y-83185809D01*
X86762568Y-83338245D01*
X86649701Y-83482733D01*
X86526256Y-83618716D01*
X86392656Y-83745637D01*
X86249321Y-83862941D01*
X86096671Y-83970071D01*
X85935127Y-84066471D01*
X85837971Y-84117026D01*
X85682164Y-84187884D01*
X85525286Y-84246847D01*
X85364695Y-84294716D01*
X85197744Y-84332297D01*
X85048685Y-84356774D01*
X85021998Y-84359594D01*
X84984636Y-84362307D01*
X84939007Y-84364848D01*
X84887519Y-84367148D01*
X84832578Y-84369143D01*
X84776593Y-84370765D01*
X84721971Y-84371947D01*
X84671119Y-84372623D01*
X84626445Y-84372726D01*
X84590356Y-84372190D01*
X84565260Y-84370948D01*
X84559400Y-84370317D01*
X84543512Y-84368405D01*
X84517409Y-84365545D01*
X84485090Y-84362169D01*
X84459400Y-84359578D01*
X84291511Y-84336207D01*
X84122113Y-84299523D01*
X83953097Y-84250090D01*
X83786355Y-84188473D01*
X83623779Y-84115239D01*
X83598093Y-84102386D01*
X83436349Y-84012377D01*
X83282470Y-83910814D01*
X83136985Y-83798390D01*
X83000420Y-83675799D01*
X82873303Y-83543735D01*
X82785178Y-83437778D01*
X83569577Y-83437778D01*
X83570033Y-83438904D01*
X83573274Y-83434011D01*
X83579644Y-83422414D01*
X83589485Y-83403425D01*
X83603141Y-83376360D01*
X83620956Y-83340533D01*
X83643272Y-83295256D01*
X83670433Y-83239845D01*
X83702782Y-83173614D01*
X83740663Y-83095876D01*
X83783684Y-83007454D01*
X83819109Y-82934577D01*
X83852631Y-82865559D01*
X83883735Y-82801459D01*
X83911909Y-82743339D01*
X83936640Y-82692260D01*
X83957413Y-82649283D01*
X83973715Y-82615469D01*
X83985033Y-82591878D01*
X83990852Y-82579573D01*
X83991542Y-82577989D01*
X83985288Y-82579598D01*
X83968186Y-82585442D01*
X83942723Y-82594639D01*
X83911390Y-82606304D01*
X83905734Y-82608440D01*
X83819926Y-82640920D01*
X83799262Y-82705669D01*
X83792872Y-82725829D01*
X83782755Y-82757931D01*
X83769441Y-82800277D01*
X83753464Y-82851172D01*
X83735357Y-82908916D01*
X83715651Y-82971815D01*
X83694879Y-83038169D01*
X83676943Y-83095511D01*
X83656428Y-83161092D01*
X83637144Y-83222691D01*
X83619525Y-83278928D01*
X83604003Y-83328421D01*
X83591011Y-83369790D01*
X83580985Y-83401652D01*
X83574355Y-83422628D01*
X83571563Y-83431319D01*
X83569577Y-83437778D01*
X82785178Y-83437778D01*
X82756162Y-83402891D01*
X82649522Y-83253962D01*
X82553912Y-83097641D01*
X82469860Y-82934621D01*
X82397891Y-82765597D01*
X82357298Y-82646372D01*
X82758037Y-82646372D01*
X82762362Y-82688230D01*
X82779011Y-82723808D01*
X82807637Y-82752908D01*
X82847893Y-82775332D01*
X82899432Y-82790884D01*
X82961906Y-82799363D01*
X83034969Y-82800574D01*
X83111467Y-82795074D01*
X83220319Y-82779485D01*
X83339481Y-82755310D01*
X83468114Y-82722905D01*
X83605382Y-82682624D01*
X83750450Y-82634821D01*
X83902481Y-82579851D01*
X84060639Y-82518069D01*
X84224086Y-82449830D01*
X84391988Y-82375487D01*
X84563506Y-82295396D01*
X84737806Y-82209910D01*
X84914051Y-82119386D01*
X85091403Y-82024177D01*
X85209233Y-81958146D01*
X85280828Y-81958146D01*
X85285218Y-81964246D01*
X85297962Y-81980645D01*
X85318423Y-82006555D01*
X85345966Y-82041187D01*
X85379952Y-82083752D01*
X85419747Y-82133463D01*
X85464711Y-82189529D01*
X85514210Y-82251162D01*
X85567605Y-82317574D01*
X85624261Y-82387975D01*
X85683541Y-82461577D01*
X85744807Y-82537592D01*
X85807423Y-82615230D01*
X85870752Y-82693702D01*
X85934158Y-82772220D01*
X85997003Y-82849996D01*
X86058651Y-82926240D01*
X86118465Y-83000164D01*
X86175809Y-83070978D01*
X86230045Y-83137895D01*
X86280537Y-83200125D01*
X86326648Y-83256880D01*
X86367741Y-83307370D01*
X86403179Y-83350808D01*
X86432327Y-83386404D01*
X86454546Y-83413370D01*
X86469200Y-83430917D01*
X86475653Y-83438256D01*
X86475892Y-83438432D01*
X86475524Y-83433890D01*
X86475110Y-83433106D01*
X86469835Y-83424068D01*
X86457868Y-83403832D01*
X86439734Y-83373275D01*
X86415956Y-83333275D01*
X86387058Y-83284710D01*
X86353564Y-83228458D01*
X86315998Y-83165396D01*
X86274883Y-83096402D01*
X86230744Y-83022354D01*
X86184103Y-82944129D01*
X86135485Y-82862606D01*
X86085414Y-82778662D01*
X86034413Y-82693175D01*
X85983007Y-82607023D01*
X85931718Y-82521083D01*
X85881072Y-82436234D01*
X85831591Y-82353352D01*
X85783799Y-82273317D01*
X85738221Y-82197005D01*
X85695379Y-82125295D01*
X85655799Y-82059063D01*
X85620002Y-81999189D01*
X85588515Y-81946549D01*
X85561859Y-81902022D01*
X85540560Y-81866485D01*
X85525140Y-81840817D01*
X85516124Y-81825894D01*
X85513882Y-81822284D01*
X85506587Y-81824034D01*
X85489524Y-81832005D01*
X85465036Y-81844834D01*
X85435460Y-81861156D01*
X85403137Y-81879608D01*
X85370408Y-81898825D01*
X85339612Y-81917443D01*
X85313088Y-81934099D01*
X85293178Y-81947427D01*
X85282221Y-81956065D01*
X85280828Y-81958146D01*
X85209233Y-81958146D01*
X85269028Y-81924637D01*
X85446088Y-81821122D01*
X85534400Y-81767830D01*
X85695789Y-81667343D01*
X85851211Y-81566472D01*
X85999976Y-81465760D01*
X86141394Y-81365752D01*
X86274775Y-81266992D01*
X86399429Y-81170024D01*
X86514666Y-81075393D01*
X86619797Y-80983643D01*
X86714131Y-80895319D01*
X86796980Y-80810964D01*
X86867652Y-80731123D01*
X86900971Y-80689477D01*
X86916369Y-80668701D01*
X86926915Y-80653073D01*
X86930850Y-80645251D01*
X86930528Y-80644822D01*
X86923479Y-80649261D01*
X86908402Y-80661187D01*
X86887874Y-80678515D01*
X86874753Y-80689980D01*
X86806370Y-80748375D01*
X86727200Y-80812332D01*
X86638998Y-80880563D01*
X86543516Y-80951784D01*
X86442507Y-81024706D01*
X86337724Y-81098045D01*
X86230919Y-81170512D01*
X86127257Y-81238619D01*
X85963294Y-81342440D01*
X85796418Y-81444046D01*
X85627514Y-81543032D01*
X85457464Y-81638991D01*
X85287155Y-81731517D01*
X85117470Y-81820205D01*
X84949294Y-81904648D01*
X84783511Y-81984440D01*
X84621006Y-82059175D01*
X84462662Y-82128447D01*
X84309366Y-82191850D01*
X84162000Y-82248978D01*
X84021450Y-82299425D01*
X83888600Y-82342785D01*
X83764334Y-82378652D01*
X83649537Y-82406620D01*
X83545093Y-82426282D01*
X83537971Y-82427370D01*
X83483140Y-82433846D01*
X83427327Y-82437297D01*
X83373953Y-82437731D01*
X83326442Y-82435157D01*
X83288215Y-82429582D01*
X83277143Y-82426770D01*
X83236436Y-82409286D01*
X83208070Y-82384791D01*
X83192028Y-82353445D01*
X83188293Y-82315403D01*
X83193157Y-82290055D01*
X83929040Y-82290055D01*
X83929732Y-82294014D01*
X83935860Y-82294968D01*
X83949048Y-82292521D01*
X83970921Y-82286279D01*
X84003102Y-82275846D01*
X84042461Y-82262464D01*
X84081275Y-82248811D01*
X84115573Y-82236176D01*
X84142971Y-82225484D01*
X84161086Y-82217658D01*
X84167266Y-82214107D01*
X84171568Y-82206529D01*
X84181604Y-82187089D01*
X84196879Y-82156787D01*
X84216900Y-82116621D01*
X84241175Y-82067592D01*
X84269209Y-82010698D01*
X84300510Y-81946940D01*
X84334584Y-81877316D01*
X84370938Y-81802826D01*
X84409080Y-81724468D01*
X84417266Y-81707623D01*
X84455611Y-81628820D01*
X84492200Y-81553853D01*
X84526548Y-81483700D01*
X84558172Y-81419340D01*
X84586588Y-81361751D01*
X84611311Y-81311911D01*
X84631857Y-81270798D01*
X84647742Y-81239390D01*
X84658482Y-81218665D01*
X84663593Y-81209601D01*
X84663920Y-81209269D01*
X84668874Y-81214607D01*
X84681789Y-81229776D01*
X84701629Y-81253510D01*
X84727359Y-81284539D01*
X84757941Y-81321598D01*
X84792341Y-81363418D01*
X84829520Y-81408731D01*
X84868444Y-81456270D01*
X84908077Y-81504768D01*
X84947381Y-81552956D01*
X84985321Y-81599568D01*
X85020860Y-81643335D01*
X85052963Y-81682990D01*
X85080592Y-81717266D01*
X85102713Y-81744894D01*
X85118288Y-81764607D01*
X85124549Y-81772761D01*
X85128806Y-81775520D01*
X85136530Y-81775185D01*
X85149297Y-81771081D01*
X85168681Y-81762530D01*
X85196258Y-81748856D01*
X85233603Y-81729384D01*
X85267406Y-81711402D01*
X85307072Y-81689967D01*
X85342011Y-81670637D01*
X85370413Y-81654454D01*
X85390466Y-81642455D01*
X85400357Y-81635681D01*
X85401079Y-81634705D01*
X85396993Y-81626770D01*
X85386159Y-81607696D01*
X85369141Y-81578424D01*
X85346504Y-81539892D01*
X85318812Y-81493040D01*
X85286629Y-81438806D01*
X85250520Y-81378130D01*
X85211049Y-81311952D01*
X85168782Y-81241209D01*
X85124281Y-81166842D01*
X85078111Y-81089790D01*
X85046441Y-81037000D01*
X85546965Y-81037000D01*
X85550203Y-81037385D01*
X85567440Y-81040103D01*
X85591706Y-81046697D01*
X85610556Y-81053125D01*
X85658240Y-81078279D01*
X85699458Y-81114385D01*
X85732037Y-81158766D01*
X85753806Y-81208747D01*
X85760406Y-81237796D01*
X85765339Y-81269997D01*
X85775135Y-81226366D01*
X85784907Y-81194418D01*
X85799085Y-81160831D01*
X85807882Y-81144319D01*
X85837665Y-81106686D01*
X85877064Y-81074565D01*
X85921587Y-81051223D01*
X85946900Y-81043246D01*
X85970273Y-81036493D01*
X85982323Y-81030381D01*
X85982258Y-81025783D01*
X85969288Y-81023573D01*
X85964757Y-81023494D01*
X85940379Y-81018905D01*
X85910147Y-81006718D01*
X85878456Y-80989287D01*
X85849703Y-80968967D01*
X85831920Y-80952377D01*
X85806519Y-80919421D01*
X85788573Y-80883564D01*
X85775608Y-80839638D01*
X85773666Y-80830738D01*
X85765473Y-80791592D01*
X85756974Y-80834802D01*
X85743045Y-80879684D01*
X85720464Y-80923201D01*
X85692151Y-80960310D01*
X85675096Y-80976239D01*
X85655161Y-80988919D01*
X85626907Y-81002814D01*
X85595775Y-81015304D01*
X85589382Y-81017503D01*
X85562720Y-81027007D01*
X85548374Y-81033611D01*
X85546965Y-81037000D01*
X85046441Y-81037000D01*
X85030838Y-81010991D01*
X84983024Y-80931386D01*
X84935235Y-80851913D01*
X84888036Y-80773511D01*
X84841990Y-80697119D01*
X84797661Y-80623677D01*
X84755615Y-80554124D01*
X84716415Y-80489400D01*
X84680627Y-80430442D01*
X84648814Y-80378191D01*
X84621540Y-80333585D01*
X84599371Y-80297565D01*
X84582871Y-80271068D01*
X84572603Y-80255035D01*
X84569145Y-80250334D01*
X84566699Y-80257392D01*
X84560276Y-80277174D01*
X84550162Y-80308770D01*
X84536644Y-80351265D01*
X84520008Y-80403748D01*
X84500540Y-80465305D01*
X84478528Y-80535024D01*
X84454256Y-80611992D01*
X84428013Y-80695295D01*
X84400084Y-80784022D01*
X84370756Y-80877259D01*
X84340315Y-80974094D01*
X84309048Y-81073614D01*
X84277241Y-81174905D01*
X84245181Y-81277056D01*
X84213154Y-81379153D01*
X84181446Y-81480283D01*
X84150345Y-81579534D01*
X84120136Y-81675994D01*
X84091106Y-81768748D01*
X84063541Y-81856885D01*
X84037728Y-81939491D01*
X84013953Y-82015654D01*
X83992504Y-82084460D01*
X83973665Y-82144998D01*
X83957724Y-82196355D01*
X83944967Y-82237616D01*
X83935681Y-82267871D01*
X83930152Y-82286205D01*
X83929040Y-82290055D01*
X83193157Y-82290055D01*
X83196847Y-82270824D01*
X83217674Y-82219866D01*
X83250755Y-82162684D01*
X83296074Y-82099438D01*
X83315889Y-82074594D01*
X83338291Y-82048920D01*
X83369215Y-82015906D01*
X83406486Y-81977682D01*
X83447930Y-81936381D01*
X83491372Y-81894132D01*
X83534637Y-81853067D01*
X83575550Y-81815317D01*
X83611938Y-81783013D01*
X83623685Y-81772980D01*
X83692557Y-81716144D01*
X83769090Y-81655056D01*
X83848887Y-81593128D01*
X83927550Y-81533769D01*
X84000681Y-81480391D01*
X84004042Y-81477990D01*
X84038241Y-81453445D01*
X84068040Y-81431761D01*
X84091633Y-81414277D01*
X84107211Y-81402334D01*
X84112968Y-81397270D01*
X84112971Y-81397247D01*
X84112657Y-81396141D01*
X84110831Y-81396318D01*
X84106166Y-81398613D01*
X84097335Y-81403863D01*
X84083010Y-81412901D01*
X84061865Y-81426562D01*
X84032573Y-81445683D01*
X83993805Y-81471098D01*
X83951999Y-81498545D01*
X83802312Y-81598935D01*
X83660938Y-81697992D01*
X83528273Y-81795349D01*
X83404712Y-81890639D01*
X83290648Y-81983497D01*
X83186478Y-82073555D01*
X83092595Y-82160448D01*
X83009395Y-82243809D01*
X82937273Y-82323272D01*
X82876623Y-82398470D01*
X82827840Y-82469038D01*
X82791320Y-82534609D01*
X82767457Y-82594816D01*
X82766384Y-82598431D01*
X82758037Y-82646372D01*
X82357298Y-82646372D01*
X82338534Y-82591261D01*
X82292316Y-82412308D01*
X82284263Y-82373879D01*
X82273414Y-82318977D01*
X82264410Y-82270493D01*
X82257080Y-82226289D01*
X82251253Y-82184230D01*
X82246757Y-82142178D01*
X82243422Y-82097997D01*
X82241075Y-82049550D01*
X82239546Y-81994701D01*
X82238663Y-81931312D01*
X82238255Y-81857249D01*
X82238161Y-81798717D01*
X82238235Y-81715652D01*
X82238664Y-81644806D01*
X82239587Y-81584113D01*
X82241143Y-81531506D01*
X82243469Y-81484915D01*
X82246704Y-81442274D01*
X82250985Y-81401514D01*
X82251913Y-81394567D01*
X84121865Y-81394567D01*
X84122842Y-81395032D01*
X84129361Y-81390003D01*
X84130828Y-81387888D01*
X84132648Y-81381208D01*
X84131671Y-81380743D01*
X84125153Y-81385773D01*
X84123685Y-81387888D01*
X84121865Y-81394567D01*
X82251913Y-81394567D01*
X82254236Y-81377170D01*
X84141542Y-81377170D01*
X84145114Y-81380743D01*
X84148685Y-81377170D01*
X84145114Y-81373598D01*
X84141542Y-81377170D01*
X82254236Y-81377170D01*
X82256452Y-81360569D01*
X82263241Y-81317370D01*
X82271492Y-81269849D01*
X82274693Y-81252135D01*
X82314897Y-81070106D01*
X82368046Y-80893268D01*
X82433612Y-80722159D01*
X82511068Y-80557317D01*
X82599887Y-80399281D01*
X82699542Y-80248587D01*
X82809505Y-80105774D01*
X82929251Y-79971381D01*
X83058251Y-79845945D01*
X83195979Y-79730004D01*
X83341908Y-79624097D01*
X83495510Y-79528762D01*
X83656259Y-79444536D01*
X83823628Y-79371957D01*
X83997089Y-79311565D01*
X84176115Y-79263896D01*
X84234400Y-79251436D01*
X84301337Y-79238379D01*
X84360136Y-79228010D01*
X84413979Y-79220030D01*
X84466051Y-79214140D01*
X84519533Y-79210041D01*
X84577610Y-79207434D01*
X84643465Y-79206021D01*
X84720281Y-79205502D01*
X84723685Y-79205495D01*
X84800274Y-79205677D01*
G37*
D13*
%TO.C,J8*%
X73644000Y-55722000D02*
X85364000Y-55722000D01*
X73644000Y-59532000D02*
X73644000Y-55722000D01*
X73644000Y-59532000D02*
X73644000Y-63342000D01*
X73644000Y-63342000D02*
X85364000Y-63342000D01*
X74254000Y-58032000D02*
X74254000Y-58532000D01*
X74254000Y-58532000D02*
X79754000Y-58532000D01*
X74254000Y-60532000D02*
X74254000Y-61032000D01*
X74254000Y-61032000D02*
X79754000Y-61032000D01*
X79754000Y-58032000D02*
X74254000Y-58032000D01*
X79754000Y-58532000D02*
X79754000Y-58032000D01*
X79754000Y-60532000D02*
X74254000Y-60532000D01*
X79754000Y-61032000D02*
X79754000Y-60532000D01*
X85364000Y-55722000D02*
X85364000Y-57142000D01*
X85364000Y-57142000D02*
X80864000Y-57142000D01*
X85364000Y-61922000D02*
X80864000Y-61922000D01*
X85364000Y-63342000D02*
X85364000Y-61922000D01*
%TO.C,D3*%
X116077600Y-69333600D02*
X116077600Y-70643600D01*
X117297600Y-69333600D02*
X116077600Y-69333600D01*
X117297600Y-69333600D02*
X117297600Y-70643600D01*
%TO.C,D4*%
X116077600Y-50588400D02*
X116077600Y-51898400D01*
X117297600Y-50588400D02*
X116077600Y-50588400D01*
X117297600Y-50588400D02*
X117297600Y-51898400D01*
%TO.C,D5*%
X116077600Y-58874400D02*
X116077600Y-60184400D01*
X117297600Y-58874400D02*
X116077600Y-58874400D01*
X117297600Y-58874400D02*
X117297600Y-60184400D01*
%TO.C,D6*%
X116077600Y-76552800D02*
X116077600Y-77862800D01*
X117297600Y-76552800D02*
X116077600Y-76552800D01*
X117297600Y-76552800D02*
X117297600Y-77862800D01*
%TO.C,D7*%
X79806400Y-68673200D02*
X79806400Y-67363200D01*
X79806400Y-68673200D02*
X81026400Y-68673200D01*
X81026400Y-68673200D02*
X81026400Y-67363200D01*
%TO.C,D8*%
X79806400Y-76756000D02*
X79806400Y-78066000D01*
X81026400Y-76756000D02*
X79806400Y-76756000D01*
X81026400Y-76756000D02*
X81026400Y-78066000D01*
%TO.C,D9*%
X79806400Y-76445600D02*
X79806400Y-75135600D01*
X79806400Y-76445600D02*
X81026400Y-76445600D01*
X81026400Y-76445600D02*
X81026400Y-75135600D01*
%TO.C,D10*%
X112316000Y-80969200D02*
X111006000Y-80969200D01*
X112316000Y-82189200D02*
X111006000Y-82189200D01*
X112316000Y-82189200D02*
X112316000Y-80969200D01*
%TO.C,D11*%
X112626400Y-80969200D02*
X112626400Y-82189200D01*
X112626400Y-80969200D02*
X113936400Y-80969200D01*
X112626400Y-82189200D02*
X113936400Y-82189200D01*
%TO.C,D12*%
X85902400Y-58874400D02*
X85902400Y-57564400D01*
X85902400Y-58874400D02*
X87122400Y-58874400D01*
X87122400Y-58874400D02*
X87122400Y-57564400D01*
%TO.C,D13*%
X79806400Y-52010800D02*
X79806400Y-50700800D01*
X79806400Y-52010800D02*
X81026400Y-52010800D01*
X81026400Y-52010800D02*
X81026400Y-50700800D01*
%TO.C,J5*%
X78164000Y-72082800D02*
X78164000Y-70282800D01*
X78164000Y-66662800D02*
X79154000Y-66662800D01*
X78164000Y-64862800D02*
X78164000Y-66662800D01*
X76714000Y-72082800D02*
X78164000Y-72082800D01*
X76714000Y-64862800D02*
X78164000Y-64862800D01*
X73894000Y-66132800D02*
X73894000Y-70812800D01*
%TO.C,C9*%
X112057480Y-48705900D02*
X111776320Y-48705900D01*
X112057480Y-49725900D02*
X111776320Y-49725900D01*
%TO.C,R11*%
X82888858Y-52761100D02*
X82414342Y-52761100D01*
X82888858Y-53806100D02*
X82414342Y-53806100D01*
%TO.C,R4*%
X110841858Y-64495900D02*
X110367342Y-64495900D01*
X110841858Y-65540900D02*
X110367342Y-65540900D01*
%TO.C,C2*%
X81227200Y-48496580D02*
X81227200Y-48215420D01*
X82247200Y-48496580D02*
X82247200Y-48215420D01*
%TO.C,C12*%
X88948800Y-80043380D02*
X88948800Y-79762220D01*
X89968800Y-80043380D02*
X89968800Y-79762220D01*
%TO.C,R7*%
X107325900Y-76160342D02*
X107325900Y-76634858D01*
X108370900Y-76160342D02*
X108370900Y-76634858D01*
%TO.C,R2*%
X110841858Y-55656700D02*
X110367342Y-55656700D01*
X110841858Y-56701700D02*
X110367342Y-56701700D01*
%TO.C,C1*%
X86488600Y-50344452D02*
X86488600Y-49821948D01*
X87958600Y-50344452D02*
X87958600Y-49821948D01*
%TO.C,R6*%
X85919542Y-71201500D02*
X86394058Y-71201500D01*
X85919542Y-72246500D02*
X86394058Y-72246500D01*
%TO.C,R3*%
X110841858Y-61549500D02*
X110367342Y-61549500D01*
X110841858Y-62594500D02*
X110367342Y-62594500D01*
%TO.C,U4*%
X108427900Y-50232900D02*
X108927900Y-50232900D01*
X108427900Y-50732900D02*
X108427900Y-50232900D01*
X108427900Y-53532900D02*
X108427900Y-53032900D01*
X108927900Y-53532900D02*
X108427900Y-53532900D01*
X113627900Y-50532900D02*
X113627900Y-51282900D01*
X113627900Y-53032900D02*
X113627900Y-53532900D01*
X113627900Y-53532900D02*
X113127900Y-53532900D01*
X113987900Y-50332900D02*
X113627900Y-50332900D01*
X113627900Y-49972900D01*
X113987900Y-50332900D01*
G36*
X113987900Y-50332900D02*
G01*
X113627900Y-50332900D01*
X113627900Y-49972900D01*
X113987900Y-50332900D01*
G37*
%TO.C,J4*%
X123210000Y-79042400D02*
X123210000Y-74362400D01*
X120390000Y-80312400D02*
X118940000Y-80312400D01*
X120390000Y-73092400D02*
X118940000Y-73092400D01*
X118940000Y-80312400D02*
X118940000Y-78512400D01*
X118940000Y-78512400D02*
X117950000Y-78512400D01*
X118940000Y-73092400D02*
X118940000Y-74892400D01*
%TO.C,R5*%
X85919542Y-68305900D02*
X86394058Y-68305900D01*
X85919542Y-69350900D02*
X86394058Y-69350900D01*
D14*
%TO.C,U8*%
X111772700Y-76034339D02*
X111772700Y-76760861D01*
X111772700Y-78074000D02*
X113779300Y-78074000D01*
X113779300Y-74721200D02*
X111772700Y-74721200D01*
X113779300Y-75810860D02*
X113779300Y-74721200D01*
X113779300Y-78074000D02*
X113779300Y-76984340D01*
D13*
%TO.C,C6*%
X112824800Y-70923020D02*
X112824800Y-71204180D01*
X113844800Y-70923020D02*
X113844800Y-71204180D01*
D15*
%TO.C,U5*%
X90802000Y-74946800D02*
X90802000Y-77696800D01*
X90802000Y-74946800D02*
X93552000Y-74946800D01*
X90802000Y-90446800D02*
X90802000Y-87696800D01*
X90802000Y-90446800D02*
X93552000Y-90446800D01*
X106302000Y-74946800D02*
X103552000Y-74946800D01*
X106302000Y-74946800D02*
X106302000Y-77696800D01*
X106302000Y-90446800D02*
X103552000Y-90446800D01*
X106302000Y-90446800D02*
X106302000Y-87696800D01*
D16*
X94852000Y-91196800D02*
G75*
G02*
X94652000Y-91196800I-100000J0D01*
G01*
X94652000Y-91196800D02*
G75*
G02*
X94852000Y-91196800I100000J0D01*
G01*
D13*
%TO.C,D2*%
X110275400Y-78598000D02*
X110275400Y-80598000D01*
X110275400Y-78598000D02*
X114135400Y-78598000D01*
X110275400Y-80598000D02*
X114135400Y-80598000D01*
%TO.C,R8*%
X109002300Y-76160342D02*
X109002300Y-76634858D01*
X110047300Y-76160342D02*
X110047300Y-76634858D01*
%TO.C,U1*%
X82768000Y-49727600D02*
X82768000Y-48927600D01*
X82768000Y-49727600D02*
X82768000Y-50527600D01*
X85888000Y-49727600D02*
X85888000Y-48927600D01*
X85888000Y-49727600D02*
X85888000Y-50527600D01*
X82818000Y-51027600D02*
X82488000Y-51267600D01*
X82488000Y-50787600D01*
X82818000Y-51027600D01*
G36*
X82818000Y-51027600D02*
G01*
X82488000Y-51267600D01*
X82488000Y-50787600D01*
X82818000Y-51027600D01*
G37*
%TO.C,J2*%
X123210000Y-53134400D02*
X123210000Y-48454400D01*
X120390000Y-54404400D02*
X118940000Y-54404400D01*
X120390000Y-47184400D02*
X118940000Y-47184400D01*
X118940000Y-54404400D02*
X118940000Y-52604400D01*
X118940000Y-52604400D02*
X117950000Y-52604400D01*
X118940000Y-47184400D02*
X118940000Y-48984400D01*
D14*
%TO.C,U3*%
X110553500Y-41599600D02*
X110553500Y-44850800D01*
X110553500Y-44850800D02*
X111059620Y-44850800D01*
X111059620Y-41599600D02*
X110553500Y-41599600D01*
X114797180Y-44850800D02*
X115303300Y-44850800D01*
X115303300Y-41599600D02*
X114797180Y-41599600D01*
X115303300Y-44850800D02*
X115303300Y-41599600D01*
D13*
%TO.C,C7*%
X113753020Y-45560000D02*
X114034180Y-45560000D01*
X113753020Y-46580000D02*
X114034180Y-46580000D01*
%TO.C,C11*%
X99376620Y-91211100D02*
X99657780Y-91211100D01*
X99376620Y-92231100D02*
X99657780Y-92231100D01*
%TO.C,C4*%
X86488600Y-42724452D02*
X86488600Y-42201948D01*
X87958600Y-42724452D02*
X87958600Y-42201948D01*
D15*
%TO.C,U6*%
X89662000Y-36480000D02*
X107442000Y-36480000D01*
X89662000Y-72740000D02*
X89662000Y-36480000D01*
X107442000Y-36480000D02*
X107442000Y-72740000D01*
X107442000Y-72740000D02*
X89662000Y-72740000D01*
D14*
%TO.C,U2*%
X109689900Y-69907900D02*
X109689900Y-70194820D01*
X109689900Y-71932380D02*
X109689900Y-72219300D01*
X109689900Y-72219300D02*
X110226820Y-72219300D01*
X110226820Y-69907900D02*
X109689900Y-69907900D01*
X111464380Y-72219300D02*
X112001300Y-72219300D01*
X112001300Y-69907900D02*
X111464380Y-69907900D01*
X112001300Y-70194820D02*
X112001300Y-69907900D01*
X112001300Y-72219300D02*
X112001300Y-71932380D01*
D12*
G36*
X112280700Y-70754101D02*
G01*
X112026700Y-70754101D01*
X112026700Y-70373101D01*
X112280700Y-70373101D01*
X112280700Y-70754101D01*
G37*
D13*
%TO.C,R1*%
X110841858Y-58603100D02*
X110367342Y-58603100D01*
X110841858Y-59648100D02*
X110367342Y-59648100D01*
%TO.C,C8*%
X112737020Y-39870400D02*
X113018180Y-39870400D01*
X112737020Y-40890400D02*
X113018180Y-40890400D01*
%TO.C,J6*%
X78164000Y-79585800D02*
X78164000Y-77785800D01*
X78164000Y-75415800D02*
X79154000Y-75415800D01*
X78164000Y-73615800D02*
X78164000Y-75415800D01*
X76714000Y-79585800D02*
X78164000Y-79585800D01*
X76714000Y-73615800D02*
X78164000Y-73615800D01*
X73894000Y-74885800D02*
X73894000Y-78315800D01*
%TO.C,C3*%
X86488600Y-46011948D02*
X86488600Y-46534452D01*
X87958600Y-46011948D02*
X87958600Y-46534452D01*
%TO.C,J1*%
X123210000Y-70828200D02*
X123210000Y-64898200D01*
X120390000Y-72098200D02*
X118940000Y-72098200D01*
X120390000Y-63628200D02*
X118940000Y-63628200D01*
X118940000Y-72098200D02*
X118940000Y-70298200D01*
X118940000Y-70298200D02*
X117950000Y-70298200D01*
X118940000Y-63628200D02*
X118940000Y-65428200D01*
D14*
%TO.C,U7*%
X84378800Y-75038700D02*
X84378800Y-77045300D01*
X84378800Y-77045300D02*
X85468460Y-77045300D01*
X86418461Y-75038700D02*
X85691939Y-75038700D01*
X86641940Y-77045300D02*
X87731600Y-77045300D01*
X87731600Y-77045300D02*
X87731600Y-75038700D01*
D13*
%TO.C,C5*%
X110745180Y-67988200D02*
X110464020Y-67988200D01*
X110745180Y-69008200D02*
X110464020Y-69008200D01*
%TO.C,C10*%
X96355780Y-91211100D02*
X96074620Y-91211100D01*
X96355780Y-92231100D02*
X96074620Y-92231100D01*
%TO.C,D1*%
X81651600Y-73628800D02*
X81651600Y-77488800D01*
X83651600Y-73628800D02*
X81651600Y-73628800D01*
X83651600Y-73628800D02*
X83651600Y-77488800D01*
%TO.C,J7*%
X115456200Y-85434000D02*
X115456200Y-83834000D01*
X115456200Y-83834000D02*
X113656200Y-83834000D01*
X114186200Y-88304000D02*
X110756200Y-88304000D01*
X113656200Y-83834000D02*
X113656200Y-82894000D01*
X109486200Y-85434000D02*
X109486200Y-83834000D01*
X109486200Y-83834000D02*
X111286200Y-83834000D01*
%TO.C,J9*%
X78164000Y-54185800D02*
X78164000Y-52385800D01*
X78164000Y-50015800D02*
X79154000Y-50015800D01*
X78164000Y-48215800D02*
X78164000Y-50015800D01*
X76714000Y-54185800D02*
X78164000Y-54185800D01*
X76714000Y-48215800D02*
X78164000Y-48215800D01*
X73894000Y-49485800D02*
X73894000Y-52915800D01*
%TO.C,J3*%
X123210000Y-61364000D02*
X123210000Y-56684000D01*
X120390000Y-62634000D02*
X118940000Y-62634000D01*
X120390000Y-55414000D02*
X118940000Y-55414000D01*
X118940000Y-62634000D02*
X118940000Y-60834000D01*
X118940000Y-60834000D02*
X117950000Y-60834000D01*
X118940000Y-55414000D02*
X118940000Y-57214000D01*
%TO.C,L1*%
X82866400Y-45605264D02*
X82866400Y-44401136D01*
X85586400Y-45605264D02*
X85586400Y-44401136D01*
%TD*%
M02*
