%TF.GenerationSoftware,KiCad,Pcbnew,8.0.1*%
%TF.CreationDate,2024-04-29T03:40:28-07:00*%
%TF.ProjectId,CanSat PCB,43616e53-6174-4205-9043-422e6b696361,4*%
%TF.SameCoordinates,Original*%
%TF.FileFunction,Drillmap*%
%TF.FilePolarity,Positive*%
%FSLAX45Y45*%
G04 Gerber Fmt 4.5, Leading zero omitted, Abs format (unit mm)*
G04 Created by KiCad (PCBNEW 8.0.1) date 2024-04-29 03:40:28*
%MOMM*%
%LPD*%
G01*
G04 APERTURE LIST*
%ADD10C,0.050000*%
%ADD11C,0.200000*%
%ADD12C,0.100000*%
%ADD13C,0.102000*%
G04 APERTURE END LIST*
D10*
X7984949Y-4413960D02*
G75*
G02*
X7763051Y-4413960I-110949J0D01*
G01*
X7763051Y-4413960D02*
G75*
G02*
X7984949Y-4413960I110949J0D01*
G01*
X11947349Y-4413960D02*
G75*
G02*
X11725451Y-4413960I-110949J0D01*
G01*
X11725451Y-4413960D02*
G75*
G02*
X11947349Y-4413960I110949J0D01*
G01*
X12385040Y-8071560D02*
G75*
G02*
X7325360Y-8071560I-2529840J1701800D01*
G01*
X7984949Y-8325560D02*
G75*
G02*
X7763051Y-8325560I-110949J0D01*
G01*
X7763051Y-8325560D02*
G75*
G02*
X7984949Y-8325560I110949J0D01*
G01*
X12385040Y-8071560D02*
X12385040Y-4667960D01*
X7325360Y-8071560D02*
X7325360Y-4667960D01*
X7325360Y-4667960D02*
G75*
G02*
X12385040Y-4667960I2529840J-1701800D01*
G01*
X11947349Y-8325560D02*
G75*
G02*
X11725451Y-8325560I-110949J0D01*
G01*
X11725451Y-8325560D02*
G75*
G02*
X11947349Y-8325560I110949J0D01*
G01*
D11*
D12*
X7841220Y-6614400D02*
X7871220Y-6644400D01*
X7871220Y-6614400D02*
X7841220Y-6644400D01*
X7925040Y-7482520D02*
X7955040Y-7512520D01*
X7955040Y-7482520D02*
X7925040Y-7512520D01*
X7930120Y-7797480D02*
X7960120Y-7827480D01*
X7960120Y-7797480D02*
X7930120Y-7827480D01*
X7935200Y-6710360D02*
X7965200Y-6740360D01*
X7965200Y-6710360D02*
X7935200Y-6740360D01*
X7950440Y-5018720D02*
X7980440Y-5048720D01*
X7980440Y-5018720D02*
X7950440Y-5048720D01*
X8026640Y-6655040D02*
X8056640Y-6685040D01*
X8056640Y-6655040D02*
X8026640Y-6685040D01*
X8402560Y-7429740D02*
X8432560Y-7459740D01*
X8432560Y-7429740D02*
X8402560Y-7459740D01*
X8499080Y-7304720D02*
X8529080Y-7334720D01*
X8529080Y-7304720D02*
X8499080Y-7334720D01*
X8570200Y-4196320D02*
X8600200Y-4226320D01*
X8600200Y-4196320D02*
X8570200Y-4226320D01*
X8575280Y-4059160D02*
X8605280Y-4089160D01*
X8605280Y-4059160D02*
X8575280Y-4089160D01*
X8585440Y-4764720D02*
X8615440Y-4794720D01*
X8615440Y-4764720D02*
X8585440Y-4794720D01*
X8590520Y-4840920D02*
X8620520Y-4870920D01*
X8620520Y-4840920D02*
X8590520Y-4870920D01*
X8676880Y-4800280D02*
X8706880Y-4830280D01*
X8706880Y-4800280D02*
X8676880Y-4830280D01*
X8745460Y-5753340D02*
X8775460Y-5783340D01*
X8775460Y-5753340D02*
X8745460Y-5783340D01*
X8773400Y-4800280D02*
X8803400Y-4830280D01*
X8803400Y-4800280D02*
X8773400Y-4830280D01*
X8839440Y-4957760D02*
X8869440Y-4987760D01*
X8869440Y-4957760D02*
X8839440Y-4987760D01*
X9032480Y-7899080D02*
X9062480Y-7929080D01*
X9062480Y-7899080D02*
X9032480Y-7929080D01*
X9179800Y-8762680D02*
X9209800Y-8792680D01*
X9209800Y-8762680D02*
X9179800Y-8792680D01*
X9454120Y-7315440D02*
X9484120Y-7345440D01*
X9484120Y-7315440D02*
X9454120Y-7345440D01*
X9459200Y-7741600D02*
X9489200Y-7771600D01*
X9489200Y-7741600D02*
X9459200Y-7771600D01*
X9520160Y-9057320D02*
X9550160Y-9087320D01*
X9550160Y-9057320D02*
X9520160Y-9087320D01*
X10099280Y-9067480D02*
X10129280Y-9097480D01*
X10129280Y-9067480D02*
X10099280Y-9097480D01*
X10363440Y-7594280D02*
X10393440Y-7624280D01*
X10393440Y-7594280D02*
X10363440Y-7624280D01*
X10400770Y-6356530D02*
X10430770Y-6386530D01*
X10430770Y-6356530D02*
X10400770Y-6386530D01*
X10500600Y-7741600D02*
X10530600Y-7771600D01*
X10530600Y-7741600D02*
X10500600Y-7771600D01*
X10500600Y-8767760D02*
X10530600Y-8797760D01*
X10530600Y-8767760D02*
X10500600Y-8797760D01*
X10655540Y-7314880D02*
X10685540Y-7344880D01*
X10685540Y-7314880D02*
X10655540Y-7344880D01*
X10896840Y-5171120D02*
X10926840Y-5201120D01*
X10926840Y-5171120D02*
X10896840Y-5201120D01*
X10917160Y-6629640D02*
X10947160Y-6659640D01*
X10947160Y-6629640D02*
X10917160Y-6659640D01*
X10917160Y-6710920D02*
X10947160Y-6740920D01*
X10947160Y-6710920D02*
X10917160Y-6740920D01*
X10922240Y-7153860D02*
X10952240Y-7183860D01*
X10952240Y-7153860D02*
X10922240Y-7183860D01*
X10937480Y-7436800D02*
X10967480Y-7466800D01*
X10967480Y-7436800D02*
X10937480Y-7466800D01*
X10981660Y-6938960D02*
X11011660Y-6968960D01*
X11011660Y-6938960D02*
X10981660Y-6968960D01*
X11079998Y-4992428D02*
X11109998Y-5022428D01*
X11109998Y-4992428D02*
X11079998Y-5022428D01*
X11094960Y-7634920D02*
X11124960Y-7664920D01*
X11124960Y-7634920D02*
X11094960Y-7664920D01*
X11097825Y-8240040D02*
X11127825Y-8270040D01*
X11127825Y-8240040D02*
X11097825Y-8270040D01*
X11171160Y-4312600D02*
X11201160Y-4342600D01*
X11201160Y-4312600D02*
X11171160Y-4342600D01*
X11201640Y-4724080D02*
X11231640Y-4754080D01*
X11231640Y-4724080D02*
X11201640Y-4754080D01*
X11201640Y-4805360D02*
X11231640Y-4835360D01*
X11231640Y-4805360D02*
X11201640Y-4835360D01*
X11221960Y-7132000D02*
X11251960Y-7162000D01*
X11251960Y-7132000D02*
X11221960Y-7162000D01*
X11242280Y-6629080D02*
X11272280Y-6659080D01*
X11272280Y-6629080D02*
X11242280Y-6659080D01*
X11242280Y-6730680D02*
X11272280Y-6760680D01*
X11272280Y-6730680D02*
X11242280Y-6760680D01*
X11268529Y-5167895D02*
X11298529Y-5197895D01*
X11298529Y-5167895D02*
X11268529Y-5197895D01*
X11345080Y-5191133D02*
X11375080Y-5221133D01*
X11375080Y-5191133D02*
X11345080Y-5221133D01*
X11348960Y-4114480D02*
X11378960Y-4144480D01*
X11378960Y-4114480D02*
X11348960Y-4144480D01*
X11373640Y-8244520D02*
X11403640Y-8274520D01*
X11403640Y-8244520D02*
X11373640Y-8274520D01*
X11374360Y-4942520D02*
X11404360Y-4972520D01*
X11404360Y-4942520D02*
X11374360Y-4972520D01*
X11379440Y-4358320D02*
X11409440Y-4388320D01*
X11409440Y-4358320D02*
X11379440Y-4388320D01*
X11454360Y-4942520D02*
X11484360Y-4972520D01*
X11484360Y-4942520D02*
X11454360Y-4972520D01*
X11479500Y-4509939D02*
X11509500Y-4539939D01*
X11509500Y-4509939D02*
X11479500Y-4539939D01*
X11516600Y-4805360D02*
X11546600Y-4835360D01*
X11546600Y-4805360D02*
X11516600Y-4835360D01*
X11549620Y-7061440D02*
X11579620Y-7091440D01*
X11579620Y-7061440D02*
X11549620Y-7091440D01*
X11562320Y-4724080D02*
X11592320Y-4754080D01*
X11592320Y-4724080D02*
X11562320Y-4754080D01*
X11724880Y-5227000D02*
X11754880Y-5257000D01*
X11754880Y-5227000D02*
X11724880Y-5257000D01*
X11724880Y-6583820D02*
X11754880Y-6613820D01*
X11754880Y-6583820D02*
X11724880Y-6613820D01*
X11729960Y-6044880D02*
X11759960Y-6074880D01*
X11759960Y-6044880D02*
X11729960Y-6074880D01*
X11729960Y-7822880D02*
X11759960Y-7852880D01*
X11759960Y-7822880D02*
X11729960Y-7852880D01*
X8185400Y-5828200D02*
G75*
G02*
X8085400Y-5828200I-50000J0D01*
G01*
X8085400Y-5828200D02*
G75*
G02*
X8185400Y-5828200I50000J0D01*
G01*
X8185400Y-6078200D02*
G75*
G02*
X8085400Y-6078200I-50000J0D01*
G01*
X8085400Y-6078200D02*
G75*
G02*
X8185400Y-6078200I50000J0D01*
G01*
D13*
X9093200Y-3794000D02*
X9093200Y-3896000D01*
X9042200Y-3845000D02*
X9144200Y-3845000D01*
X9093200Y-4048000D02*
X9093200Y-4150000D01*
X9042200Y-4099000D02*
X9144200Y-4099000D01*
X9093200Y-4302000D02*
X9093200Y-4404000D01*
X9042200Y-4353000D02*
X9144200Y-4353000D01*
X9093200Y-4556000D02*
X9093200Y-4658000D01*
X9042200Y-4607000D02*
X9144200Y-4607000D01*
X9093200Y-4810000D02*
X9093200Y-4912000D01*
X9042200Y-4861000D02*
X9144200Y-4861000D01*
X9093200Y-5064000D02*
X9093200Y-5166000D01*
X9042200Y-5115000D02*
X9144200Y-5115000D01*
X9093200Y-5318000D02*
X9093200Y-5420000D01*
X9042200Y-5369000D02*
X9144200Y-5369000D01*
X9093200Y-5572000D02*
X9093200Y-5674000D01*
X9042200Y-5623000D02*
X9144200Y-5623000D01*
X9093200Y-5826000D02*
X9093200Y-5928000D01*
X9042200Y-5877000D02*
X9144200Y-5877000D01*
X9093200Y-6080000D02*
X9093200Y-6182000D01*
X9042200Y-6131000D02*
X9144200Y-6131000D01*
X9093200Y-6334000D02*
X9093200Y-6436000D01*
X9042200Y-6385000D02*
X9144200Y-6385000D01*
X9093200Y-6588000D02*
X9093200Y-6690000D01*
X9042200Y-6639000D02*
X9144200Y-6639000D01*
X9093200Y-6842000D02*
X9093200Y-6944000D01*
X9042200Y-6893000D02*
X9144200Y-6893000D01*
X9093200Y-7096000D02*
X9093200Y-7198000D01*
X9042200Y-7147000D02*
X9144200Y-7147000D01*
X9347200Y-7096000D02*
X9347200Y-7198000D01*
X9296200Y-7147000D02*
X9398200Y-7147000D01*
X9601200Y-7096000D02*
X9601200Y-7198000D01*
X9550200Y-7147000D02*
X9652200Y-7147000D01*
X9855200Y-7096000D02*
X9855200Y-7198000D01*
X9804200Y-7147000D02*
X9906200Y-7147000D01*
X10109200Y-7096000D02*
X10109200Y-7198000D01*
X10058200Y-7147000D02*
X10160200Y-7147000D01*
X10363200Y-7096000D02*
X10363200Y-7198000D01*
X10312200Y-7147000D02*
X10414200Y-7147000D01*
X10617200Y-3794000D02*
X10617200Y-3896000D01*
X10566200Y-3845000D02*
X10668200Y-3845000D01*
X10617200Y-4048000D02*
X10617200Y-4150000D01*
X10566200Y-4099000D02*
X10668200Y-4099000D01*
X10617200Y-4302000D02*
X10617200Y-4404000D01*
X10566200Y-4353000D02*
X10668200Y-4353000D01*
X10617200Y-4556000D02*
X10617200Y-4658000D01*
X10566200Y-4607000D02*
X10668200Y-4607000D01*
X10617200Y-4810000D02*
X10617200Y-4912000D01*
X10566200Y-4861000D02*
X10668200Y-4861000D01*
X10617200Y-5064000D02*
X10617200Y-5166000D01*
X10566200Y-5115000D02*
X10668200Y-5115000D01*
X10617200Y-5318000D02*
X10617200Y-5420000D01*
X10566200Y-5369000D02*
X10668200Y-5369000D01*
X10617200Y-5572000D02*
X10617200Y-5674000D01*
X10566200Y-5623000D02*
X10668200Y-5623000D01*
X10617200Y-5826000D02*
X10617200Y-5928000D01*
X10566200Y-5877000D02*
X10668200Y-5877000D01*
X10617200Y-6080000D02*
X10617200Y-6182000D01*
X10566200Y-6131000D02*
X10668200Y-6131000D01*
X10617200Y-6334000D02*
X10617200Y-6436000D01*
X10566200Y-6385000D02*
X10668200Y-6385000D01*
X10617200Y-6588000D02*
X10617200Y-6690000D01*
X10566200Y-6639000D02*
X10668200Y-6639000D01*
X10617200Y-6842000D02*
X10617200Y-6944000D01*
X10566200Y-6893000D02*
X10668200Y-6893000D01*
X10617200Y-7096000D02*
X10617200Y-7198000D01*
X10566200Y-7147000D02*
X10668200Y-7147000D01*
D11*
X7583637Y-9732713D02*
X7583637Y-9532713D01*
X7583637Y-9532713D02*
X7631256Y-9532713D01*
X7631256Y-9532713D02*
X7659827Y-9542237D01*
X7659827Y-9542237D02*
X7678875Y-9561284D01*
X7678875Y-9561284D02*
X7688399Y-9580332D01*
X7688399Y-9580332D02*
X7697922Y-9618427D01*
X7697922Y-9618427D02*
X7697922Y-9646999D01*
X7697922Y-9646999D02*
X7688399Y-9685094D01*
X7688399Y-9685094D02*
X7678875Y-9704142D01*
X7678875Y-9704142D02*
X7659827Y-9723189D01*
X7659827Y-9723189D02*
X7631256Y-9732713D01*
X7631256Y-9732713D02*
X7583637Y-9732713D01*
X7783637Y-9732713D02*
X7783637Y-9599380D01*
X7783637Y-9637475D02*
X7793161Y-9618427D01*
X7793161Y-9618427D02*
X7802684Y-9608903D01*
X7802684Y-9608903D02*
X7821732Y-9599380D01*
X7821732Y-9599380D02*
X7840780Y-9599380D01*
X7907446Y-9732713D02*
X7907446Y-9599380D01*
X7907446Y-9532713D02*
X7897922Y-9542237D01*
X7897922Y-9542237D02*
X7907446Y-9551761D01*
X7907446Y-9551761D02*
X7916970Y-9542237D01*
X7916970Y-9542237D02*
X7907446Y-9532713D01*
X7907446Y-9532713D02*
X7907446Y-9551761D01*
X8031256Y-9732713D02*
X8012208Y-9723189D01*
X8012208Y-9723189D02*
X8002684Y-9704142D01*
X8002684Y-9704142D02*
X8002684Y-9532713D01*
X8136018Y-9732713D02*
X8116970Y-9723189D01*
X8116970Y-9723189D02*
X8107446Y-9704142D01*
X8107446Y-9704142D02*
X8107446Y-9532713D01*
X8364589Y-9732713D02*
X8364589Y-9532713D01*
X8364589Y-9532713D02*
X8431256Y-9675570D01*
X8431256Y-9675570D02*
X8497923Y-9532713D01*
X8497923Y-9532713D02*
X8497923Y-9732713D01*
X8678875Y-9732713D02*
X8678875Y-9627951D01*
X8678875Y-9627951D02*
X8669351Y-9608903D01*
X8669351Y-9608903D02*
X8650304Y-9599380D01*
X8650304Y-9599380D02*
X8612208Y-9599380D01*
X8612208Y-9599380D02*
X8593161Y-9608903D01*
X8678875Y-9723189D02*
X8659827Y-9732713D01*
X8659827Y-9732713D02*
X8612208Y-9732713D01*
X8612208Y-9732713D02*
X8593161Y-9723189D01*
X8593161Y-9723189D02*
X8583637Y-9704142D01*
X8583637Y-9704142D02*
X8583637Y-9685094D01*
X8583637Y-9685094D02*
X8593161Y-9666046D01*
X8593161Y-9666046D02*
X8612208Y-9656523D01*
X8612208Y-9656523D02*
X8659827Y-9656523D01*
X8659827Y-9656523D02*
X8678875Y-9646999D01*
X8774113Y-9599380D02*
X8774113Y-9799380D01*
X8774113Y-9608903D02*
X8793161Y-9599380D01*
X8793161Y-9599380D02*
X8831256Y-9599380D01*
X8831256Y-9599380D02*
X8850304Y-9608903D01*
X8850304Y-9608903D02*
X8859827Y-9618427D01*
X8859827Y-9618427D02*
X8869351Y-9637475D01*
X8869351Y-9637475D02*
X8869351Y-9694618D01*
X8869351Y-9694618D02*
X8859827Y-9713665D01*
X8859827Y-9713665D02*
X8850304Y-9723189D01*
X8850304Y-9723189D02*
X8831256Y-9732713D01*
X8831256Y-9732713D02*
X8793161Y-9732713D01*
X8793161Y-9732713D02*
X8774113Y-9723189D01*
X8955065Y-9713665D02*
X8964589Y-9723189D01*
X8964589Y-9723189D02*
X8955065Y-9732713D01*
X8955065Y-9732713D02*
X8945542Y-9723189D01*
X8945542Y-9723189D02*
X8955065Y-9713665D01*
X8955065Y-9713665D02*
X8955065Y-9732713D01*
X8955065Y-9608903D02*
X8964589Y-9618427D01*
X8964589Y-9618427D02*
X8955065Y-9627951D01*
X8955065Y-9627951D02*
X8945542Y-9618427D01*
X8945542Y-9618427D02*
X8955065Y-9608903D01*
X8955065Y-9608903D02*
X8955065Y-9627951D01*
D12*
X7292860Y-10046229D02*
X7322860Y-10076229D01*
X7322860Y-10046229D02*
X7292860Y-10076229D01*
D11*
X7621732Y-9952713D02*
X7640780Y-9952713D01*
X7640780Y-9952713D02*
X7659827Y-9962237D01*
X7659827Y-9962237D02*
X7669351Y-9971761D01*
X7669351Y-9971761D02*
X7678875Y-9990808D01*
X7678875Y-9990808D02*
X7688399Y-10028903D01*
X7688399Y-10028903D02*
X7688399Y-10076523D01*
X7688399Y-10076523D02*
X7678875Y-10114618D01*
X7678875Y-10114618D02*
X7669351Y-10133665D01*
X7669351Y-10133665D02*
X7659827Y-10143189D01*
X7659827Y-10143189D02*
X7640780Y-10152713D01*
X7640780Y-10152713D02*
X7621732Y-10152713D01*
X7621732Y-10152713D02*
X7602684Y-10143189D01*
X7602684Y-10143189D02*
X7593161Y-10133665D01*
X7593161Y-10133665D02*
X7583637Y-10114618D01*
X7583637Y-10114618D02*
X7574113Y-10076523D01*
X7574113Y-10076523D02*
X7574113Y-10028903D01*
X7574113Y-10028903D02*
X7583637Y-9990808D01*
X7583637Y-9990808D02*
X7593161Y-9971761D01*
X7593161Y-9971761D02*
X7602684Y-9962237D01*
X7602684Y-9962237D02*
X7621732Y-9952713D01*
X7774113Y-10133665D02*
X7783637Y-10143189D01*
X7783637Y-10143189D02*
X7774113Y-10152713D01*
X7774113Y-10152713D02*
X7764589Y-10143189D01*
X7764589Y-10143189D02*
X7774113Y-10133665D01*
X7774113Y-10133665D02*
X7774113Y-10152713D01*
X7850303Y-9952713D02*
X7974113Y-9952713D01*
X7974113Y-9952713D02*
X7907446Y-10028903D01*
X7907446Y-10028903D02*
X7936018Y-10028903D01*
X7936018Y-10028903D02*
X7955065Y-10038427D01*
X7955065Y-10038427D02*
X7964589Y-10047951D01*
X7964589Y-10047951D02*
X7974113Y-10066999D01*
X7974113Y-10066999D02*
X7974113Y-10114618D01*
X7974113Y-10114618D02*
X7964589Y-10133665D01*
X7964589Y-10133665D02*
X7955065Y-10143189D01*
X7955065Y-10143189D02*
X7936018Y-10152713D01*
X7936018Y-10152713D02*
X7878875Y-10152713D01*
X7878875Y-10152713D02*
X7859827Y-10143189D01*
X7859827Y-10143189D02*
X7850303Y-10133665D01*
X8097922Y-9952713D02*
X8116970Y-9952713D01*
X8116970Y-9952713D02*
X8136018Y-9962237D01*
X8136018Y-9962237D02*
X8145542Y-9971761D01*
X8145542Y-9971761D02*
X8155065Y-9990808D01*
X8155065Y-9990808D02*
X8164589Y-10028903D01*
X8164589Y-10028903D02*
X8164589Y-10076523D01*
X8164589Y-10076523D02*
X8155065Y-10114618D01*
X8155065Y-10114618D02*
X8145542Y-10133665D01*
X8145542Y-10133665D02*
X8136018Y-10143189D01*
X8136018Y-10143189D02*
X8116970Y-10152713D01*
X8116970Y-10152713D02*
X8097922Y-10152713D01*
X8097922Y-10152713D02*
X8078875Y-10143189D01*
X8078875Y-10143189D02*
X8069351Y-10133665D01*
X8069351Y-10133665D02*
X8059827Y-10114618D01*
X8059827Y-10114618D02*
X8050303Y-10076523D01*
X8050303Y-10076523D02*
X8050303Y-10028903D01*
X8050303Y-10028903D02*
X8059827Y-9990808D01*
X8059827Y-9990808D02*
X8069351Y-9971761D01*
X8069351Y-9971761D02*
X8078875Y-9962237D01*
X8078875Y-9962237D02*
X8097922Y-9952713D01*
X8288399Y-9952713D02*
X8307446Y-9952713D01*
X8307446Y-9952713D02*
X8326494Y-9962237D01*
X8326494Y-9962237D02*
X8336018Y-9971761D01*
X8336018Y-9971761D02*
X8345542Y-9990808D01*
X8345542Y-9990808D02*
X8355065Y-10028903D01*
X8355065Y-10028903D02*
X8355065Y-10076523D01*
X8355065Y-10076523D02*
X8345542Y-10114618D01*
X8345542Y-10114618D02*
X8336018Y-10133665D01*
X8336018Y-10133665D02*
X8326494Y-10143189D01*
X8326494Y-10143189D02*
X8307446Y-10152713D01*
X8307446Y-10152713D02*
X8288399Y-10152713D01*
X8288399Y-10152713D02*
X8269351Y-10143189D01*
X8269351Y-10143189D02*
X8259827Y-10133665D01*
X8259827Y-10133665D02*
X8250303Y-10114618D01*
X8250303Y-10114618D02*
X8240780Y-10076523D01*
X8240780Y-10076523D02*
X8240780Y-10028903D01*
X8240780Y-10028903D02*
X8250303Y-9990808D01*
X8250303Y-9990808D02*
X8259827Y-9971761D01*
X8259827Y-9971761D02*
X8269351Y-9962237D01*
X8269351Y-9962237D02*
X8288399Y-9952713D01*
X8440780Y-10152713D02*
X8440780Y-10019380D01*
X8440780Y-10038427D02*
X8450304Y-10028903D01*
X8450304Y-10028903D02*
X8469351Y-10019380D01*
X8469351Y-10019380D02*
X8497923Y-10019380D01*
X8497923Y-10019380D02*
X8516970Y-10028903D01*
X8516970Y-10028903D02*
X8526494Y-10047951D01*
X8526494Y-10047951D02*
X8526494Y-10152713D01*
X8526494Y-10047951D02*
X8536018Y-10028903D01*
X8536018Y-10028903D02*
X8555065Y-10019380D01*
X8555065Y-10019380D02*
X8583637Y-10019380D01*
X8583637Y-10019380D02*
X8602685Y-10028903D01*
X8602685Y-10028903D02*
X8612208Y-10047951D01*
X8612208Y-10047951D02*
X8612208Y-10152713D01*
X8707446Y-10152713D02*
X8707446Y-10019380D01*
X8707446Y-10038427D02*
X8716970Y-10028903D01*
X8716970Y-10028903D02*
X8736018Y-10019380D01*
X8736018Y-10019380D02*
X8764589Y-10019380D01*
X8764589Y-10019380D02*
X8783637Y-10028903D01*
X8783637Y-10028903D02*
X8793161Y-10047951D01*
X8793161Y-10047951D02*
X8793161Y-10152713D01*
X8793161Y-10047951D02*
X8802685Y-10028903D01*
X8802685Y-10028903D02*
X8821732Y-10019380D01*
X8821732Y-10019380D02*
X8850304Y-10019380D01*
X8850304Y-10019380D02*
X8869351Y-10028903D01*
X8869351Y-10028903D02*
X8878875Y-10047951D01*
X8878875Y-10047951D02*
X8878875Y-10152713D01*
X9269351Y-9943189D02*
X9097923Y-10200332D01*
X9526494Y-9952713D02*
X9545542Y-9952713D01*
X9545542Y-9952713D02*
X9564589Y-9962237D01*
X9564589Y-9962237D02*
X9574113Y-9971761D01*
X9574113Y-9971761D02*
X9583637Y-9990808D01*
X9583637Y-9990808D02*
X9593161Y-10028903D01*
X9593161Y-10028903D02*
X9593161Y-10076523D01*
X9593161Y-10076523D02*
X9583637Y-10114618D01*
X9583637Y-10114618D02*
X9574113Y-10133665D01*
X9574113Y-10133665D02*
X9564589Y-10143189D01*
X9564589Y-10143189D02*
X9545542Y-10152713D01*
X9545542Y-10152713D02*
X9526494Y-10152713D01*
X9526494Y-10152713D02*
X9507447Y-10143189D01*
X9507447Y-10143189D02*
X9497923Y-10133665D01*
X9497923Y-10133665D02*
X9488399Y-10114618D01*
X9488399Y-10114618D02*
X9478875Y-10076523D01*
X9478875Y-10076523D02*
X9478875Y-10028903D01*
X9478875Y-10028903D02*
X9488399Y-9990808D01*
X9488399Y-9990808D02*
X9497923Y-9971761D01*
X9497923Y-9971761D02*
X9507447Y-9962237D01*
X9507447Y-9962237D02*
X9526494Y-9952713D01*
X9678875Y-10133665D02*
X9688399Y-10143189D01*
X9688399Y-10143189D02*
X9678875Y-10152713D01*
X9678875Y-10152713D02*
X9669351Y-10143189D01*
X9669351Y-10143189D02*
X9678875Y-10133665D01*
X9678875Y-10133665D02*
X9678875Y-10152713D01*
X9812208Y-9952713D02*
X9831256Y-9952713D01*
X9831256Y-9952713D02*
X9850304Y-9962237D01*
X9850304Y-9962237D02*
X9859828Y-9971761D01*
X9859828Y-9971761D02*
X9869351Y-9990808D01*
X9869351Y-9990808D02*
X9878875Y-10028903D01*
X9878875Y-10028903D02*
X9878875Y-10076523D01*
X9878875Y-10076523D02*
X9869351Y-10114618D01*
X9869351Y-10114618D02*
X9859828Y-10133665D01*
X9859828Y-10133665D02*
X9850304Y-10143189D01*
X9850304Y-10143189D02*
X9831256Y-10152713D01*
X9831256Y-10152713D02*
X9812208Y-10152713D01*
X9812208Y-10152713D02*
X9793161Y-10143189D01*
X9793161Y-10143189D02*
X9783637Y-10133665D01*
X9783637Y-10133665D02*
X9774113Y-10114618D01*
X9774113Y-10114618D02*
X9764589Y-10076523D01*
X9764589Y-10076523D02*
X9764589Y-10028903D01*
X9764589Y-10028903D02*
X9774113Y-9990808D01*
X9774113Y-9990808D02*
X9783637Y-9971761D01*
X9783637Y-9971761D02*
X9793161Y-9962237D01*
X9793161Y-9962237D02*
X9812208Y-9952713D01*
X10069351Y-10152713D02*
X9955066Y-10152713D01*
X10012208Y-10152713D02*
X10012208Y-9952713D01*
X10012208Y-9952713D02*
X9993161Y-9981284D01*
X9993161Y-9981284D02*
X9974113Y-10000332D01*
X9974113Y-10000332D02*
X9955066Y-10009856D01*
X10259828Y-10152713D02*
X10145542Y-10152713D01*
X10202685Y-10152713D02*
X10202685Y-9952713D01*
X10202685Y-9952713D02*
X10183637Y-9981284D01*
X10183637Y-9981284D02*
X10164589Y-10000332D01*
X10164589Y-10000332D02*
X10145542Y-10009856D01*
X10374113Y-10038427D02*
X10355066Y-10028903D01*
X10355066Y-10028903D02*
X10345542Y-10019380D01*
X10345542Y-10019380D02*
X10336018Y-10000332D01*
X10336018Y-10000332D02*
X10336018Y-9990808D01*
X10336018Y-9990808D02*
X10345542Y-9971761D01*
X10345542Y-9971761D02*
X10355066Y-9962237D01*
X10355066Y-9962237D02*
X10374113Y-9952713D01*
X10374113Y-9952713D02*
X10412209Y-9952713D01*
X10412209Y-9952713D02*
X10431256Y-9962237D01*
X10431256Y-9962237D02*
X10440780Y-9971761D01*
X10440780Y-9971761D02*
X10450304Y-9990808D01*
X10450304Y-9990808D02*
X10450304Y-10000332D01*
X10450304Y-10000332D02*
X10440780Y-10019380D01*
X10440780Y-10019380D02*
X10431256Y-10028903D01*
X10431256Y-10028903D02*
X10412209Y-10038427D01*
X10412209Y-10038427D02*
X10374113Y-10038427D01*
X10374113Y-10038427D02*
X10355066Y-10047951D01*
X10355066Y-10047951D02*
X10345542Y-10057475D01*
X10345542Y-10057475D02*
X10336018Y-10076523D01*
X10336018Y-10076523D02*
X10336018Y-10114618D01*
X10336018Y-10114618D02*
X10345542Y-10133665D01*
X10345542Y-10133665D02*
X10355066Y-10143189D01*
X10355066Y-10143189D02*
X10374113Y-10152713D01*
X10374113Y-10152713D02*
X10412209Y-10152713D01*
X10412209Y-10152713D02*
X10431256Y-10143189D01*
X10431256Y-10143189D02*
X10440780Y-10133665D01*
X10440780Y-10133665D02*
X10450304Y-10114618D01*
X10450304Y-10114618D02*
X10450304Y-10076523D01*
X10450304Y-10076523D02*
X10440780Y-10057475D01*
X10440780Y-10057475D02*
X10431256Y-10047951D01*
X10431256Y-10047951D02*
X10412209Y-10038427D01*
X10526494Y-9952713D02*
X10526494Y-9990808D01*
X10602685Y-9952713D02*
X10602685Y-9990808D01*
X10897923Y-10228903D02*
X10888399Y-10219380D01*
X10888399Y-10219380D02*
X10869351Y-10190808D01*
X10869351Y-10190808D02*
X10859828Y-10171761D01*
X10859828Y-10171761D02*
X10850304Y-10143189D01*
X10850304Y-10143189D02*
X10840780Y-10095570D01*
X10840780Y-10095570D02*
X10840780Y-10057475D01*
X10840780Y-10057475D02*
X10850304Y-10009856D01*
X10850304Y-10009856D02*
X10859828Y-9981284D01*
X10859828Y-9981284D02*
X10869351Y-9962237D01*
X10869351Y-9962237D02*
X10888399Y-9933665D01*
X10888399Y-9933665D02*
X10897923Y-9924142D01*
X11069351Y-9952713D02*
X10974113Y-9952713D01*
X10974113Y-9952713D02*
X10964590Y-10047951D01*
X10964590Y-10047951D02*
X10974113Y-10038427D01*
X10974113Y-10038427D02*
X10993161Y-10028903D01*
X10993161Y-10028903D02*
X11040780Y-10028903D01*
X11040780Y-10028903D02*
X11059828Y-10038427D01*
X11059828Y-10038427D02*
X11069351Y-10047951D01*
X11069351Y-10047951D02*
X11078875Y-10066999D01*
X11078875Y-10066999D02*
X11078875Y-10114618D01*
X11078875Y-10114618D02*
X11069351Y-10133665D01*
X11069351Y-10133665D02*
X11059828Y-10143189D01*
X11059828Y-10143189D02*
X11040780Y-10152713D01*
X11040780Y-10152713D02*
X10993161Y-10152713D01*
X10993161Y-10152713D02*
X10974113Y-10143189D01*
X10974113Y-10143189D02*
X10964590Y-10133665D01*
X11145542Y-9952713D02*
X11278875Y-9952713D01*
X11278875Y-9952713D02*
X11193161Y-10152713D01*
X11507447Y-10152713D02*
X11507447Y-9952713D01*
X11593161Y-10152713D02*
X11593161Y-10047951D01*
X11593161Y-10047951D02*
X11583637Y-10028903D01*
X11583637Y-10028903D02*
X11564590Y-10019380D01*
X11564590Y-10019380D02*
X11536018Y-10019380D01*
X11536018Y-10019380D02*
X11516970Y-10028903D01*
X11516970Y-10028903D02*
X11507447Y-10038427D01*
X11716970Y-10152713D02*
X11697923Y-10143189D01*
X11697923Y-10143189D02*
X11688399Y-10133665D01*
X11688399Y-10133665D02*
X11678875Y-10114618D01*
X11678875Y-10114618D02*
X11678875Y-10057475D01*
X11678875Y-10057475D02*
X11688399Y-10038427D01*
X11688399Y-10038427D02*
X11697923Y-10028903D01*
X11697923Y-10028903D02*
X11716970Y-10019380D01*
X11716970Y-10019380D02*
X11745542Y-10019380D01*
X11745542Y-10019380D02*
X11764590Y-10028903D01*
X11764590Y-10028903D02*
X11774113Y-10038427D01*
X11774113Y-10038427D02*
X11783637Y-10057475D01*
X11783637Y-10057475D02*
X11783637Y-10114618D01*
X11783637Y-10114618D02*
X11774113Y-10133665D01*
X11774113Y-10133665D02*
X11764590Y-10143189D01*
X11764590Y-10143189D02*
X11745542Y-10152713D01*
X11745542Y-10152713D02*
X11716970Y-10152713D01*
X11897923Y-10152713D02*
X11878875Y-10143189D01*
X11878875Y-10143189D02*
X11869351Y-10124142D01*
X11869351Y-10124142D02*
X11869351Y-9952713D01*
X12050304Y-10143189D02*
X12031256Y-10152713D01*
X12031256Y-10152713D02*
X11993161Y-10152713D01*
X11993161Y-10152713D02*
X11974113Y-10143189D01*
X11974113Y-10143189D02*
X11964590Y-10124142D01*
X11964590Y-10124142D02*
X11964590Y-10047951D01*
X11964590Y-10047951D02*
X11974113Y-10028903D01*
X11974113Y-10028903D02*
X11993161Y-10019380D01*
X11993161Y-10019380D02*
X12031256Y-10019380D01*
X12031256Y-10019380D02*
X12050304Y-10028903D01*
X12050304Y-10028903D02*
X12059828Y-10047951D01*
X12059828Y-10047951D02*
X12059828Y-10066999D01*
X12059828Y-10066999D02*
X11964590Y-10086046D01*
X12136018Y-10143189D02*
X12155066Y-10152713D01*
X12155066Y-10152713D02*
X12193161Y-10152713D01*
X12193161Y-10152713D02*
X12212209Y-10143189D01*
X12212209Y-10143189D02*
X12221732Y-10124142D01*
X12221732Y-10124142D02*
X12221732Y-10114618D01*
X12221732Y-10114618D02*
X12212209Y-10095570D01*
X12212209Y-10095570D02*
X12193161Y-10086046D01*
X12193161Y-10086046D02*
X12164590Y-10086046D01*
X12164590Y-10086046D02*
X12145542Y-10076523D01*
X12145542Y-10076523D02*
X12136018Y-10057475D01*
X12136018Y-10057475D02*
X12136018Y-10047951D01*
X12136018Y-10047951D02*
X12145542Y-10028903D01*
X12145542Y-10028903D02*
X12164590Y-10019380D01*
X12164590Y-10019380D02*
X12193161Y-10019380D01*
X12193161Y-10019380D02*
X12212209Y-10028903D01*
X12288399Y-10228903D02*
X12297923Y-10219380D01*
X12297923Y-10219380D02*
X12316971Y-10190808D01*
X12316971Y-10190808D02*
X12326494Y-10171761D01*
X12326494Y-10171761D02*
X12336018Y-10143189D01*
X12336018Y-10143189D02*
X12345542Y-10095570D01*
X12345542Y-10095570D02*
X12345542Y-10057475D01*
X12345542Y-10057475D02*
X12336018Y-10009856D01*
X12336018Y-10009856D02*
X12326494Y-9981284D01*
X12326494Y-9981284D02*
X12316971Y-9962237D01*
X12316971Y-9962237D02*
X12297923Y-9933665D01*
X12297923Y-9933665D02*
X12288399Y-9924142D01*
D12*
X7322860Y-10325229D02*
G75*
G02*
X7222860Y-10325229I-50000J0D01*
G01*
X7222860Y-10325229D02*
G75*
G02*
X7322860Y-10325229I50000J0D01*
G01*
D11*
X7688399Y-10416713D02*
X7574113Y-10416713D01*
X7631256Y-10416713D02*
X7631256Y-10216713D01*
X7631256Y-10216713D02*
X7612208Y-10245284D01*
X7612208Y-10245284D02*
X7593161Y-10264332D01*
X7593161Y-10264332D02*
X7574113Y-10273856D01*
X7774113Y-10397665D02*
X7783637Y-10407189D01*
X7783637Y-10407189D02*
X7774113Y-10416713D01*
X7774113Y-10416713D02*
X7764589Y-10407189D01*
X7764589Y-10407189D02*
X7774113Y-10397665D01*
X7774113Y-10397665D02*
X7774113Y-10416713D01*
X7907446Y-10216713D02*
X7926494Y-10216713D01*
X7926494Y-10216713D02*
X7945542Y-10226237D01*
X7945542Y-10226237D02*
X7955065Y-10235761D01*
X7955065Y-10235761D02*
X7964589Y-10254808D01*
X7964589Y-10254808D02*
X7974113Y-10292903D01*
X7974113Y-10292903D02*
X7974113Y-10340523D01*
X7974113Y-10340523D02*
X7964589Y-10378618D01*
X7964589Y-10378618D02*
X7955065Y-10397665D01*
X7955065Y-10397665D02*
X7945542Y-10407189D01*
X7945542Y-10407189D02*
X7926494Y-10416713D01*
X7926494Y-10416713D02*
X7907446Y-10416713D01*
X7907446Y-10416713D02*
X7888399Y-10407189D01*
X7888399Y-10407189D02*
X7878875Y-10397665D01*
X7878875Y-10397665D02*
X7869351Y-10378618D01*
X7869351Y-10378618D02*
X7859827Y-10340523D01*
X7859827Y-10340523D02*
X7859827Y-10292903D01*
X7859827Y-10292903D02*
X7869351Y-10254808D01*
X7869351Y-10254808D02*
X7878875Y-10235761D01*
X7878875Y-10235761D02*
X7888399Y-10226237D01*
X7888399Y-10226237D02*
X7907446Y-10216713D01*
X8097922Y-10216713D02*
X8116970Y-10216713D01*
X8116970Y-10216713D02*
X8136018Y-10226237D01*
X8136018Y-10226237D02*
X8145542Y-10235761D01*
X8145542Y-10235761D02*
X8155065Y-10254808D01*
X8155065Y-10254808D02*
X8164589Y-10292903D01*
X8164589Y-10292903D02*
X8164589Y-10340523D01*
X8164589Y-10340523D02*
X8155065Y-10378618D01*
X8155065Y-10378618D02*
X8145542Y-10397665D01*
X8145542Y-10397665D02*
X8136018Y-10407189D01*
X8136018Y-10407189D02*
X8116970Y-10416713D01*
X8116970Y-10416713D02*
X8097922Y-10416713D01*
X8097922Y-10416713D02*
X8078875Y-10407189D01*
X8078875Y-10407189D02*
X8069351Y-10397665D01*
X8069351Y-10397665D02*
X8059827Y-10378618D01*
X8059827Y-10378618D02*
X8050303Y-10340523D01*
X8050303Y-10340523D02*
X8050303Y-10292903D01*
X8050303Y-10292903D02*
X8059827Y-10254808D01*
X8059827Y-10254808D02*
X8069351Y-10235761D01*
X8069351Y-10235761D02*
X8078875Y-10226237D01*
X8078875Y-10226237D02*
X8097922Y-10216713D01*
X8288399Y-10216713D02*
X8307446Y-10216713D01*
X8307446Y-10216713D02*
X8326494Y-10226237D01*
X8326494Y-10226237D02*
X8336018Y-10235761D01*
X8336018Y-10235761D02*
X8345542Y-10254808D01*
X8345542Y-10254808D02*
X8355065Y-10292903D01*
X8355065Y-10292903D02*
X8355065Y-10340523D01*
X8355065Y-10340523D02*
X8345542Y-10378618D01*
X8345542Y-10378618D02*
X8336018Y-10397665D01*
X8336018Y-10397665D02*
X8326494Y-10407189D01*
X8326494Y-10407189D02*
X8307446Y-10416713D01*
X8307446Y-10416713D02*
X8288399Y-10416713D01*
X8288399Y-10416713D02*
X8269351Y-10407189D01*
X8269351Y-10407189D02*
X8259827Y-10397665D01*
X8259827Y-10397665D02*
X8250303Y-10378618D01*
X8250303Y-10378618D02*
X8240780Y-10340523D01*
X8240780Y-10340523D02*
X8240780Y-10292903D01*
X8240780Y-10292903D02*
X8250303Y-10254808D01*
X8250303Y-10254808D02*
X8259827Y-10235761D01*
X8259827Y-10235761D02*
X8269351Y-10226237D01*
X8269351Y-10226237D02*
X8288399Y-10216713D01*
X8440780Y-10416713D02*
X8440780Y-10283380D01*
X8440780Y-10302427D02*
X8450304Y-10292903D01*
X8450304Y-10292903D02*
X8469351Y-10283380D01*
X8469351Y-10283380D02*
X8497923Y-10283380D01*
X8497923Y-10283380D02*
X8516970Y-10292903D01*
X8516970Y-10292903D02*
X8526494Y-10311951D01*
X8526494Y-10311951D02*
X8526494Y-10416713D01*
X8526494Y-10311951D02*
X8536018Y-10292903D01*
X8536018Y-10292903D02*
X8555065Y-10283380D01*
X8555065Y-10283380D02*
X8583637Y-10283380D01*
X8583637Y-10283380D02*
X8602685Y-10292903D01*
X8602685Y-10292903D02*
X8612208Y-10311951D01*
X8612208Y-10311951D02*
X8612208Y-10416713D01*
X8707446Y-10416713D02*
X8707446Y-10283380D01*
X8707446Y-10302427D02*
X8716970Y-10292903D01*
X8716970Y-10292903D02*
X8736018Y-10283380D01*
X8736018Y-10283380D02*
X8764589Y-10283380D01*
X8764589Y-10283380D02*
X8783637Y-10292903D01*
X8783637Y-10292903D02*
X8793161Y-10311951D01*
X8793161Y-10311951D02*
X8793161Y-10416713D01*
X8793161Y-10311951D02*
X8802685Y-10292903D01*
X8802685Y-10292903D02*
X8821732Y-10283380D01*
X8821732Y-10283380D02*
X8850304Y-10283380D01*
X8850304Y-10283380D02*
X8869351Y-10292903D01*
X8869351Y-10292903D02*
X8878875Y-10311951D01*
X8878875Y-10311951D02*
X8878875Y-10416713D01*
X9269351Y-10207189D02*
X9097923Y-10464332D01*
X9526494Y-10216713D02*
X9545542Y-10216713D01*
X9545542Y-10216713D02*
X9564589Y-10226237D01*
X9564589Y-10226237D02*
X9574113Y-10235761D01*
X9574113Y-10235761D02*
X9583637Y-10254808D01*
X9583637Y-10254808D02*
X9593161Y-10292903D01*
X9593161Y-10292903D02*
X9593161Y-10340523D01*
X9593161Y-10340523D02*
X9583637Y-10378618D01*
X9583637Y-10378618D02*
X9574113Y-10397665D01*
X9574113Y-10397665D02*
X9564589Y-10407189D01*
X9564589Y-10407189D02*
X9545542Y-10416713D01*
X9545542Y-10416713D02*
X9526494Y-10416713D01*
X9526494Y-10416713D02*
X9507447Y-10407189D01*
X9507447Y-10407189D02*
X9497923Y-10397665D01*
X9497923Y-10397665D02*
X9488399Y-10378618D01*
X9488399Y-10378618D02*
X9478875Y-10340523D01*
X9478875Y-10340523D02*
X9478875Y-10292903D01*
X9478875Y-10292903D02*
X9488399Y-10254808D01*
X9488399Y-10254808D02*
X9497923Y-10235761D01*
X9497923Y-10235761D02*
X9507447Y-10226237D01*
X9507447Y-10226237D02*
X9526494Y-10216713D01*
X9678875Y-10397665D02*
X9688399Y-10407189D01*
X9688399Y-10407189D02*
X9678875Y-10416713D01*
X9678875Y-10416713D02*
X9669351Y-10407189D01*
X9669351Y-10407189D02*
X9678875Y-10397665D01*
X9678875Y-10397665D02*
X9678875Y-10416713D01*
X9812208Y-10216713D02*
X9831256Y-10216713D01*
X9831256Y-10216713D02*
X9850304Y-10226237D01*
X9850304Y-10226237D02*
X9859828Y-10235761D01*
X9859828Y-10235761D02*
X9869351Y-10254808D01*
X9869351Y-10254808D02*
X9878875Y-10292903D01*
X9878875Y-10292903D02*
X9878875Y-10340523D01*
X9878875Y-10340523D02*
X9869351Y-10378618D01*
X9869351Y-10378618D02*
X9859828Y-10397665D01*
X9859828Y-10397665D02*
X9850304Y-10407189D01*
X9850304Y-10407189D02*
X9831256Y-10416713D01*
X9831256Y-10416713D02*
X9812208Y-10416713D01*
X9812208Y-10416713D02*
X9793161Y-10407189D01*
X9793161Y-10407189D02*
X9783637Y-10397665D01*
X9783637Y-10397665D02*
X9774113Y-10378618D01*
X9774113Y-10378618D02*
X9764589Y-10340523D01*
X9764589Y-10340523D02*
X9764589Y-10292903D01*
X9764589Y-10292903D02*
X9774113Y-10254808D01*
X9774113Y-10254808D02*
X9783637Y-10235761D01*
X9783637Y-10235761D02*
X9793161Y-10226237D01*
X9793161Y-10226237D02*
X9812208Y-10216713D01*
X9945542Y-10216713D02*
X10069351Y-10216713D01*
X10069351Y-10216713D02*
X10002685Y-10292903D01*
X10002685Y-10292903D02*
X10031256Y-10292903D01*
X10031256Y-10292903D02*
X10050304Y-10302427D01*
X10050304Y-10302427D02*
X10059828Y-10311951D01*
X10059828Y-10311951D02*
X10069351Y-10330999D01*
X10069351Y-10330999D02*
X10069351Y-10378618D01*
X10069351Y-10378618D02*
X10059828Y-10397665D01*
X10059828Y-10397665D02*
X10050304Y-10407189D01*
X10050304Y-10407189D02*
X10031256Y-10416713D01*
X10031256Y-10416713D02*
X9974113Y-10416713D01*
X9974113Y-10416713D02*
X9955066Y-10407189D01*
X9955066Y-10407189D02*
X9945542Y-10397665D01*
X10164589Y-10416713D02*
X10202685Y-10416713D01*
X10202685Y-10416713D02*
X10221732Y-10407189D01*
X10221732Y-10407189D02*
X10231256Y-10397665D01*
X10231256Y-10397665D02*
X10250304Y-10369094D01*
X10250304Y-10369094D02*
X10259828Y-10330999D01*
X10259828Y-10330999D02*
X10259828Y-10254808D01*
X10259828Y-10254808D02*
X10250304Y-10235761D01*
X10250304Y-10235761D02*
X10240780Y-10226237D01*
X10240780Y-10226237D02*
X10221732Y-10216713D01*
X10221732Y-10216713D02*
X10183637Y-10216713D01*
X10183637Y-10216713D02*
X10164589Y-10226237D01*
X10164589Y-10226237D02*
X10155066Y-10235761D01*
X10155066Y-10235761D02*
X10145542Y-10254808D01*
X10145542Y-10254808D02*
X10145542Y-10302427D01*
X10145542Y-10302427D02*
X10155066Y-10321475D01*
X10155066Y-10321475D02*
X10164589Y-10330999D01*
X10164589Y-10330999D02*
X10183637Y-10340523D01*
X10183637Y-10340523D02*
X10221732Y-10340523D01*
X10221732Y-10340523D02*
X10240780Y-10330999D01*
X10240780Y-10330999D02*
X10250304Y-10321475D01*
X10250304Y-10321475D02*
X10259828Y-10302427D01*
X10431256Y-10283380D02*
X10431256Y-10416713D01*
X10383637Y-10207189D02*
X10336018Y-10350046D01*
X10336018Y-10350046D02*
X10459828Y-10350046D01*
X10526494Y-10216713D02*
X10526494Y-10254808D01*
X10602685Y-10216713D02*
X10602685Y-10254808D01*
X10897923Y-10492903D02*
X10888399Y-10483380D01*
X10888399Y-10483380D02*
X10869351Y-10454808D01*
X10869351Y-10454808D02*
X10859828Y-10435761D01*
X10859828Y-10435761D02*
X10850304Y-10407189D01*
X10850304Y-10407189D02*
X10840780Y-10359570D01*
X10840780Y-10359570D02*
X10840780Y-10321475D01*
X10840780Y-10321475D02*
X10850304Y-10273856D01*
X10850304Y-10273856D02*
X10859828Y-10245284D01*
X10859828Y-10245284D02*
X10869351Y-10226237D01*
X10869351Y-10226237D02*
X10888399Y-10197665D01*
X10888399Y-10197665D02*
X10897923Y-10188142D01*
X10964590Y-10235761D02*
X10974113Y-10226237D01*
X10974113Y-10226237D02*
X10993161Y-10216713D01*
X10993161Y-10216713D02*
X11040780Y-10216713D01*
X11040780Y-10216713D02*
X11059828Y-10226237D01*
X11059828Y-10226237D02*
X11069351Y-10235761D01*
X11069351Y-10235761D02*
X11078875Y-10254808D01*
X11078875Y-10254808D02*
X11078875Y-10273856D01*
X11078875Y-10273856D02*
X11069351Y-10302427D01*
X11069351Y-10302427D02*
X10955066Y-10416713D01*
X10955066Y-10416713D02*
X11078875Y-10416713D01*
X11316970Y-10416713D02*
X11316970Y-10216713D01*
X11402685Y-10416713D02*
X11402685Y-10311951D01*
X11402685Y-10311951D02*
X11393161Y-10292903D01*
X11393161Y-10292903D02*
X11374113Y-10283380D01*
X11374113Y-10283380D02*
X11345542Y-10283380D01*
X11345542Y-10283380D02*
X11326494Y-10292903D01*
X11326494Y-10292903D02*
X11316970Y-10302427D01*
X11526494Y-10416713D02*
X11507447Y-10407189D01*
X11507447Y-10407189D02*
X11497923Y-10397665D01*
X11497923Y-10397665D02*
X11488399Y-10378618D01*
X11488399Y-10378618D02*
X11488399Y-10321475D01*
X11488399Y-10321475D02*
X11497923Y-10302427D01*
X11497923Y-10302427D02*
X11507447Y-10292903D01*
X11507447Y-10292903D02*
X11526494Y-10283380D01*
X11526494Y-10283380D02*
X11555066Y-10283380D01*
X11555066Y-10283380D02*
X11574113Y-10292903D01*
X11574113Y-10292903D02*
X11583637Y-10302427D01*
X11583637Y-10302427D02*
X11593161Y-10321475D01*
X11593161Y-10321475D02*
X11593161Y-10378618D01*
X11593161Y-10378618D02*
X11583637Y-10397665D01*
X11583637Y-10397665D02*
X11574113Y-10407189D01*
X11574113Y-10407189D02*
X11555066Y-10416713D01*
X11555066Y-10416713D02*
X11526494Y-10416713D01*
X11707447Y-10416713D02*
X11688399Y-10407189D01*
X11688399Y-10407189D02*
X11678875Y-10388142D01*
X11678875Y-10388142D02*
X11678875Y-10216713D01*
X11859828Y-10407189D02*
X11840780Y-10416713D01*
X11840780Y-10416713D02*
X11802685Y-10416713D01*
X11802685Y-10416713D02*
X11783637Y-10407189D01*
X11783637Y-10407189D02*
X11774113Y-10388142D01*
X11774113Y-10388142D02*
X11774113Y-10311951D01*
X11774113Y-10311951D02*
X11783637Y-10292903D01*
X11783637Y-10292903D02*
X11802685Y-10283380D01*
X11802685Y-10283380D02*
X11840780Y-10283380D01*
X11840780Y-10283380D02*
X11859828Y-10292903D01*
X11859828Y-10292903D02*
X11869351Y-10311951D01*
X11869351Y-10311951D02*
X11869351Y-10330999D01*
X11869351Y-10330999D02*
X11774113Y-10350046D01*
X11945542Y-10407189D02*
X11964590Y-10416713D01*
X11964590Y-10416713D02*
X12002685Y-10416713D01*
X12002685Y-10416713D02*
X12021732Y-10407189D01*
X12021732Y-10407189D02*
X12031256Y-10388142D01*
X12031256Y-10388142D02*
X12031256Y-10378618D01*
X12031256Y-10378618D02*
X12021732Y-10359570D01*
X12021732Y-10359570D02*
X12002685Y-10350046D01*
X12002685Y-10350046D02*
X11974113Y-10350046D01*
X11974113Y-10350046D02*
X11955066Y-10340523D01*
X11955066Y-10340523D02*
X11945542Y-10321475D01*
X11945542Y-10321475D02*
X11945542Y-10311951D01*
X11945542Y-10311951D02*
X11955066Y-10292903D01*
X11955066Y-10292903D02*
X11974113Y-10283380D01*
X11974113Y-10283380D02*
X12002685Y-10283380D01*
X12002685Y-10283380D02*
X12021732Y-10292903D01*
X12097923Y-10492903D02*
X12107447Y-10483380D01*
X12107447Y-10483380D02*
X12126494Y-10454808D01*
X12126494Y-10454808D02*
X12136018Y-10435761D01*
X12136018Y-10435761D02*
X12145542Y-10407189D01*
X12145542Y-10407189D02*
X12155066Y-10359570D01*
X12155066Y-10359570D02*
X12155066Y-10321475D01*
X12155066Y-10321475D02*
X12145542Y-10273856D01*
X12145542Y-10273856D02*
X12136018Y-10245284D01*
X12136018Y-10245284D02*
X12126494Y-10226237D01*
X12126494Y-10226237D02*
X12107447Y-10197665D01*
X12107447Y-10197665D02*
X12097923Y-10188142D01*
D13*
X7271860Y-10538229D02*
X7271860Y-10640229D01*
X7220860Y-10589229D02*
X7322860Y-10589229D01*
D11*
X7688399Y-10680713D02*
X7574113Y-10680713D01*
X7631256Y-10680713D02*
X7631256Y-10480713D01*
X7631256Y-10480713D02*
X7612208Y-10509284D01*
X7612208Y-10509284D02*
X7593161Y-10528332D01*
X7593161Y-10528332D02*
X7574113Y-10537856D01*
X7774113Y-10661665D02*
X7783637Y-10671189D01*
X7783637Y-10671189D02*
X7774113Y-10680713D01*
X7774113Y-10680713D02*
X7764589Y-10671189D01*
X7764589Y-10671189D02*
X7774113Y-10661665D01*
X7774113Y-10661665D02*
X7774113Y-10680713D01*
X7907446Y-10480713D02*
X7926494Y-10480713D01*
X7926494Y-10480713D02*
X7945542Y-10490237D01*
X7945542Y-10490237D02*
X7955065Y-10499761D01*
X7955065Y-10499761D02*
X7964589Y-10518808D01*
X7964589Y-10518808D02*
X7974113Y-10556903D01*
X7974113Y-10556903D02*
X7974113Y-10604523D01*
X7974113Y-10604523D02*
X7964589Y-10642618D01*
X7964589Y-10642618D02*
X7955065Y-10661665D01*
X7955065Y-10661665D02*
X7945542Y-10671189D01*
X7945542Y-10671189D02*
X7926494Y-10680713D01*
X7926494Y-10680713D02*
X7907446Y-10680713D01*
X7907446Y-10680713D02*
X7888399Y-10671189D01*
X7888399Y-10671189D02*
X7878875Y-10661665D01*
X7878875Y-10661665D02*
X7869351Y-10642618D01*
X7869351Y-10642618D02*
X7859827Y-10604523D01*
X7859827Y-10604523D02*
X7859827Y-10556903D01*
X7859827Y-10556903D02*
X7869351Y-10518808D01*
X7869351Y-10518808D02*
X7878875Y-10499761D01*
X7878875Y-10499761D02*
X7888399Y-10490237D01*
X7888399Y-10490237D02*
X7907446Y-10480713D01*
X8050303Y-10499761D02*
X8059827Y-10490237D01*
X8059827Y-10490237D02*
X8078875Y-10480713D01*
X8078875Y-10480713D02*
X8126494Y-10480713D01*
X8126494Y-10480713D02*
X8145542Y-10490237D01*
X8145542Y-10490237D02*
X8155065Y-10499761D01*
X8155065Y-10499761D02*
X8164589Y-10518808D01*
X8164589Y-10518808D02*
X8164589Y-10537856D01*
X8164589Y-10537856D02*
X8155065Y-10566427D01*
X8155065Y-10566427D02*
X8040780Y-10680713D01*
X8040780Y-10680713D02*
X8164589Y-10680713D01*
X8288399Y-10480713D02*
X8307446Y-10480713D01*
X8307446Y-10480713D02*
X8326494Y-10490237D01*
X8326494Y-10490237D02*
X8336018Y-10499761D01*
X8336018Y-10499761D02*
X8345542Y-10518808D01*
X8345542Y-10518808D02*
X8355065Y-10556903D01*
X8355065Y-10556903D02*
X8355065Y-10604523D01*
X8355065Y-10604523D02*
X8345542Y-10642618D01*
X8345542Y-10642618D02*
X8336018Y-10661665D01*
X8336018Y-10661665D02*
X8326494Y-10671189D01*
X8326494Y-10671189D02*
X8307446Y-10680713D01*
X8307446Y-10680713D02*
X8288399Y-10680713D01*
X8288399Y-10680713D02*
X8269351Y-10671189D01*
X8269351Y-10671189D02*
X8259827Y-10661665D01*
X8259827Y-10661665D02*
X8250303Y-10642618D01*
X8250303Y-10642618D02*
X8240780Y-10604523D01*
X8240780Y-10604523D02*
X8240780Y-10556903D01*
X8240780Y-10556903D02*
X8250303Y-10518808D01*
X8250303Y-10518808D02*
X8259827Y-10499761D01*
X8259827Y-10499761D02*
X8269351Y-10490237D01*
X8269351Y-10490237D02*
X8288399Y-10480713D01*
X8440780Y-10680713D02*
X8440780Y-10547380D01*
X8440780Y-10566427D02*
X8450304Y-10556903D01*
X8450304Y-10556903D02*
X8469351Y-10547380D01*
X8469351Y-10547380D02*
X8497923Y-10547380D01*
X8497923Y-10547380D02*
X8516970Y-10556903D01*
X8516970Y-10556903D02*
X8526494Y-10575951D01*
X8526494Y-10575951D02*
X8526494Y-10680713D01*
X8526494Y-10575951D02*
X8536018Y-10556903D01*
X8536018Y-10556903D02*
X8555065Y-10547380D01*
X8555065Y-10547380D02*
X8583637Y-10547380D01*
X8583637Y-10547380D02*
X8602685Y-10556903D01*
X8602685Y-10556903D02*
X8612208Y-10575951D01*
X8612208Y-10575951D02*
X8612208Y-10680713D01*
X8707446Y-10680713D02*
X8707446Y-10547380D01*
X8707446Y-10566427D02*
X8716970Y-10556903D01*
X8716970Y-10556903D02*
X8736018Y-10547380D01*
X8736018Y-10547380D02*
X8764589Y-10547380D01*
X8764589Y-10547380D02*
X8783637Y-10556903D01*
X8783637Y-10556903D02*
X8793161Y-10575951D01*
X8793161Y-10575951D02*
X8793161Y-10680713D01*
X8793161Y-10575951D02*
X8802685Y-10556903D01*
X8802685Y-10556903D02*
X8821732Y-10547380D01*
X8821732Y-10547380D02*
X8850304Y-10547380D01*
X8850304Y-10547380D02*
X8869351Y-10556903D01*
X8869351Y-10556903D02*
X8878875Y-10575951D01*
X8878875Y-10575951D02*
X8878875Y-10680713D01*
X9269351Y-10471189D02*
X9097923Y-10728332D01*
X9526494Y-10480713D02*
X9545542Y-10480713D01*
X9545542Y-10480713D02*
X9564589Y-10490237D01*
X9564589Y-10490237D02*
X9574113Y-10499761D01*
X9574113Y-10499761D02*
X9583637Y-10518808D01*
X9583637Y-10518808D02*
X9593161Y-10556903D01*
X9593161Y-10556903D02*
X9593161Y-10604523D01*
X9593161Y-10604523D02*
X9583637Y-10642618D01*
X9583637Y-10642618D02*
X9574113Y-10661665D01*
X9574113Y-10661665D02*
X9564589Y-10671189D01*
X9564589Y-10671189D02*
X9545542Y-10680713D01*
X9545542Y-10680713D02*
X9526494Y-10680713D01*
X9526494Y-10680713D02*
X9507447Y-10671189D01*
X9507447Y-10671189D02*
X9497923Y-10661665D01*
X9497923Y-10661665D02*
X9488399Y-10642618D01*
X9488399Y-10642618D02*
X9478875Y-10604523D01*
X9478875Y-10604523D02*
X9478875Y-10556903D01*
X9478875Y-10556903D02*
X9488399Y-10518808D01*
X9488399Y-10518808D02*
X9497923Y-10499761D01*
X9497923Y-10499761D02*
X9507447Y-10490237D01*
X9507447Y-10490237D02*
X9526494Y-10480713D01*
X9678875Y-10661665D02*
X9688399Y-10671189D01*
X9688399Y-10671189D02*
X9678875Y-10680713D01*
X9678875Y-10680713D02*
X9669351Y-10671189D01*
X9669351Y-10671189D02*
X9678875Y-10661665D01*
X9678875Y-10661665D02*
X9678875Y-10680713D01*
X9812208Y-10480713D02*
X9831256Y-10480713D01*
X9831256Y-10480713D02*
X9850304Y-10490237D01*
X9850304Y-10490237D02*
X9859828Y-10499761D01*
X9859828Y-10499761D02*
X9869351Y-10518808D01*
X9869351Y-10518808D02*
X9878875Y-10556903D01*
X9878875Y-10556903D02*
X9878875Y-10604523D01*
X9878875Y-10604523D02*
X9869351Y-10642618D01*
X9869351Y-10642618D02*
X9859828Y-10661665D01*
X9859828Y-10661665D02*
X9850304Y-10671189D01*
X9850304Y-10671189D02*
X9831256Y-10680713D01*
X9831256Y-10680713D02*
X9812208Y-10680713D01*
X9812208Y-10680713D02*
X9793161Y-10671189D01*
X9793161Y-10671189D02*
X9783637Y-10661665D01*
X9783637Y-10661665D02*
X9774113Y-10642618D01*
X9774113Y-10642618D02*
X9764589Y-10604523D01*
X9764589Y-10604523D02*
X9764589Y-10556903D01*
X9764589Y-10556903D02*
X9774113Y-10518808D01*
X9774113Y-10518808D02*
X9783637Y-10499761D01*
X9783637Y-10499761D02*
X9793161Y-10490237D01*
X9793161Y-10490237D02*
X9812208Y-10480713D01*
X10050304Y-10547380D02*
X10050304Y-10680713D01*
X10002685Y-10471189D02*
X9955066Y-10614046D01*
X9955066Y-10614046D02*
X10078875Y-10614046D01*
X10193161Y-10480713D02*
X10212209Y-10480713D01*
X10212209Y-10480713D02*
X10231256Y-10490237D01*
X10231256Y-10490237D02*
X10240780Y-10499761D01*
X10240780Y-10499761D02*
X10250304Y-10518808D01*
X10250304Y-10518808D02*
X10259828Y-10556903D01*
X10259828Y-10556903D02*
X10259828Y-10604523D01*
X10259828Y-10604523D02*
X10250304Y-10642618D01*
X10250304Y-10642618D02*
X10240780Y-10661665D01*
X10240780Y-10661665D02*
X10231256Y-10671189D01*
X10231256Y-10671189D02*
X10212209Y-10680713D01*
X10212209Y-10680713D02*
X10193161Y-10680713D01*
X10193161Y-10680713D02*
X10174113Y-10671189D01*
X10174113Y-10671189D02*
X10164589Y-10661665D01*
X10164589Y-10661665D02*
X10155066Y-10642618D01*
X10155066Y-10642618D02*
X10145542Y-10604523D01*
X10145542Y-10604523D02*
X10145542Y-10556903D01*
X10145542Y-10556903D02*
X10155066Y-10518808D01*
X10155066Y-10518808D02*
X10164589Y-10499761D01*
X10164589Y-10499761D02*
X10174113Y-10490237D01*
X10174113Y-10490237D02*
X10193161Y-10480713D01*
X10336018Y-10499761D02*
X10345542Y-10490237D01*
X10345542Y-10490237D02*
X10364589Y-10480713D01*
X10364589Y-10480713D02*
X10412209Y-10480713D01*
X10412209Y-10480713D02*
X10431256Y-10490237D01*
X10431256Y-10490237D02*
X10440780Y-10499761D01*
X10440780Y-10499761D02*
X10450304Y-10518808D01*
X10450304Y-10518808D02*
X10450304Y-10537856D01*
X10450304Y-10537856D02*
X10440780Y-10566427D01*
X10440780Y-10566427D02*
X10326494Y-10680713D01*
X10326494Y-10680713D02*
X10450304Y-10680713D01*
X10526494Y-10480713D02*
X10526494Y-10518808D01*
X10602685Y-10480713D02*
X10602685Y-10518808D01*
X10897923Y-10756903D02*
X10888399Y-10747380D01*
X10888399Y-10747380D02*
X10869351Y-10718808D01*
X10869351Y-10718808D02*
X10859828Y-10699761D01*
X10859828Y-10699761D02*
X10850304Y-10671189D01*
X10850304Y-10671189D02*
X10840780Y-10623570D01*
X10840780Y-10623570D02*
X10840780Y-10585475D01*
X10840780Y-10585475D02*
X10850304Y-10537856D01*
X10850304Y-10537856D02*
X10859828Y-10509284D01*
X10859828Y-10509284D02*
X10869351Y-10490237D01*
X10869351Y-10490237D02*
X10888399Y-10461665D01*
X10888399Y-10461665D02*
X10897923Y-10452142D01*
X10955066Y-10480713D02*
X11078875Y-10480713D01*
X11078875Y-10480713D02*
X11012209Y-10556903D01*
X11012209Y-10556903D02*
X11040780Y-10556903D01*
X11040780Y-10556903D02*
X11059828Y-10566427D01*
X11059828Y-10566427D02*
X11069351Y-10575951D01*
X11069351Y-10575951D02*
X11078875Y-10594999D01*
X11078875Y-10594999D02*
X11078875Y-10642618D01*
X11078875Y-10642618D02*
X11069351Y-10661665D01*
X11069351Y-10661665D02*
X11059828Y-10671189D01*
X11059828Y-10671189D02*
X11040780Y-10680713D01*
X11040780Y-10680713D02*
X10983637Y-10680713D01*
X10983637Y-10680713D02*
X10964590Y-10671189D01*
X10964590Y-10671189D02*
X10955066Y-10661665D01*
X11145542Y-10480713D02*
X11269351Y-10480713D01*
X11269351Y-10480713D02*
X11202685Y-10556903D01*
X11202685Y-10556903D02*
X11231256Y-10556903D01*
X11231256Y-10556903D02*
X11250304Y-10566427D01*
X11250304Y-10566427D02*
X11259828Y-10575951D01*
X11259828Y-10575951D02*
X11269351Y-10594999D01*
X11269351Y-10594999D02*
X11269351Y-10642618D01*
X11269351Y-10642618D02*
X11259828Y-10661665D01*
X11259828Y-10661665D02*
X11250304Y-10671189D01*
X11250304Y-10671189D02*
X11231256Y-10680713D01*
X11231256Y-10680713D02*
X11174113Y-10680713D01*
X11174113Y-10680713D02*
X11155066Y-10671189D01*
X11155066Y-10671189D02*
X11145542Y-10661665D01*
X11507447Y-10680713D02*
X11507447Y-10480713D01*
X11593161Y-10680713D02*
X11593161Y-10575951D01*
X11593161Y-10575951D02*
X11583637Y-10556903D01*
X11583637Y-10556903D02*
X11564590Y-10547380D01*
X11564590Y-10547380D02*
X11536018Y-10547380D01*
X11536018Y-10547380D02*
X11516970Y-10556903D01*
X11516970Y-10556903D02*
X11507447Y-10566427D01*
X11716970Y-10680713D02*
X11697923Y-10671189D01*
X11697923Y-10671189D02*
X11688399Y-10661665D01*
X11688399Y-10661665D02*
X11678875Y-10642618D01*
X11678875Y-10642618D02*
X11678875Y-10585475D01*
X11678875Y-10585475D02*
X11688399Y-10566427D01*
X11688399Y-10566427D02*
X11697923Y-10556903D01*
X11697923Y-10556903D02*
X11716970Y-10547380D01*
X11716970Y-10547380D02*
X11745542Y-10547380D01*
X11745542Y-10547380D02*
X11764590Y-10556903D01*
X11764590Y-10556903D02*
X11774113Y-10566427D01*
X11774113Y-10566427D02*
X11783637Y-10585475D01*
X11783637Y-10585475D02*
X11783637Y-10642618D01*
X11783637Y-10642618D02*
X11774113Y-10661665D01*
X11774113Y-10661665D02*
X11764590Y-10671189D01*
X11764590Y-10671189D02*
X11745542Y-10680713D01*
X11745542Y-10680713D02*
X11716970Y-10680713D01*
X11897923Y-10680713D02*
X11878875Y-10671189D01*
X11878875Y-10671189D02*
X11869351Y-10652142D01*
X11869351Y-10652142D02*
X11869351Y-10480713D01*
X12050304Y-10671189D02*
X12031256Y-10680713D01*
X12031256Y-10680713D02*
X11993161Y-10680713D01*
X11993161Y-10680713D02*
X11974113Y-10671189D01*
X11974113Y-10671189D02*
X11964590Y-10652142D01*
X11964590Y-10652142D02*
X11964590Y-10575951D01*
X11964590Y-10575951D02*
X11974113Y-10556903D01*
X11974113Y-10556903D02*
X11993161Y-10547380D01*
X11993161Y-10547380D02*
X12031256Y-10547380D01*
X12031256Y-10547380D02*
X12050304Y-10556903D01*
X12050304Y-10556903D02*
X12059828Y-10575951D01*
X12059828Y-10575951D02*
X12059828Y-10594999D01*
X12059828Y-10594999D02*
X11964590Y-10614046D01*
X12136018Y-10671189D02*
X12155066Y-10680713D01*
X12155066Y-10680713D02*
X12193161Y-10680713D01*
X12193161Y-10680713D02*
X12212209Y-10671189D01*
X12212209Y-10671189D02*
X12221732Y-10652142D01*
X12221732Y-10652142D02*
X12221732Y-10642618D01*
X12221732Y-10642618D02*
X12212209Y-10623570D01*
X12212209Y-10623570D02*
X12193161Y-10614046D01*
X12193161Y-10614046D02*
X12164590Y-10614046D01*
X12164590Y-10614046D02*
X12145542Y-10604523D01*
X12145542Y-10604523D02*
X12136018Y-10585475D01*
X12136018Y-10585475D02*
X12136018Y-10575951D01*
X12136018Y-10575951D02*
X12145542Y-10556903D01*
X12145542Y-10556903D02*
X12164590Y-10547380D01*
X12164590Y-10547380D02*
X12193161Y-10547380D01*
X12193161Y-10547380D02*
X12212209Y-10556903D01*
X12288399Y-10756903D02*
X12297923Y-10747380D01*
X12297923Y-10747380D02*
X12316971Y-10718808D01*
X12316971Y-10718808D02*
X12326494Y-10699761D01*
X12326494Y-10699761D02*
X12336018Y-10671189D01*
X12336018Y-10671189D02*
X12345542Y-10623570D01*
X12345542Y-10623570D02*
X12345542Y-10585475D01*
X12345542Y-10585475D02*
X12336018Y-10537856D01*
X12336018Y-10537856D02*
X12326494Y-10509284D01*
X12326494Y-10509284D02*
X12316971Y-10490237D01*
X12316971Y-10490237D02*
X12297923Y-10461665D01*
X12297923Y-10461665D02*
X12288399Y-10452142D01*
M02*
