%TF.GenerationSoftware,KiCad,Pcbnew,8.0.1*%
%TF.CreationDate,2024-04-29T03:40:20-07:00*%
%TF.ProjectId,CanSat PCB,43616e53-6174-4205-9043-422e6b696361,4*%
%TF.SameCoordinates,Original*%
%TF.FileFunction,Copper,L2,Bot*%
%TF.FilePolarity,Positive*%
%FSLAX46Y46*%
G04 Gerber Fmt 4.6, Leading zero omitted, Abs format (unit mm)*
G04 Created by KiCad (PCBNEW 8.0.1) date 2024-04-29 03:40:20*
%MOMM*%
%LPD*%
G01*
G04 APERTURE LIST*
G04 Aperture macros list*
%AMRoundRect*
0 Rectangle with rounded corners*
0 $1 Rounding radius*
0 $2 $3 $4 $5 $6 $7 $8 $9 X,Y pos of 4 corners*
0 Add a 4 corners polygon primitive as box body*
4,1,4,$2,$3,$4,$5,$6,$7,$8,$9,$2,$3,0*
0 Add four circle primitives for the rounded corners*
1,1,$1+$1,$2,$3*
1,1,$1+$1,$4,$5*
1,1,$1+$1,$6,$7*
1,1,$1+$1,$8,$9*
0 Add four rect primitives between the rounded corners*
20,1,$1+$1,$2,$3,$4,$5,0*
20,1,$1+$1,$4,$5,$6,$7,0*
20,1,$1+$1,$6,$7,$8,$9,0*
20,1,$1+$1,$8,$9,$2,$3,0*%
G04 Aperture macros list end*
%TA.AperFunction,ComponentPad*%
%ADD10RoundRect,0.250000X-0.750000X0.600000X-0.750000X-0.600000X0.750000X-0.600000X0.750000X0.600000X0*%
%TD*%
%TA.AperFunction,ComponentPad*%
%ADD11O,2.000000X1.700000*%
%TD*%
%TA.AperFunction,ComponentPad*%
%ADD12C,1.530000*%
%TD*%
%TA.AperFunction,ViaPad*%
%ADD13C,0.600000*%
%TD*%
%TA.AperFunction,Conductor*%
%ADD14C,0.250000*%
%TD*%
G04 APERTURE END LIST*
D10*
%TO.P,J8,1,Pin_1*%
%TO.N,+12V*%
X81354000Y-58282000D03*
D11*
%TO.P,J8,2,Pin_2*%
%TO.N,GND*%
X81354000Y-60782000D03*
%TD*%
D12*
%TO.P,U6,0,0*%
%TO.N,unconnected-(U6-Pad0)*%
X90932000Y-40990000D03*
%TO.P,U6,1,1*%
%TO.N,unconnected-(U6-Pad1)*%
X90932000Y-43530000D03*
%TO.P,U6,2,2*%
%TO.N,unconnected-(U6-Pad2)*%
X90932000Y-46070000D03*
%TO.P,U6,3,3*%
%TO.N,unconnected-(U6-Pad3)*%
X90932000Y-48610000D03*
%TO.P,U6,3.3V_1,3.3V_1*%
%TO.N,+3.3V*%
X96012000Y-71470000D03*
%TO.P,U6,3.3V_2,3.3V_2*%
X106172000Y-43530000D03*
%TO.P,U6,4,4*%
%TO.N,unconnected-(U6-Pad4)*%
X90932000Y-51150000D03*
%TO.P,U6,5,5*%
%TO.N,unconnected-(U6-Pad5)*%
X90932000Y-53690000D03*
%TO.P,U6,6,6*%
%TO.N,unconnected-(U6-Pad6)*%
X90932000Y-56230000D03*
%TO.P,U6,7,7*%
%TO.N,TX_GPS*%
X90932000Y-58770000D03*
%TO.P,U6,8,8*%
%TO.N,RX_GPS*%
X90932000Y-61310000D03*
%TO.P,U6,9,9*%
%TO.N,PWM_4*%
X90932000Y-63850000D03*
%TO.P,U6,10,10*%
%TO.N,FET1*%
X90932000Y-66390000D03*
%TO.P,U6,11,11*%
%TO.N,unconnected-(U6-Pad11)*%
X90932000Y-68930000D03*
%TO.P,U6,12,12*%
%TO.N,FET2*%
X90932000Y-71470000D03*
%TO.P,U6,13,13*%
%TO.N,PWM_3*%
X106172000Y-71470000D03*
%TO.P,U6,14,14*%
%TO.N,TXD*%
X106172000Y-68930000D03*
%TO.P,U6,15,15*%
%TO.N,RXD*%
X106172000Y-66390000D03*
%TO.P,U6,16,16*%
%TO.N,SCL1*%
X106172000Y-63850000D03*
%TO.P,U6,17,17*%
%TO.N,SDA1*%
X106172000Y-61310000D03*
%TO.P,U6,18,18*%
%TO.N,SDA*%
X106172000Y-58770000D03*
%TO.P,U6,19,19*%
%TO.N,SCL*%
X106172000Y-56230000D03*
%TO.P,U6,20,20*%
%TO.N,unconnected-(U6-Pad20)*%
X106172000Y-53690000D03*
%TO.P,U6,21,21*%
%TO.N,unconnected-(U6-Pad21)*%
X106172000Y-51150000D03*
%TO.P,U6,22,22*%
%TO.N,PWM_2*%
X106172000Y-48610000D03*
%TO.P,U6,23,23*%
%TO.N,PWM_1*%
X106172000Y-46070000D03*
%TO.P,U6,G1,G1*%
%TO.N,GND*%
X90932000Y-38450000D03*
%TO.P,U6,G2,G2*%
X98552000Y-71470000D03*
%TO.P,U6,G3,G3*%
X106172000Y-40990000D03*
%TO.P,U6,ON-OFF,ON/OFF*%
%TO.N,unconnected-(U6-ON{slash}OFF-PadON-OFF)*%
X103632000Y-71470000D03*
%TO.P,U6,PGM,PROGRAM*%
%TO.N,unconnected-(U6-PROGRAM-PadPGM)*%
X101092000Y-71470000D03*
%TO.P,U6,VBAT,VBAT*%
%TO.N,unconnected-(U6-PadVBAT)*%
X93472000Y-71470000D03*
%TO.P,U6,VIN,VIN*%
%TO.N,+5V*%
X106172000Y-38450000D03*
%TD*%
D13*
%TO.N,GND*%
X84175600Y-74447400D03*
X80416400Y-66700400D03*
X78562200Y-66294000D03*
%TO.N,FET2*%
X94691200Y-73304400D03*
%TO.N,GND*%
X115646200Y-70764400D03*
X85902800Y-40741600D03*
%TO.N,TXD*%
X109321600Y-67259200D03*
%TO.N,RXD*%
X109321600Y-66446400D03*
%TO.N,GND*%
X111861600Y-43276000D03*
X117449600Y-78378800D03*
X95351600Y-90723200D03*
X109372400Y-71688600D03*
X111128246Y-82550401D03*
X79502000Y-67253600D03*
X79451200Y-78124800D03*
X87604600Y-57683400D03*
X103784400Y-76092800D03*
X105156000Y-87827600D03*
X85140800Y-73197200D03*
X85852000Y-42113200D03*
X105156000Y-77566000D03*
X114945000Y-45249389D03*
X112369600Y-71470000D03*
X109524800Y-74518000D03*
X90474800Y-79140800D03*
X117449600Y-60598800D03*
X111099600Y-76499200D03*
X86055200Y-48559200D03*
X113639600Y-41294800D03*
X110949981Y-50074276D03*
X94742000Y-77566000D03*
X109118400Y-51861200D03*
X87884000Y-48152800D03*
X79400400Y-74975200D03*
X109966600Y-69539600D03*
X86004400Y-47797200D03*
X91948000Y-87776800D03*
X88544400Y-49727600D03*
X113944400Y-43733200D03*
X117398800Y-52420000D03*
X86918800Y-48152800D03*
X101142800Y-90824800D03*
X113886400Y-82595200D03*
X79654400Y-50337200D03*
X117398800Y-65988200D03*
%TO.N,PWM_2*%
X115316000Y-48203600D03*
X112166400Y-48203600D03*
%TO.N,PWM_1*%
X112166400Y-47390800D03*
X115773200Y-47390800D03*
%TO.N,SDA*%
X112835293Y-51828945D03*
X113893600Y-49575200D03*
%TO.N,SCL*%
X113600800Y-52061331D03*
X114693603Y-49575200D03*
%TO.N,SCL1*%
X104157700Y-63715300D03*
%TO.N,RXD*%
X112572800Y-66440800D03*
%TO.N,TXD*%
X112572800Y-67456800D03*
%TO.N,FET2*%
X106705400Y-73298800D03*
%TD*%
D14*
%TO.N,FET2*%
X94696800Y-73298800D02*
X94691200Y-73304400D01*
X106705400Y-73298800D02*
X94696800Y-73298800D01*
%TO.N,TXD*%
X112375200Y-67259200D02*
X109321600Y-67259200D01*
X112572800Y-67456800D02*
X112375200Y-67259200D01*
%TO.N,RXD*%
X109327200Y-66440800D02*
X109321600Y-66446400D01*
X112572800Y-66440800D02*
X109327200Y-66440800D01*
%TO.N,PWM_2*%
X115316000Y-48203600D02*
X112166400Y-48203600D01*
%TO.N,PWM_1*%
X115773200Y-47390800D02*
X112166400Y-47390800D01*
%TO.N,SDA*%
X112949302Y-51828945D02*
X113893600Y-50884647D01*
X112835293Y-51828945D02*
X112949302Y-51828945D01*
X113893600Y-50884647D02*
X113893600Y-49575200D01*
%TO.N,SCL*%
X113600800Y-52061331D02*
X114693603Y-50968528D01*
X114693603Y-50968528D02*
X114693603Y-49575200D01*
%TO.N,SCL1*%
X104157700Y-63715300D02*
X105595500Y-63715300D01*
%TD*%
%TA.AperFunction,Conductor*%
%TO.N,GND*%
G36*
X99087798Y-33713234D02*
G01*
X100149851Y-33751046D01*
X100154250Y-33751280D01*
X101214373Y-33826860D01*
X101218665Y-33827243D01*
X102275407Y-33940492D01*
X102279785Y-33941039D01*
X103331814Y-34091813D01*
X103336155Y-34092514D01*
X104382160Y-34280623D01*
X104386385Y-34281460D01*
X105425104Y-34506681D01*
X105429326Y-34507676D01*
X106459292Y-34769690D01*
X106463520Y-34770845D01*
X107483566Y-35069355D01*
X107487720Y-35070652D01*
X108496422Y-35405239D01*
X108500585Y-35406702D01*
X109496768Y-35776975D01*
X109500876Y-35778586D01*
X110483230Y-36184058D01*
X110487277Y-36185813D01*
X111454589Y-36625983D01*
X111458525Y-36627859D01*
X112409636Y-37102202D01*
X112413506Y-37104219D01*
X113311247Y-37592578D01*
X113347064Y-37612062D01*
X113350901Y-37614238D01*
X114265818Y-38154985D01*
X114269536Y-38157273D01*
X114726847Y-38449999D01*
X115164641Y-38730233D01*
X115168314Y-38732677D01*
X115772341Y-39150341D01*
X116042448Y-39337110D01*
X116046027Y-39339681D01*
X116898102Y-39974830D01*
X116901565Y-39977509D01*
X117730536Y-40642600D01*
X117733908Y-40645406D01*
X118538661Y-41339546D01*
X118541930Y-41342468D01*
X119321512Y-42064832D01*
X119324650Y-42067846D01*
X120078025Y-42817478D01*
X120081053Y-42820600D01*
X120807287Y-43596569D01*
X120810244Y-43599844D01*
X121508367Y-44401112D01*
X121511206Y-44404490D01*
X122180388Y-45230102D01*
X122183105Y-45233579D01*
X122822476Y-46082460D01*
X122825067Y-46086031D01*
X123327539Y-46805026D01*
X123349807Y-46871252D01*
X123349900Y-46876057D01*
X123349900Y-80519141D01*
X123330215Y-80586180D01*
X123327540Y-80590172D01*
X122825068Y-81309169D01*
X122822476Y-81312740D01*
X122183105Y-82161620D01*
X122180388Y-82165097D01*
X121511206Y-82990709D01*
X121508367Y-82994087D01*
X120810244Y-83795355D01*
X120807287Y-83798630D01*
X120081075Y-84574577D01*
X120078003Y-84577744D01*
X119324658Y-85327345D01*
X119321475Y-85330402D01*
X118541951Y-86052713D01*
X118538661Y-86055653D01*
X117733908Y-86749793D01*
X117730516Y-86752616D01*
X116901578Y-87417680D01*
X116898088Y-87420379D01*
X116046032Y-88055515D01*
X116042448Y-88058089D01*
X115168315Y-88662521D01*
X115164641Y-88664966D01*
X114269556Y-89237914D01*
X114265798Y-89240226D01*
X113350902Y-89780960D01*
X113347064Y-89783137D01*
X112413528Y-90290968D01*
X112409615Y-90293008D01*
X111458548Y-90767329D01*
X111454565Y-90769227D01*
X110487278Y-91209385D01*
X110483230Y-91211141D01*
X109500876Y-91616613D01*
X109496768Y-91618224D01*
X108500585Y-91988497D01*
X108496422Y-91989960D01*
X107487749Y-92324538D01*
X107483537Y-92325853D01*
X106463534Y-92624350D01*
X106459278Y-92625513D01*
X105429363Y-92887514D01*
X105425068Y-92888526D01*
X104386437Y-93113728D01*
X104382108Y-93114586D01*
X103336162Y-93302683D01*
X103331807Y-93303387D01*
X102279786Y-93454159D01*
X102275407Y-93454707D01*
X101218716Y-93567951D01*
X101214321Y-93568343D01*
X100154254Y-93643918D01*
X100149848Y-93644153D01*
X99087799Y-93681965D01*
X99083387Y-93682044D01*
X98020613Y-93682044D01*
X98016201Y-93681965D01*
X96954151Y-93644153D01*
X96949745Y-93643918D01*
X95889678Y-93568343D01*
X95885283Y-93567951D01*
X94828592Y-93454707D01*
X94824213Y-93454159D01*
X93772192Y-93303387D01*
X93767837Y-93302683D01*
X92732451Y-93116485D01*
X92721883Y-93114584D01*
X92717571Y-93113729D01*
X91678931Y-92888526D01*
X91674636Y-92887514D01*
X90644721Y-92625513D01*
X90640465Y-92624350D01*
X89620462Y-92325853D01*
X89616250Y-92324538D01*
X88607577Y-91989960D01*
X88603414Y-91988497D01*
X87607231Y-91618224D01*
X87603123Y-91616613D01*
X86620769Y-91211141D01*
X86616721Y-91209385D01*
X85649434Y-90769227D01*
X85645451Y-90767329D01*
X84694384Y-90293008D01*
X84690471Y-90290968D01*
X83756935Y-89783137D01*
X83753097Y-89780960D01*
X82838201Y-89240226D01*
X82834443Y-89237914D01*
X81939358Y-88664966D01*
X81935684Y-88662521D01*
X81061551Y-88058089D01*
X81057967Y-88055515D01*
X80205911Y-87420379D01*
X80202421Y-87417680D01*
X79373468Y-86752604D01*
X79370091Y-86749793D01*
X78565338Y-86055653D01*
X78562065Y-86052728D01*
X77782488Y-85330368D01*
X77779341Y-85327345D01*
X77320281Y-84870566D01*
X77025973Y-84577720D01*
X77022947Y-84574600D01*
X76296703Y-83798620D01*
X76293755Y-83795355D01*
X76282990Y-83783000D01*
X75823481Y-83255600D01*
X77125033Y-83255600D01*
X77144916Y-83508239D01*
X77204073Y-83754649D01*
X77301051Y-83988776D01*
X77301053Y-83988779D01*
X77433460Y-84204849D01*
X77433461Y-84204850D01*
X77433462Y-84204852D01*
X77433464Y-84204854D01*
X77598046Y-84397554D01*
X77790746Y-84562136D01*
X77790748Y-84562137D01*
X77790749Y-84562138D01*
X77790750Y-84562139D01*
X78006820Y-84694546D01*
X78006823Y-84694548D01*
X78240950Y-84791526D01*
X78469881Y-84846486D01*
X78487364Y-84850684D01*
X78740000Y-84870567D01*
X78992636Y-84850684D01*
X79115844Y-84821104D01*
X79239049Y-84791526D01*
X79239050Y-84791525D01*
X79239052Y-84791525D01*
X79336027Y-84751356D01*
X79473176Y-84694548D01*
X79473177Y-84694547D01*
X79473180Y-84694546D01*
X79689254Y-84562136D01*
X79881954Y-84397554D01*
X80046536Y-84204854D01*
X80178946Y-83988780D01*
X80275925Y-83754652D01*
X80335084Y-83508236D01*
X80354967Y-83255600D01*
X116749033Y-83255600D01*
X116768916Y-83508239D01*
X116828073Y-83754649D01*
X116925051Y-83988776D01*
X116925053Y-83988779D01*
X117057460Y-84204849D01*
X117057461Y-84204850D01*
X117057462Y-84204852D01*
X117057464Y-84204854D01*
X117222046Y-84397554D01*
X117414746Y-84562136D01*
X117414748Y-84562137D01*
X117414749Y-84562138D01*
X117414750Y-84562139D01*
X117630820Y-84694546D01*
X117630823Y-84694548D01*
X117864950Y-84791526D01*
X118093881Y-84846486D01*
X118111364Y-84850684D01*
X118364000Y-84870567D01*
X118616636Y-84850684D01*
X118739844Y-84821104D01*
X118863049Y-84791526D01*
X118863050Y-84791525D01*
X118863052Y-84791525D01*
X118960027Y-84751356D01*
X119097176Y-84694548D01*
X119097177Y-84694547D01*
X119097180Y-84694546D01*
X119313254Y-84562136D01*
X119505954Y-84397554D01*
X119670536Y-84204854D01*
X119802946Y-83988780D01*
X119899925Y-83754652D01*
X119959084Y-83508236D01*
X119978967Y-83255600D01*
X119959084Y-83002964D01*
X119916354Y-82824980D01*
X119899926Y-82756550D01*
X119802948Y-82522423D01*
X119802946Y-82522420D01*
X119670539Y-82306350D01*
X119670538Y-82306349D01*
X119670537Y-82306348D01*
X119670536Y-82306346D01*
X119505954Y-82113646D01*
X119313254Y-81949064D01*
X119313252Y-81949062D01*
X119313250Y-81949061D01*
X119313249Y-81949060D01*
X119097179Y-81816653D01*
X119097176Y-81816651D01*
X118863049Y-81719673D01*
X118616639Y-81660516D01*
X118364000Y-81640633D01*
X118111360Y-81660516D01*
X117864950Y-81719673D01*
X117630823Y-81816651D01*
X117630820Y-81816653D01*
X117414750Y-81949060D01*
X117414749Y-81949061D01*
X117222046Y-82113646D01*
X117057461Y-82306349D01*
X117057460Y-82306350D01*
X116925053Y-82522420D01*
X116925051Y-82522423D01*
X116828073Y-82756550D01*
X116768916Y-83002960D01*
X116749033Y-83255600D01*
X80354967Y-83255600D01*
X80335084Y-83002964D01*
X80292354Y-82824980D01*
X80275926Y-82756550D01*
X80178948Y-82522423D01*
X80178946Y-82522420D01*
X80046539Y-82306350D01*
X80046538Y-82306349D01*
X80046537Y-82306348D01*
X80046536Y-82306346D01*
X79881954Y-82113646D01*
X79689254Y-81949064D01*
X79689252Y-81949062D01*
X79689250Y-81949061D01*
X79689249Y-81949060D01*
X79473179Y-81816653D01*
X79473176Y-81816651D01*
X79239049Y-81719673D01*
X78992639Y-81660516D01*
X78740000Y-81640633D01*
X78487360Y-81660516D01*
X78240950Y-81719673D01*
X78006823Y-81816651D01*
X78006820Y-81816653D01*
X77790750Y-81949060D01*
X77790749Y-81949061D01*
X77598046Y-82113646D01*
X77433461Y-82306349D01*
X77433460Y-82306350D01*
X77301053Y-82522420D01*
X77301051Y-82522423D01*
X77204073Y-82756550D01*
X77144916Y-83002960D01*
X77125033Y-83255600D01*
X75823481Y-83255600D01*
X75595632Y-82994087D01*
X75592793Y-82990709D01*
X74923611Y-82165097D01*
X74920894Y-82161620D01*
X74528490Y-81640633D01*
X74281518Y-81312733D01*
X74278931Y-81309169D01*
X73776460Y-80590172D01*
X73754193Y-80523945D01*
X73754100Y-80519141D01*
X73754100Y-73304401D01*
X94085518Y-73304401D01*
X94106155Y-73461160D01*
X94106156Y-73461162D01*
X94164343Y-73601639D01*
X94166664Y-73607241D01*
X94262918Y-73732682D01*
X94388359Y-73828936D01*
X94534438Y-73889444D01*
X94612819Y-73899763D01*
X94691199Y-73910082D01*
X94691200Y-73910082D01*
X94691201Y-73910082D01*
X94743454Y-73903202D01*
X94847962Y-73889444D01*
X94994041Y-73828936D01*
X95013842Y-73813741D01*
X95097013Y-73749924D01*
X95162182Y-73724730D01*
X95172499Y-73724300D01*
X106231399Y-73724300D01*
X106298438Y-73743985D01*
X106306885Y-73749924D01*
X106402557Y-73823335D01*
X106402558Y-73823335D01*
X106402559Y-73823336D01*
X106548638Y-73883844D01*
X106627019Y-73894163D01*
X106705399Y-73904482D01*
X106705400Y-73904482D01*
X106705401Y-73904482D01*
X106757654Y-73897602D01*
X106862162Y-73883844D01*
X107008241Y-73823336D01*
X107133682Y-73727082D01*
X107229936Y-73601641D01*
X107290444Y-73455562D01*
X107311082Y-73298800D01*
X107290444Y-73142038D01*
X107229936Y-72995959D01*
X107133682Y-72870518D01*
X107008241Y-72774264D01*
X106950348Y-72750284D01*
X106862162Y-72713756D01*
X106862160Y-72713755D01*
X106705401Y-72693118D01*
X106705399Y-72693118D01*
X106623562Y-72703892D01*
X106554527Y-72693126D01*
X106515283Y-72658295D01*
X106495862Y-72714953D01*
X106442094Y-72757888D01*
X106402557Y-72774264D01*
X106306885Y-72847676D01*
X106241715Y-72872870D01*
X106231399Y-72873300D01*
X99095186Y-72873300D01*
X99028147Y-72853615D01*
X98982392Y-72800811D01*
X98972448Y-72731653D01*
X99001473Y-72668097D01*
X99042781Y-72636918D01*
X99186915Y-72569706D01*
X99252342Y-72523894D01*
X98689575Y-71961127D01*
X98748853Y-71945245D01*
X98865147Y-71878102D01*
X98960102Y-71783147D01*
X99027245Y-71666853D01*
X99043128Y-71607575D01*
X99605894Y-72170342D01*
X99651706Y-72104915D01*
X99745250Y-71904309D01*
X99745254Y-71904300D01*
X99803941Y-71685275D01*
X99806343Y-71685918D01*
X99832647Y-71632707D01*
X99892556Y-71596753D01*
X99962393Y-71598896D01*
X100019985Y-71638456D01*
X100042485Y-71680750D01*
X100102844Y-71879723D01*
X100201779Y-72064818D01*
X100201783Y-72064825D01*
X100334932Y-72227067D01*
X100497174Y-72360216D01*
X100497181Y-72360220D01*
X100682272Y-72459153D01*
X100682278Y-72459156D01*
X100883126Y-72520083D01*
X101092000Y-72540655D01*
X101300874Y-72520083D01*
X101501722Y-72459156D01*
X101686824Y-72360217D01*
X101849067Y-72227067D01*
X101982217Y-72064824D01*
X102081156Y-71879722D01*
X102142083Y-71678874D01*
X102162655Y-71470000D01*
X102561345Y-71470000D01*
X102581917Y-71678876D01*
X102642844Y-71879723D01*
X102741779Y-72064818D01*
X102741783Y-72064825D01*
X102874932Y-72227067D01*
X103037174Y-72360216D01*
X103037181Y-72360220D01*
X103222272Y-72459153D01*
X103222278Y-72459156D01*
X103423126Y-72520083D01*
X103632000Y-72540655D01*
X103840874Y-72520083D01*
X104041722Y-72459156D01*
X104226824Y-72360217D01*
X104389067Y-72227067D01*
X104522217Y-72064824D01*
X104621156Y-71879722D01*
X104682083Y-71678874D01*
X104702655Y-71470000D01*
X105101345Y-71470000D01*
X105121917Y-71678876D01*
X105182844Y-71879723D01*
X105281779Y-72064818D01*
X105281783Y-72064825D01*
X105414932Y-72227067D01*
X105577174Y-72360216D01*
X105577181Y-72360220D01*
X105762272Y-72459153D01*
X105762278Y-72459156D01*
X105963126Y-72520083D01*
X106172000Y-72540655D01*
X106380874Y-72520083D01*
X106380874Y-72520082D01*
X106382487Y-72519924D01*
X106451133Y-72532943D01*
X106487178Y-72567108D01*
X106503867Y-72512677D01*
X106557211Y-72467554D01*
X106571372Y-72462295D01*
X106581722Y-72459156D01*
X106766824Y-72360217D01*
X106929067Y-72227067D01*
X107062217Y-72064824D01*
X107161156Y-71879722D01*
X107222083Y-71678874D01*
X107242655Y-71470000D01*
X107222083Y-71261126D01*
X107161156Y-71060278D01*
X107148018Y-71035699D01*
X107062220Y-70875181D01*
X107062216Y-70875174D01*
X106929067Y-70712932D01*
X106766825Y-70579783D01*
X106766818Y-70579779D01*
X106581723Y-70480844D01*
X106380876Y-70419917D01*
X106172000Y-70399345D01*
X105963123Y-70419917D01*
X105762276Y-70480844D01*
X105577181Y-70579779D01*
X105577174Y-70579783D01*
X105414932Y-70712932D01*
X105281783Y-70875174D01*
X105281779Y-70875181D01*
X105182844Y-71060276D01*
X105121917Y-71261123D01*
X105101345Y-71470000D01*
X104702655Y-71470000D01*
X104682083Y-71261126D01*
X104621156Y-71060278D01*
X104608018Y-71035699D01*
X104522220Y-70875181D01*
X104522216Y-70875174D01*
X104389067Y-70712932D01*
X104226825Y-70579783D01*
X104226818Y-70579779D01*
X104041723Y-70480844D01*
X103840876Y-70419917D01*
X103632000Y-70399345D01*
X103423123Y-70419917D01*
X103222276Y-70480844D01*
X103037181Y-70579779D01*
X103037174Y-70579783D01*
X102874932Y-70712932D01*
X102741783Y-70875174D01*
X102741779Y-70875181D01*
X102642844Y-71060276D01*
X102581917Y-71261123D01*
X102561345Y-71470000D01*
X102162655Y-71470000D01*
X102142083Y-71261126D01*
X102081156Y-71060278D01*
X102068018Y-71035699D01*
X101982220Y-70875181D01*
X101982216Y-70875174D01*
X101849067Y-70712932D01*
X101686825Y-70579783D01*
X101686818Y-70579779D01*
X101501723Y-70480844D01*
X101300876Y-70419917D01*
X101092000Y-70399345D01*
X100883123Y-70419917D01*
X100682276Y-70480844D01*
X100497181Y-70579779D01*
X100497174Y-70579783D01*
X100334932Y-70712932D01*
X100201783Y-70875174D01*
X100201779Y-70875181D01*
X100102844Y-71060276D01*
X100042485Y-71259249D01*
X100004187Y-71317688D01*
X99940375Y-71346144D01*
X99871308Y-71335583D01*
X99818915Y-71289358D01*
X99805409Y-71254331D01*
X99803941Y-71254725D01*
X99745254Y-71035699D01*
X99745250Y-71035690D01*
X99651707Y-70835085D01*
X99651706Y-70835083D01*
X99605894Y-70769657D01*
X99605894Y-70769656D01*
X99043127Y-71332423D01*
X99027245Y-71273147D01*
X98960102Y-71156853D01*
X98865147Y-71061898D01*
X98748853Y-70994755D01*
X98689575Y-70978872D01*
X99252342Y-70416105D01*
X99252341Y-70416103D01*
X99186919Y-70370295D01*
X98986309Y-70276749D01*
X98986300Y-70276745D01*
X98772509Y-70219461D01*
X98772499Y-70219459D01*
X98552001Y-70200168D01*
X98551999Y-70200168D01*
X98331500Y-70219459D01*
X98331490Y-70219461D01*
X98117699Y-70276745D01*
X98117690Y-70276749D01*
X97917084Y-70370293D01*
X97851657Y-70416104D01*
X98414424Y-70978871D01*
X98355147Y-70994755D01*
X98238853Y-71061898D01*
X98143898Y-71156853D01*
X98076755Y-71273147D01*
X98060871Y-71332424D01*
X97498104Y-70769657D01*
X97452293Y-70835084D01*
X97358749Y-71035690D01*
X97358745Y-71035699D01*
X97300059Y-71254725D01*
X97297698Y-71254092D01*
X97271198Y-71307459D01*
X97211222Y-71343303D01*
X97141390Y-71341032D01*
X97083871Y-71301366D01*
X97061514Y-71259251D01*
X97001156Y-71060278D01*
X97001153Y-71060274D01*
X97001153Y-71060271D01*
X96902220Y-70875181D01*
X96902216Y-70875174D01*
X96769067Y-70712932D01*
X96606825Y-70579783D01*
X96606818Y-70579779D01*
X96421723Y-70480844D01*
X96220876Y-70419917D01*
X96012000Y-70399345D01*
X95803123Y-70419917D01*
X95602276Y-70480844D01*
X95417181Y-70579779D01*
X95417174Y-70579783D01*
X95254932Y-70712932D01*
X95121783Y-70875174D01*
X95121779Y-70875181D01*
X95022844Y-71060276D01*
X94961917Y-71261123D01*
X94941345Y-71470000D01*
X94961917Y-71678876D01*
X95022844Y-71879723D01*
X95121779Y-72064818D01*
X95121783Y-72064825D01*
X95254932Y-72227067D01*
X95417174Y-72360216D01*
X95417181Y-72360220D01*
X95602272Y-72459153D01*
X95602278Y-72459156D01*
X95803126Y-72520083D01*
X96012000Y-72540655D01*
X96220874Y-72520083D01*
X96421722Y-72459156D01*
X96606824Y-72360217D01*
X96769067Y-72227067D01*
X96902217Y-72064824D01*
X97001156Y-71879722D01*
X97061514Y-71680749D01*
X97099811Y-71622312D01*
X97163623Y-71593856D01*
X97232690Y-71604416D01*
X97285084Y-71650640D01*
X97298613Y-71685662D01*
X97300059Y-71685275D01*
X97358745Y-71904300D01*
X97358749Y-71904309D01*
X97452295Y-72104919D01*
X97498103Y-72170341D01*
X97498105Y-72170342D01*
X98060871Y-71607575D01*
X98076755Y-71666853D01*
X98143898Y-71783147D01*
X98238853Y-71878102D01*
X98355147Y-71945245D01*
X98414424Y-71961128D01*
X97851656Y-72523894D01*
X97917083Y-72569706D01*
X97917085Y-72569707D01*
X98061219Y-72636918D01*
X98113658Y-72683090D01*
X98132810Y-72750284D01*
X98112594Y-72817165D01*
X98059429Y-72862499D01*
X98008814Y-72873300D01*
X95157902Y-72873300D01*
X95090863Y-72853615D01*
X95082416Y-72847676D01*
X94994042Y-72779864D01*
X94847962Y-72719356D01*
X94847960Y-72719355D01*
X94691201Y-72698718D01*
X94691199Y-72698718D01*
X94534439Y-72719355D01*
X94534437Y-72719356D01*
X94388360Y-72779863D01*
X94262918Y-72876118D01*
X94166663Y-73001560D01*
X94106156Y-73147637D01*
X94106155Y-73147639D01*
X94085518Y-73304398D01*
X94085518Y-73304401D01*
X73754100Y-73304401D01*
X73754100Y-71470000D01*
X89861345Y-71470000D01*
X89881917Y-71678876D01*
X89942844Y-71879723D01*
X90041779Y-72064818D01*
X90041783Y-72064825D01*
X90174932Y-72227067D01*
X90337174Y-72360216D01*
X90337181Y-72360220D01*
X90522272Y-72459153D01*
X90522278Y-72459156D01*
X90723126Y-72520083D01*
X90932000Y-72540655D01*
X91140874Y-72520083D01*
X91341722Y-72459156D01*
X91526824Y-72360217D01*
X91689067Y-72227067D01*
X91822217Y-72064824D01*
X91921156Y-71879722D01*
X91982083Y-71678874D01*
X92002655Y-71470000D01*
X92401345Y-71470000D01*
X92421917Y-71678876D01*
X92482844Y-71879723D01*
X92581779Y-72064818D01*
X92581783Y-72064825D01*
X92714932Y-72227067D01*
X92877174Y-72360216D01*
X92877181Y-72360220D01*
X93062272Y-72459153D01*
X93062278Y-72459156D01*
X93263126Y-72520083D01*
X93472000Y-72540655D01*
X93680874Y-72520083D01*
X93881722Y-72459156D01*
X94066824Y-72360217D01*
X94229067Y-72227067D01*
X94362217Y-72064824D01*
X94461156Y-71879722D01*
X94522083Y-71678874D01*
X94542655Y-71470000D01*
X94522083Y-71261126D01*
X94461156Y-71060278D01*
X94448018Y-71035699D01*
X94362220Y-70875181D01*
X94362216Y-70875174D01*
X94229067Y-70712932D01*
X94066825Y-70579783D01*
X94066818Y-70579779D01*
X93881723Y-70480844D01*
X93680876Y-70419917D01*
X93472000Y-70399345D01*
X93263123Y-70419917D01*
X93062276Y-70480844D01*
X92877181Y-70579779D01*
X92877174Y-70579783D01*
X92714932Y-70712932D01*
X92581783Y-70875174D01*
X92581779Y-70875181D01*
X92482844Y-71060276D01*
X92421917Y-71261123D01*
X92401345Y-71470000D01*
X92002655Y-71470000D01*
X91982083Y-71261126D01*
X91921156Y-71060278D01*
X91908018Y-71035699D01*
X91822220Y-70875181D01*
X91822216Y-70875174D01*
X91689067Y-70712932D01*
X91526825Y-70579783D01*
X91526818Y-70579779D01*
X91341723Y-70480844D01*
X91140876Y-70419917D01*
X90932000Y-70399345D01*
X90723123Y-70419917D01*
X90522276Y-70480844D01*
X90337181Y-70579779D01*
X90337174Y-70579783D01*
X90174932Y-70712932D01*
X90041783Y-70875174D01*
X90041779Y-70875181D01*
X89942844Y-71060276D01*
X89881917Y-71261123D01*
X89861345Y-71470000D01*
X73754100Y-71470000D01*
X73754100Y-68930000D01*
X89861345Y-68930000D01*
X89881917Y-69138876D01*
X89942844Y-69339723D01*
X90041779Y-69524818D01*
X90041783Y-69524825D01*
X90174932Y-69687067D01*
X90337174Y-69820216D01*
X90337181Y-69820220D01*
X90522276Y-69919155D01*
X90522278Y-69919156D01*
X90723126Y-69980083D01*
X90932000Y-70000655D01*
X91140874Y-69980083D01*
X91341722Y-69919156D01*
X91526824Y-69820217D01*
X91689067Y-69687067D01*
X91822217Y-69524824D01*
X91921156Y-69339722D01*
X91982083Y-69138874D01*
X92002655Y-68930000D01*
X105101345Y-68930000D01*
X105121917Y-69138876D01*
X105182844Y-69339723D01*
X105281779Y-69524818D01*
X105281783Y-69524825D01*
X105414932Y-69687067D01*
X105577174Y-69820216D01*
X105577181Y-69820220D01*
X105762276Y-69919155D01*
X105762278Y-69919156D01*
X105963126Y-69980083D01*
X106172000Y-70000655D01*
X106380874Y-69980083D01*
X106581722Y-69919156D01*
X106766824Y-69820217D01*
X106929067Y-69687067D01*
X107062217Y-69524824D01*
X107161156Y-69339722D01*
X107222083Y-69138874D01*
X107242655Y-68930000D01*
X107222083Y-68721126D01*
X107161156Y-68520278D01*
X107062217Y-68335176D01*
X107062216Y-68335174D01*
X106929067Y-68172932D01*
X106766825Y-68039783D01*
X106766818Y-68039779D01*
X106581723Y-67940844D01*
X106380876Y-67879917D01*
X106172000Y-67859345D01*
X105963123Y-67879917D01*
X105762276Y-67940844D01*
X105577181Y-68039779D01*
X105577174Y-68039783D01*
X105414932Y-68172932D01*
X105281783Y-68335174D01*
X105281779Y-68335181D01*
X105182844Y-68520276D01*
X105121917Y-68721123D01*
X105101345Y-68930000D01*
X92002655Y-68930000D01*
X91982083Y-68721126D01*
X91921156Y-68520278D01*
X91822217Y-68335176D01*
X91822216Y-68335174D01*
X91689067Y-68172932D01*
X91526825Y-68039783D01*
X91526818Y-68039779D01*
X91341723Y-67940844D01*
X91140876Y-67879917D01*
X90932000Y-67859345D01*
X90723123Y-67879917D01*
X90522276Y-67940844D01*
X90337181Y-68039779D01*
X90337174Y-68039783D01*
X90174932Y-68172932D01*
X90041783Y-68335174D01*
X90041779Y-68335181D01*
X89942844Y-68520276D01*
X89881917Y-68721123D01*
X89861345Y-68930000D01*
X73754100Y-68930000D01*
X73754100Y-66390000D01*
X89861345Y-66390000D01*
X89881917Y-66598876D01*
X89942844Y-66799723D01*
X90041779Y-66984818D01*
X90041783Y-66984825D01*
X90174932Y-67147067D01*
X90337174Y-67280216D01*
X90337181Y-67280220D01*
X90374260Y-67300039D01*
X90522278Y-67379156D01*
X90723126Y-67440083D01*
X90932000Y-67460655D01*
X91140874Y-67440083D01*
X91341722Y-67379156D01*
X91526824Y-67280217D01*
X91689067Y-67147067D01*
X91822217Y-66984824D01*
X91921156Y-66799722D01*
X91982083Y-66598874D01*
X92002655Y-66390000D01*
X105101345Y-66390000D01*
X105121917Y-66598876D01*
X105182844Y-66799723D01*
X105281779Y-66984818D01*
X105281783Y-66984825D01*
X105414932Y-67147067D01*
X105577174Y-67280216D01*
X105577181Y-67280220D01*
X105614260Y-67300039D01*
X105762278Y-67379156D01*
X105963126Y-67440083D01*
X106172000Y-67460655D01*
X106380874Y-67440083D01*
X106581722Y-67379156D01*
X106766824Y-67280217D01*
X106792432Y-67259201D01*
X108715918Y-67259201D01*
X108736555Y-67415960D01*
X108736556Y-67415962D01*
X108797064Y-67562041D01*
X108893318Y-67687482D01*
X109018759Y-67783736D01*
X109164838Y-67844244D01*
X109243219Y-67854563D01*
X109321599Y-67864882D01*
X109321600Y-67864882D01*
X109321601Y-67864882D01*
X109373854Y-67858002D01*
X109478362Y-67844244D01*
X109624441Y-67783736D01*
X109641928Y-67770317D01*
X109720115Y-67710324D01*
X109785285Y-67685130D01*
X109795601Y-67684700D01*
X111934368Y-67684700D01*
X112001407Y-67704385D01*
X112043522Y-67752988D01*
X112044198Y-67752599D01*
X112046221Y-67756103D01*
X112047162Y-67757189D01*
X112048124Y-67759399D01*
X112048264Y-67759641D01*
X112140554Y-67879917D01*
X112144518Y-67885082D01*
X112269959Y-67981336D01*
X112416038Y-68041844D01*
X112494419Y-68052163D01*
X112572799Y-68062482D01*
X112572800Y-68062482D01*
X112572801Y-68062482D01*
X112625054Y-68055602D01*
X112729562Y-68041844D01*
X112875641Y-67981336D01*
X113001082Y-67885082D01*
X113097336Y-67759641D01*
X113157844Y-67613562D01*
X113171602Y-67509054D01*
X113178482Y-67456801D01*
X113178482Y-67456798D01*
X113157844Y-67300039D01*
X113157844Y-67300038D01*
X113097336Y-67153959D01*
X113001082Y-67028518D01*
X113001078Y-67028515D01*
X112997834Y-67024287D01*
X112972640Y-66959118D01*
X112986678Y-66890673D01*
X112997834Y-66873313D01*
X113001078Y-66869084D01*
X113001082Y-66869082D01*
X113097336Y-66743641D01*
X113157844Y-66597562D01*
X113178482Y-66440800D01*
X113157844Y-66284038D01*
X113097336Y-66137959D01*
X113001082Y-66012518D01*
X112875641Y-65916264D01*
X112729562Y-65855756D01*
X112729560Y-65855755D01*
X112572801Y-65835118D01*
X112572799Y-65835118D01*
X112416039Y-65855755D01*
X112416037Y-65855756D01*
X112269957Y-65916264D01*
X112174285Y-65989676D01*
X112109115Y-66014870D01*
X112098799Y-66015300D01*
X109788302Y-66015300D01*
X109721263Y-65995615D01*
X109712816Y-65989676D01*
X109624442Y-65921864D01*
X109478362Y-65861356D01*
X109478360Y-65861355D01*
X109321601Y-65840718D01*
X109321599Y-65840718D01*
X109164839Y-65861355D01*
X109164837Y-65861356D01*
X109018760Y-65921863D01*
X108893318Y-66018118D01*
X108797063Y-66143560D01*
X108736556Y-66289637D01*
X108736555Y-66289639D01*
X108715918Y-66446398D01*
X108715918Y-66446401D01*
X108736555Y-66603160D01*
X108736556Y-66603162D01*
X108797064Y-66749241D01*
X108818605Y-66777315D01*
X108843798Y-66842485D01*
X108829759Y-66910929D01*
X108818605Y-66928285D01*
X108797064Y-66956358D01*
X108736556Y-67102437D01*
X108736555Y-67102439D01*
X108715918Y-67259198D01*
X108715918Y-67259201D01*
X106792432Y-67259201D01*
X106929067Y-67147067D01*
X107062217Y-66984824D01*
X107161156Y-66799722D01*
X107222083Y-66598874D01*
X107242655Y-66390000D01*
X107222083Y-66181126D01*
X107161156Y-65980278D01*
X107097591Y-65861356D01*
X107062220Y-65795181D01*
X107062216Y-65795174D01*
X106929067Y-65632932D01*
X106766825Y-65499783D01*
X106766818Y-65499779D01*
X106581723Y-65400844D01*
X106380876Y-65339917D01*
X106172000Y-65319345D01*
X105963123Y-65339917D01*
X105762276Y-65400844D01*
X105577181Y-65499779D01*
X105577174Y-65499783D01*
X105414932Y-65632932D01*
X105281783Y-65795174D01*
X105281779Y-65795181D01*
X105182844Y-65980276D01*
X105121917Y-66181123D01*
X105101345Y-66390000D01*
X92002655Y-66390000D01*
X91982083Y-66181126D01*
X91921156Y-65980278D01*
X91857591Y-65861356D01*
X91822220Y-65795181D01*
X91822216Y-65795174D01*
X91689067Y-65632932D01*
X91526825Y-65499783D01*
X91526818Y-65499779D01*
X91341723Y-65400844D01*
X91140876Y-65339917D01*
X90932000Y-65319345D01*
X90723123Y-65339917D01*
X90522276Y-65400844D01*
X90337181Y-65499779D01*
X90337174Y-65499783D01*
X90174932Y-65632932D01*
X90041783Y-65795174D01*
X90041779Y-65795181D01*
X89942844Y-65980276D01*
X89881917Y-66181123D01*
X89861345Y-66390000D01*
X73754100Y-66390000D01*
X73754100Y-63850000D01*
X89861345Y-63850000D01*
X89881917Y-64058876D01*
X89942844Y-64259723D01*
X90041779Y-64444818D01*
X90041783Y-64444825D01*
X90174932Y-64607067D01*
X90337174Y-64740216D01*
X90337181Y-64740220D01*
X90522276Y-64839155D01*
X90522278Y-64839156D01*
X90723126Y-64900083D01*
X90932000Y-64920655D01*
X91140874Y-64900083D01*
X91341722Y-64839156D01*
X91526824Y-64740217D01*
X91689067Y-64607067D01*
X91822217Y-64444824D01*
X91921156Y-64259722D01*
X91982083Y-64058874D01*
X92002655Y-63850000D01*
X91989388Y-63715301D01*
X103552018Y-63715301D01*
X103572655Y-63872060D01*
X103572656Y-63872062D01*
X103633164Y-64018141D01*
X103729418Y-64143582D01*
X103854859Y-64239836D01*
X104000938Y-64300344D01*
X104079319Y-64310663D01*
X104157699Y-64320982D01*
X104157700Y-64320982D01*
X104157701Y-64320982D01*
X104209954Y-64314102D01*
X104314462Y-64300344D01*
X104460541Y-64239836D01*
X104495138Y-64213289D01*
X104556215Y-64166424D01*
X104621385Y-64141230D01*
X104631701Y-64140800D01*
X105054805Y-64140800D01*
X105121844Y-64160485D01*
X105167599Y-64213289D01*
X105173462Y-64228795D01*
X105176812Y-64239836D01*
X105182845Y-64259726D01*
X105281779Y-64444818D01*
X105281783Y-64444825D01*
X105414932Y-64607067D01*
X105577174Y-64740216D01*
X105577181Y-64740220D01*
X105762276Y-64839155D01*
X105762278Y-64839156D01*
X105963126Y-64900083D01*
X106172000Y-64920655D01*
X106380874Y-64900083D01*
X106581722Y-64839156D01*
X106766824Y-64740217D01*
X106929067Y-64607067D01*
X107062217Y-64444824D01*
X107161156Y-64259722D01*
X107222083Y-64058874D01*
X107242655Y-63850000D01*
X107222083Y-63641126D01*
X107161156Y-63440278D01*
X107146287Y-63412460D01*
X107062220Y-63255181D01*
X107062216Y-63255174D01*
X106929067Y-63092932D01*
X106766825Y-62959783D01*
X106766818Y-62959779D01*
X106581723Y-62860844D01*
X106380876Y-62799917D01*
X106172000Y-62779345D01*
X105963123Y-62799917D01*
X105762276Y-62860844D01*
X105577181Y-62959779D01*
X105577174Y-62959783D01*
X105414932Y-63092932D01*
X105290573Y-63244465D01*
X105232827Y-63283799D01*
X105194720Y-63289800D01*
X104631701Y-63289800D01*
X104564662Y-63270115D01*
X104556215Y-63264176D01*
X104460542Y-63190764D01*
X104314462Y-63130256D01*
X104314460Y-63130255D01*
X104157701Y-63109618D01*
X104157699Y-63109618D01*
X104000939Y-63130255D01*
X104000937Y-63130256D01*
X103854860Y-63190763D01*
X103729418Y-63287018D01*
X103633163Y-63412460D01*
X103572656Y-63558537D01*
X103572655Y-63558539D01*
X103552018Y-63715298D01*
X103552018Y-63715301D01*
X91989388Y-63715301D01*
X91982083Y-63641126D01*
X91921156Y-63440278D01*
X91906287Y-63412460D01*
X91822220Y-63255181D01*
X91822216Y-63255174D01*
X91689067Y-63092932D01*
X91526825Y-62959783D01*
X91526818Y-62959779D01*
X91341723Y-62860844D01*
X91140876Y-62799917D01*
X90932000Y-62779345D01*
X90723123Y-62799917D01*
X90522276Y-62860844D01*
X90337181Y-62959779D01*
X90337174Y-62959783D01*
X90174932Y-63092932D01*
X90041783Y-63255174D01*
X90041779Y-63255181D01*
X89942844Y-63440276D01*
X89881917Y-63641123D01*
X89861345Y-63850000D01*
X73754100Y-63850000D01*
X73754100Y-61032000D01*
X79876769Y-61032000D01*
X79887242Y-61098126D01*
X79887242Y-61098129D01*
X79952904Y-61300217D01*
X80049379Y-61489557D01*
X80174272Y-61661459D01*
X80174276Y-61661464D01*
X80324535Y-61811723D01*
X80324540Y-61811727D01*
X80496442Y-61936620D01*
X80685782Y-62033095D01*
X80887870Y-62098757D01*
X81097754Y-62132000D01*
X81104000Y-62132000D01*
X81104000Y-61215012D01*
X81161007Y-61247925D01*
X81288174Y-61282000D01*
X81419826Y-61282000D01*
X81546993Y-61247925D01*
X81604000Y-61215012D01*
X81604000Y-62132000D01*
X81610246Y-62132000D01*
X81820127Y-62098757D01*
X81820130Y-62098757D01*
X82022217Y-62033095D01*
X82211557Y-61936620D01*
X82383459Y-61811727D01*
X82383464Y-61811723D01*
X82533723Y-61661464D01*
X82533727Y-61661459D01*
X82658620Y-61489557D01*
X82750110Y-61310000D01*
X89861345Y-61310000D01*
X89881917Y-61518876D01*
X89942844Y-61719723D01*
X90041779Y-61904818D01*
X90041783Y-61904825D01*
X90174932Y-62067067D01*
X90337174Y-62200216D01*
X90337181Y-62200220D01*
X90522276Y-62299155D01*
X90522278Y-62299156D01*
X90723126Y-62360083D01*
X90932000Y-62380655D01*
X91140874Y-62360083D01*
X91341722Y-62299156D01*
X91526824Y-62200217D01*
X91689067Y-62067067D01*
X91822217Y-61904824D01*
X91921156Y-61719722D01*
X91982083Y-61518874D01*
X92002655Y-61310000D01*
X105101345Y-61310000D01*
X105121917Y-61518876D01*
X105182844Y-61719723D01*
X105281779Y-61904818D01*
X105281783Y-61904825D01*
X105414932Y-62067067D01*
X105577174Y-62200216D01*
X105577181Y-62200220D01*
X105762276Y-62299155D01*
X105762278Y-62299156D01*
X105963126Y-62360083D01*
X106172000Y-62380655D01*
X106380874Y-62360083D01*
X106581722Y-62299156D01*
X106766824Y-62200217D01*
X106929067Y-62067067D01*
X107062217Y-61904824D01*
X107161156Y-61719722D01*
X107222083Y-61518874D01*
X107242655Y-61310000D01*
X107222083Y-61101126D01*
X107161156Y-60900278D01*
X107133120Y-60847826D01*
X107062220Y-60715181D01*
X107062216Y-60715174D01*
X106929067Y-60552932D01*
X106766825Y-60419783D01*
X106766818Y-60419779D01*
X106581723Y-60320844D01*
X106380876Y-60259917D01*
X106172000Y-60239345D01*
X105963123Y-60259917D01*
X105762276Y-60320844D01*
X105577181Y-60419779D01*
X105577174Y-60419783D01*
X105414932Y-60552932D01*
X105281783Y-60715174D01*
X105281779Y-60715181D01*
X105182844Y-60900276D01*
X105121917Y-61101123D01*
X105101345Y-61310000D01*
X92002655Y-61310000D01*
X91982083Y-61101126D01*
X91921156Y-60900278D01*
X91893120Y-60847826D01*
X91822220Y-60715181D01*
X91822216Y-60715174D01*
X91689067Y-60552932D01*
X91526825Y-60419783D01*
X91526818Y-60419779D01*
X91341723Y-60320844D01*
X91140876Y-60259917D01*
X90932000Y-60239345D01*
X90723123Y-60259917D01*
X90522276Y-60320844D01*
X90337181Y-60419779D01*
X90337174Y-60419783D01*
X90174932Y-60552932D01*
X90041783Y-60715174D01*
X90041779Y-60715181D01*
X89942844Y-60900276D01*
X89881917Y-61101123D01*
X89861345Y-61310000D01*
X82750110Y-61310000D01*
X82755095Y-61300217D01*
X82820757Y-61098129D01*
X82820757Y-61098126D01*
X82831231Y-61032000D01*
X81787012Y-61032000D01*
X81819925Y-60974993D01*
X81854000Y-60847826D01*
X81854000Y-60716174D01*
X81819925Y-60589007D01*
X81787012Y-60532000D01*
X82831231Y-60532000D01*
X82820757Y-60465873D01*
X82820757Y-60465870D01*
X82755095Y-60263782D01*
X82658620Y-60074442D01*
X82533727Y-59902540D01*
X82533723Y-59902535D01*
X82383464Y-59752276D01*
X82383459Y-59752272D01*
X82219439Y-59633105D01*
X82176773Y-59577775D01*
X82170794Y-59508162D01*
X82203399Y-59446367D01*
X82246831Y-59417433D01*
X82376342Y-59366361D01*
X82496922Y-59274922D01*
X82588361Y-59154342D01*
X82643877Y-59013564D01*
X82654500Y-58925102D01*
X82654500Y-58770000D01*
X89861345Y-58770000D01*
X89881917Y-58978876D01*
X89942844Y-59179723D01*
X90041779Y-59364818D01*
X90041783Y-59364825D01*
X90174932Y-59527067D01*
X90337174Y-59660216D01*
X90337181Y-59660220D01*
X90509399Y-59752272D01*
X90522278Y-59759156D01*
X90723126Y-59820083D01*
X90932000Y-59840655D01*
X91140874Y-59820083D01*
X91341722Y-59759156D01*
X91526824Y-59660217D01*
X91689067Y-59527067D01*
X91822217Y-59364824D01*
X91921156Y-59179722D01*
X91982083Y-58978874D01*
X92002655Y-58770000D01*
X105101345Y-58770000D01*
X105121917Y-58978876D01*
X105182844Y-59179723D01*
X105281779Y-59364818D01*
X105281783Y-59364825D01*
X105414932Y-59527067D01*
X105577174Y-59660216D01*
X105577181Y-59660220D01*
X105749399Y-59752272D01*
X105762278Y-59759156D01*
X105963126Y-59820083D01*
X106172000Y-59840655D01*
X106380874Y-59820083D01*
X106581722Y-59759156D01*
X106766824Y-59660217D01*
X106929067Y-59527067D01*
X107062217Y-59364824D01*
X107161156Y-59179722D01*
X107222083Y-58978874D01*
X107242655Y-58770000D01*
X107222083Y-58561126D01*
X107161156Y-58360278D01*
X107062217Y-58175176D01*
X107062216Y-58175174D01*
X106929067Y-58012932D01*
X106766825Y-57879783D01*
X106766818Y-57879779D01*
X106581723Y-57780844D01*
X106380876Y-57719917D01*
X106172000Y-57699345D01*
X105963123Y-57719917D01*
X105762276Y-57780844D01*
X105577181Y-57879779D01*
X105577174Y-57879783D01*
X105414932Y-58012932D01*
X105281783Y-58175174D01*
X105281779Y-58175181D01*
X105182844Y-58360276D01*
X105121917Y-58561123D01*
X105101345Y-58770000D01*
X92002655Y-58770000D01*
X91982083Y-58561126D01*
X91921156Y-58360278D01*
X91822217Y-58175176D01*
X91822216Y-58175174D01*
X91689067Y-58012932D01*
X91526825Y-57879783D01*
X91526818Y-57879779D01*
X91341723Y-57780844D01*
X91140876Y-57719917D01*
X90932000Y-57699345D01*
X90723123Y-57719917D01*
X90522276Y-57780844D01*
X90337181Y-57879779D01*
X90337174Y-57879783D01*
X90174932Y-58012932D01*
X90041783Y-58175174D01*
X90041779Y-58175181D01*
X89942844Y-58360276D01*
X89881917Y-58561123D01*
X89861345Y-58770000D01*
X82654500Y-58770000D01*
X82654500Y-57638898D01*
X82643877Y-57550436D01*
X82588361Y-57409658D01*
X82588360Y-57409657D01*
X82588360Y-57409656D01*
X82496922Y-57289077D01*
X82376343Y-57197639D01*
X82235561Y-57142122D01*
X82189926Y-57136642D01*
X82147102Y-57131500D01*
X80560898Y-57131500D01*
X80521853Y-57136188D01*
X80472438Y-57142122D01*
X80331656Y-57197639D01*
X80211077Y-57289077D01*
X80119639Y-57409656D01*
X80064122Y-57550438D01*
X80058188Y-57599853D01*
X80053500Y-57638898D01*
X80053500Y-58925102D01*
X80059126Y-58971954D01*
X80064122Y-59013561D01*
X80119639Y-59154343D01*
X80211077Y-59274922D01*
X80331658Y-59366361D01*
X80331660Y-59366362D01*
X80461165Y-59417433D01*
X80516309Y-59460338D01*
X80539502Y-59526246D01*
X80523381Y-59594231D01*
X80488560Y-59633105D01*
X80324540Y-59752272D01*
X80324535Y-59752276D01*
X80174276Y-59902535D01*
X80174272Y-59902540D01*
X80049379Y-60074442D01*
X79952904Y-60263782D01*
X79887242Y-60465870D01*
X79887242Y-60465873D01*
X79876769Y-60532000D01*
X80920988Y-60532000D01*
X80888075Y-60589007D01*
X80854000Y-60716174D01*
X80854000Y-60847826D01*
X80888075Y-60974993D01*
X80920988Y-61032000D01*
X79876769Y-61032000D01*
X73754100Y-61032000D01*
X73754100Y-56230000D01*
X89861345Y-56230000D01*
X89881917Y-56438876D01*
X89942844Y-56639723D01*
X90041779Y-56824818D01*
X90041783Y-56824825D01*
X90174932Y-56987067D01*
X90337174Y-57120216D01*
X90337181Y-57120220D01*
X90378157Y-57142122D01*
X90522278Y-57219156D01*
X90723126Y-57280083D01*
X90932000Y-57300655D01*
X91140874Y-57280083D01*
X91341722Y-57219156D01*
X91526824Y-57120217D01*
X91689067Y-56987067D01*
X91822217Y-56824824D01*
X91921156Y-56639722D01*
X91982083Y-56438874D01*
X92002655Y-56230000D01*
X105101345Y-56230000D01*
X105121917Y-56438876D01*
X105182844Y-56639723D01*
X105281779Y-56824818D01*
X105281783Y-56824825D01*
X105414932Y-56987067D01*
X105577174Y-57120216D01*
X105577181Y-57120220D01*
X105618157Y-57142122D01*
X105762278Y-57219156D01*
X105963126Y-57280083D01*
X106172000Y-57300655D01*
X106380874Y-57280083D01*
X106581722Y-57219156D01*
X106766824Y-57120217D01*
X106929067Y-56987067D01*
X107062217Y-56824824D01*
X107161156Y-56639722D01*
X107222083Y-56438874D01*
X107242655Y-56230000D01*
X107222083Y-56021126D01*
X107161156Y-55820278D01*
X107062217Y-55635176D01*
X107062216Y-55635174D01*
X106929067Y-55472932D01*
X106766825Y-55339783D01*
X106766818Y-55339779D01*
X106581723Y-55240844D01*
X106380876Y-55179917D01*
X106172000Y-55159345D01*
X105963123Y-55179917D01*
X105762276Y-55240844D01*
X105577181Y-55339779D01*
X105577174Y-55339783D01*
X105414932Y-55472932D01*
X105281783Y-55635174D01*
X105281779Y-55635181D01*
X105182844Y-55820276D01*
X105121917Y-56021123D01*
X105101345Y-56230000D01*
X92002655Y-56230000D01*
X91982083Y-56021126D01*
X91921156Y-55820278D01*
X91822217Y-55635176D01*
X91822216Y-55635174D01*
X91689067Y-55472932D01*
X91526825Y-55339783D01*
X91526818Y-55339779D01*
X91341723Y-55240844D01*
X91140876Y-55179917D01*
X90932000Y-55159345D01*
X90723123Y-55179917D01*
X90522276Y-55240844D01*
X90337181Y-55339779D01*
X90337174Y-55339783D01*
X90174932Y-55472932D01*
X90041783Y-55635174D01*
X90041779Y-55635181D01*
X89942844Y-55820276D01*
X89881917Y-56021123D01*
X89861345Y-56230000D01*
X73754100Y-56230000D01*
X73754100Y-53690000D01*
X89861345Y-53690000D01*
X89881917Y-53898876D01*
X89942844Y-54099723D01*
X90041779Y-54284818D01*
X90041783Y-54284825D01*
X90174932Y-54447067D01*
X90337174Y-54580216D01*
X90337181Y-54580220D01*
X90522276Y-54679155D01*
X90522278Y-54679156D01*
X90723126Y-54740083D01*
X90932000Y-54760655D01*
X91140874Y-54740083D01*
X91341722Y-54679156D01*
X91526824Y-54580217D01*
X91689067Y-54447067D01*
X91822217Y-54284824D01*
X91921156Y-54099722D01*
X91982083Y-53898874D01*
X92002655Y-53690000D01*
X105101345Y-53690000D01*
X105121917Y-53898876D01*
X105182844Y-54099723D01*
X105281779Y-54284818D01*
X105281783Y-54284825D01*
X105414932Y-54447067D01*
X105577174Y-54580216D01*
X105577181Y-54580220D01*
X105762276Y-54679155D01*
X105762278Y-54679156D01*
X105963126Y-54740083D01*
X106172000Y-54760655D01*
X106380874Y-54740083D01*
X106581722Y-54679156D01*
X106766824Y-54580217D01*
X106929067Y-54447067D01*
X107062217Y-54284824D01*
X107161156Y-54099722D01*
X107222083Y-53898874D01*
X107242655Y-53690000D01*
X107222083Y-53481126D01*
X107161156Y-53280278D01*
X107062217Y-53095176D01*
X107062216Y-53095174D01*
X106929067Y-52932932D01*
X106766825Y-52799783D01*
X106766818Y-52799779D01*
X106581723Y-52700844D01*
X106380876Y-52639917D01*
X106172000Y-52619345D01*
X105963123Y-52639917D01*
X105762276Y-52700844D01*
X105577181Y-52799779D01*
X105577174Y-52799783D01*
X105414932Y-52932932D01*
X105281783Y-53095174D01*
X105281779Y-53095181D01*
X105182844Y-53280276D01*
X105121917Y-53481123D01*
X105101345Y-53690000D01*
X92002655Y-53690000D01*
X91982083Y-53481126D01*
X91921156Y-53280278D01*
X91822217Y-53095176D01*
X91822216Y-53095174D01*
X91689067Y-52932932D01*
X91526825Y-52799783D01*
X91526818Y-52799779D01*
X91341723Y-52700844D01*
X91140876Y-52639917D01*
X90932000Y-52619345D01*
X90723123Y-52639917D01*
X90522276Y-52700844D01*
X90337181Y-52799779D01*
X90337174Y-52799783D01*
X90174932Y-52932932D01*
X90041783Y-53095174D01*
X90041779Y-53095181D01*
X89942844Y-53280276D01*
X89881917Y-53481123D01*
X89861345Y-53690000D01*
X73754100Y-53690000D01*
X73754100Y-51150000D01*
X89861345Y-51150000D01*
X89881917Y-51358876D01*
X89942844Y-51559723D01*
X90041779Y-51744818D01*
X90041783Y-51744825D01*
X90174932Y-51907067D01*
X90337174Y-52040216D01*
X90337181Y-52040220D01*
X90446274Y-52098531D01*
X90522278Y-52139156D01*
X90723126Y-52200083D01*
X90932000Y-52220655D01*
X91140874Y-52200083D01*
X91341722Y-52139156D01*
X91526824Y-52040217D01*
X91689067Y-51907067D01*
X91822217Y-51744824D01*
X91921156Y-51559722D01*
X91982083Y-51358874D01*
X92002655Y-51150000D01*
X105101345Y-51150000D01*
X105121917Y-51358876D01*
X105182844Y-51559723D01*
X105281779Y-51744818D01*
X105281783Y-51744825D01*
X105414932Y-51907067D01*
X105577174Y-52040216D01*
X105577181Y-52040220D01*
X105686274Y-52098531D01*
X105762278Y-52139156D01*
X105963126Y-52200083D01*
X106172000Y-52220655D01*
X106380874Y-52200083D01*
X106581722Y-52139156D01*
X106766824Y-52040217D01*
X106929067Y-51907067D01*
X106993180Y-51828946D01*
X112229611Y-51828946D01*
X112250248Y-51985705D01*
X112250249Y-51985707D01*
X112281573Y-52061331D01*
X112310757Y-52131786D01*
X112407011Y-52257227D01*
X112532452Y-52353481D01*
X112678531Y-52413989D01*
X112756912Y-52424308D01*
X112835292Y-52434627D01*
X112835293Y-52434627D01*
X112835294Y-52434627D01*
X112866645Y-52430499D01*
X112992055Y-52413989D01*
X112997051Y-52411919D01*
X113066515Y-52404447D01*
X113128997Y-52435717D01*
X113142882Y-52450990D01*
X113172518Y-52489613D01*
X113297959Y-52585867D01*
X113444038Y-52646375D01*
X113522419Y-52656694D01*
X113600799Y-52667013D01*
X113600800Y-52667013D01*
X113600801Y-52667013D01*
X113653054Y-52660133D01*
X113757562Y-52646375D01*
X113903641Y-52585867D01*
X114029082Y-52489613D01*
X114125336Y-52364172D01*
X114185844Y-52218093D01*
X114201584Y-52098529D01*
X114229850Y-52034635D01*
X114236830Y-52027047D01*
X115034088Y-51229791D01*
X115090106Y-51132765D01*
X115119103Y-51024546D01*
X115119103Y-50912509D01*
X115119103Y-50049199D01*
X115138788Y-49982160D01*
X115144713Y-49973731D01*
X115218139Y-49878041D01*
X115278647Y-49731962D01*
X115299285Y-49575200D01*
X115278647Y-49418438D01*
X115218139Y-49272359D01*
X115121885Y-49146918D01*
X114996444Y-49050664D01*
X114850365Y-48990156D01*
X114850363Y-48990155D01*
X114693604Y-48969518D01*
X114693602Y-48969518D01*
X114536842Y-48990155D01*
X114536840Y-48990156D01*
X114390759Y-49050665D01*
X114369084Y-49067296D01*
X114303914Y-49092488D01*
X114235470Y-49078448D01*
X114218116Y-49067295D01*
X114196441Y-49050664D01*
X114050362Y-48990156D01*
X114050360Y-48990155D01*
X113893601Y-48969518D01*
X113893599Y-48969518D01*
X113736839Y-48990155D01*
X113736837Y-48990156D01*
X113590760Y-49050663D01*
X113465318Y-49146918D01*
X113369063Y-49272360D01*
X113308556Y-49418437D01*
X113308555Y-49418439D01*
X113287918Y-49575198D01*
X113287918Y-49575201D01*
X113308555Y-49731960D01*
X113308556Y-49731962D01*
X113369064Y-49878041D01*
X113442477Y-49973715D01*
X113467670Y-50038881D01*
X113468100Y-50049199D01*
X113468100Y-50657036D01*
X113448415Y-50724075D01*
X113431781Y-50744717D01*
X112982753Y-51193744D01*
X112921430Y-51227229D01*
X112878887Y-51229002D01*
X112835294Y-51223263D01*
X112835292Y-51223263D01*
X112678532Y-51243900D01*
X112678530Y-51243901D01*
X112532453Y-51304408D01*
X112407011Y-51400663D01*
X112310756Y-51526105D01*
X112250249Y-51672182D01*
X112250248Y-51672184D01*
X112229611Y-51828943D01*
X112229611Y-51828946D01*
X106993180Y-51828946D01*
X107062217Y-51744824D01*
X107161156Y-51559722D01*
X107222083Y-51358874D01*
X107242655Y-51150000D01*
X107222083Y-50941126D01*
X107161156Y-50740278D01*
X107062217Y-50555176D01*
X107062216Y-50555174D01*
X106929067Y-50392932D01*
X106766825Y-50259783D01*
X106766818Y-50259779D01*
X106581723Y-50160844D01*
X106380876Y-50099917D01*
X106172000Y-50079345D01*
X105963123Y-50099917D01*
X105762276Y-50160844D01*
X105577181Y-50259779D01*
X105577174Y-50259783D01*
X105414932Y-50392932D01*
X105281783Y-50555174D01*
X105281779Y-50555181D01*
X105182844Y-50740276D01*
X105121917Y-50941123D01*
X105101345Y-51150000D01*
X92002655Y-51150000D01*
X91982083Y-50941126D01*
X91921156Y-50740278D01*
X91822217Y-50555176D01*
X91822216Y-50555174D01*
X91689067Y-50392932D01*
X91526825Y-50259783D01*
X91526818Y-50259779D01*
X91341723Y-50160844D01*
X91140876Y-50099917D01*
X90932000Y-50079345D01*
X90723123Y-50099917D01*
X90522276Y-50160844D01*
X90337181Y-50259779D01*
X90337174Y-50259783D01*
X90174932Y-50392932D01*
X90041783Y-50555174D01*
X90041779Y-50555181D01*
X89942844Y-50740276D01*
X89881917Y-50941123D01*
X89861345Y-51150000D01*
X73754100Y-51150000D01*
X73754100Y-48610000D01*
X89861345Y-48610000D01*
X89881917Y-48818876D01*
X89942844Y-49019723D01*
X90041779Y-49204818D01*
X90041783Y-49204825D01*
X90174932Y-49367067D01*
X90337174Y-49500216D01*
X90337181Y-49500220D01*
X90477459Y-49575200D01*
X90522278Y-49599156D01*
X90723126Y-49660083D01*
X90932000Y-49680655D01*
X91140874Y-49660083D01*
X91341722Y-49599156D01*
X91526824Y-49500217D01*
X91689067Y-49367067D01*
X91822217Y-49204824D01*
X91921156Y-49019722D01*
X91982083Y-48818874D01*
X92002655Y-48610000D01*
X105101345Y-48610000D01*
X105121917Y-48818876D01*
X105182844Y-49019723D01*
X105281779Y-49204818D01*
X105281783Y-49204825D01*
X105414932Y-49367067D01*
X105577174Y-49500216D01*
X105577181Y-49500220D01*
X105717459Y-49575200D01*
X105762278Y-49599156D01*
X105963126Y-49660083D01*
X106172000Y-49680655D01*
X106380874Y-49660083D01*
X106581722Y-49599156D01*
X106766824Y-49500217D01*
X106929067Y-49367067D01*
X107062217Y-49204824D01*
X107161156Y-49019722D01*
X107222083Y-48818874D01*
X107242655Y-48610000D01*
X107222083Y-48401126D01*
X107162164Y-48203601D01*
X111560718Y-48203601D01*
X111581355Y-48360360D01*
X111581356Y-48360362D01*
X111641864Y-48506441D01*
X111738118Y-48631882D01*
X111863559Y-48728136D01*
X112009638Y-48788644D01*
X112088019Y-48798963D01*
X112166399Y-48809282D01*
X112166400Y-48809282D01*
X112166401Y-48809282D01*
X112218654Y-48802402D01*
X112323162Y-48788644D01*
X112469241Y-48728136D01*
X112486728Y-48714717D01*
X112564915Y-48654724D01*
X112630085Y-48629530D01*
X112640401Y-48629100D01*
X114841999Y-48629100D01*
X114909038Y-48648785D01*
X114917485Y-48654724D01*
X115013157Y-48728135D01*
X115013158Y-48728135D01*
X115013159Y-48728136D01*
X115159238Y-48788644D01*
X115237619Y-48798963D01*
X115315999Y-48809282D01*
X115316000Y-48809282D01*
X115316001Y-48809282D01*
X115368254Y-48802402D01*
X115472762Y-48788644D01*
X115618841Y-48728136D01*
X115744282Y-48631882D01*
X115840536Y-48506441D01*
X115901044Y-48360362D01*
X115921682Y-48203600D01*
X115906095Y-48085206D01*
X115916860Y-48016173D01*
X115963240Y-47963917D01*
X115981579Y-47954463D01*
X116076041Y-47915336D01*
X116201482Y-47819082D01*
X116297736Y-47693641D01*
X116358244Y-47547562D01*
X116378882Y-47390800D01*
X116358244Y-47234038D01*
X116297736Y-47087959D01*
X116201482Y-46962518D01*
X116076041Y-46866264D01*
X115929962Y-46805756D01*
X115929960Y-46805755D01*
X115773201Y-46785118D01*
X115773199Y-46785118D01*
X115616439Y-46805755D01*
X115616437Y-46805756D01*
X115470357Y-46866264D01*
X115374685Y-46939676D01*
X115309515Y-46964870D01*
X115299199Y-46965300D01*
X112640401Y-46965300D01*
X112573362Y-46945615D01*
X112564915Y-46939676D01*
X112469242Y-46866264D01*
X112323162Y-46805756D01*
X112323160Y-46805755D01*
X112166401Y-46785118D01*
X112166399Y-46785118D01*
X112009639Y-46805755D01*
X112009637Y-46805756D01*
X111863560Y-46866263D01*
X111738118Y-46962518D01*
X111641863Y-47087960D01*
X111581356Y-47234037D01*
X111581355Y-47234039D01*
X111560718Y-47390798D01*
X111560718Y-47390801D01*
X111581355Y-47547560D01*
X111581356Y-47547562D01*
X111641864Y-47693641D01*
X111663405Y-47721715D01*
X111688598Y-47786885D01*
X111674559Y-47855329D01*
X111663405Y-47872685D01*
X111641864Y-47900758D01*
X111581356Y-48046837D01*
X111581355Y-48046839D01*
X111560718Y-48203598D01*
X111560718Y-48203601D01*
X107162164Y-48203601D01*
X107161156Y-48200278D01*
X107161155Y-48200276D01*
X107062220Y-48015181D01*
X107062216Y-48015174D01*
X106929067Y-47852932D01*
X106766825Y-47719783D01*
X106766818Y-47719779D01*
X106581723Y-47620844D01*
X106380876Y-47559917D01*
X106172000Y-47539345D01*
X105963123Y-47559917D01*
X105762276Y-47620844D01*
X105577181Y-47719779D01*
X105577174Y-47719783D01*
X105414932Y-47852932D01*
X105281783Y-48015174D01*
X105281779Y-48015181D01*
X105182844Y-48200276D01*
X105121917Y-48401123D01*
X105101345Y-48610000D01*
X92002655Y-48610000D01*
X91982083Y-48401126D01*
X91921156Y-48200278D01*
X91921155Y-48200276D01*
X91822220Y-48015181D01*
X91822216Y-48015174D01*
X91689067Y-47852932D01*
X91526825Y-47719783D01*
X91526818Y-47719779D01*
X91341723Y-47620844D01*
X91140876Y-47559917D01*
X90932000Y-47539345D01*
X90723123Y-47559917D01*
X90522276Y-47620844D01*
X90337181Y-47719779D01*
X90337174Y-47719783D01*
X90174932Y-47852932D01*
X90041783Y-48015174D01*
X90041779Y-48015181D01*
X89942844Y-48200276D01*
X89881917Y-48401123D01*
X89861345Y-48610000D01*
X73754100Y-48610000D01*
X73754100Y-46876057D01*
X73773785Y-46809018D01*
X73776460Y-46805026D01*
X73830220Y-46728101D01*
X74278935Y-46086024D01*
X74281523Y-46082460D01*
X74290908Y-46070000D01*
X89861345Y-46070000D01*
X89881917Y-46278876D01*
X89942844Y-46479723D01*
X90041779Y-46664818D01*
X90041783Y-46664825D01*
X90174932Y-46827067D01*
X90337174Y-46960216D01*
X90337181Y-46960220D01*
X90522276Y-47059155D01*
X90522278Y-47059156D01*
X90723126Y-47120083D01*
X90932000Y-47140655D01*
X91140874Y-47120083D01*
X91341722Y-47059156D01*
X91526824Y-46960217D01*
X91689067Y-46827067D01*
X91822217Y-46664824D01*
X91921156Y-46479722D01*
X91982083Y-46278874D01*
X92002655Y-46070000D01*
X105101345Y-46070000D01*
X105121917Y-46278876D01*
X105182844Y-46479723D01*
X105281779Y-46664818D01*
X105281783Y-46664825D01*
X105414932Y-46827067D01*
X105577174Y-46960216D01*
X105577181Y-46960220D01*
X105762276Y-47059155D01*
X105762278Y-47059156D01*
X105963126Y-47120083D01*
X106172000Y-47140655D01*
X106380874Y-47120083D01*
X106581722Y-47059156D01*
X106766824Y-46960217D01*
X106929067Y-46827067D01*
X107062217Y-46664824D01*
X107161156Y-46479722D01*
X107222083Y-46278874D01*
X107242655Y-46070000D01*
X107222083Y-45861126D01*
X107161156Y-45660278D01*
X107161155Y-45660276D01*
X107062220Y-45475181D01*
X107062216Y-45475174D01*
X106929067Y-45312932D01*
X106766825Y-45179783D01*
X106766818Y-45179779D01*
X106581723Y-45080844D01*
X106380876Y-45019917D01*
X106172000Y-44999345D01*
X105963123Y-45019917D01*
X105762276Y-45080844D01*
X105577181Y-45179779D01*
X105577174Y-45179783D01*
X105414932Y-45312932D01*
X105281783Y-45475174D01*
X105281779Y-45475181D01*
X105182844Y-45660276D01*
X105121917Y-45861123D01*
X105101345Y-46070000D01*
X92002655Y-46070000D01*
X91982083Y-45861126D01*
X91921156Y-45660278D01*
X91921155Y-45660276D01*
X91822220Y-45475181D01*
X91822216Y-45475174D01*
X91689067Y-45312932D01*
X91526825Y-45179783D01*
X91526818Y-45179779D01*
X91341723Y-45080844D01*
X91140876Y-45019917D01*
X90932000Y-44999345D01*
X90723123Y-45019917D01*
X90522276Y-45080844D01*
X90337181Y-45179779D01*
X90337174Y-45179783D01*
X90174932Y-45312932D01*
X90041783Y-45475174D01*
X90041779Y-45475181D01*
X89942844Y-45660276D01*
X89881917Y-45861123D01*
X89861345Y-46070000D01*
X74290908Y-46070000D01*
X74920910Y-45233557D01*
X74923594Y-45230123D01*
X75592814Y-44404464D01*
X75595610Y-44401137D01*
X75823480Y-44139600D01*
X77125033Y-44139600D01*
X77144916Y-44392239D01*
X77204073Y-44638649D01*
X77301051Y-44872776D01*
X77301053Y-44872779D01*
X77433460Y-45088849D01*
X77433461Y-45088850D01*
X77433462Y-45088852D01*
X77433464Y-45088854D01*
X77598046Y-45281554D01*
X77790746Y-45446136D01*
X77790748Y-45446137D01*
X77790749Y-45446138D01*
X77790750Y-45446139D01*
X78006820Y-45578546D01*
X78006823Y-45578548D01*
X78240950Y-45675526D01*
X78469881Y-45730486D01*
X78487364Y-45734684D01*
X78740000Y-45754567D01*
X78992636Y-45734684D01*
X79115844Y-45705104D01*
X79239049Y-45675526D01*
X79239050Y-45675525D01*
X79239052Y-45675525D01*
X79336027Y-45635356D01*
X79473176Y-45578548D01*
X79473177Y-45578547D01*
X79473180Y-45578546D01*
X79689254Y-45446136D01*
X79881954Y-45281554D01*
X80046536Y-45088854D01*
X80178946Y-44872780D01*
X80275925Y-44638652D01*
X80285048Y-44600654D01*
X80322634Y-44444095D01*
X80335084Y-44392236D01*
X80354967Y-44139600D01*
X80335084Y-43886964D01*
X80322634Y-43835106D01*
X80275926Y-43640550D01*
X80230135Y-43530000D01*
X89861345Y-43530000D01*
X89881917Y-43738876D01*
X89942844Y-43939723D01*
X90041779Y-44124818D01*
X90041783Y-44124825D01*
X90174932Y-44287067D01*
X90337174Y-44420216D01*
X90337181Y-44420220D01*
X90522276Y-44519155D01*
X90522278Y-44519156D01*
X90723126Y-44580083D01*
X90932000Y-44600655D01*
X91140874Y-44580083D01*
X91341722Y-44519156D01*
X91526824Y-44420217D01*
X91689067Y-44287067D01*
X91822217Y-44124824D01*
X91921156Y-43939722D01*
X91982083Y-43738874D01*
X92002655Y-43530000D01*
X91982083Y-43321126D01*
X91921156Y-43120278D01*
X91822217Y-42935176D01*
X91822216Y-42935174D01*
X91689067Y-42772932D01*
X91526825Y-42639783D01*
X91526818Y-42639779D01*
X91341723Y-42540844D01*
X91140876Y-42479917D01*
X90932000Y-42459345D01*
X90723123Y-42479917D01*
X90522276Y-42540844D01*
X90337181Y-42639779D01*
X90337174Y-42639783D01*
X90174932Y-42772932D01*
X90041783Y-42935174D01*
X90041779Y-42935181D01*
X89942844Y-43120276D01*
X89881917Y-43321123D01*
X89861345Y-43530000D01*
X80230135Y-43530000D01*
X80178948Y-43406423D01*
X80178946Y-43406420D01*
X80046539Y-43190350D01*
X80046538Y-43190349D01*
X80046537Y-43190348D01*
X80046536Y-43190346D01*
X79881954Y-42997646D01*
X79689254Y-42833064D01*
X79689252Y-42833062D01*
X79689250Y-42833061D01*
X79689249Y-42833060D01*
X79473179Y-42700653D01*
X79473176Y-42700651D01*
X79239049Y-42603673D01*
X78992639Y-42544516D01*
X78740000Y-42524633D01*
X78487360Y-42544516D01*
X78240950Y-42603673D01*
X78006823Y-42700651D01*
X78006820Y-42700653D01*
X77790750Y-42833060D01*
X77790749Y-42833061D01*
X77598046Y-42997646D01*
X77433461Y-43190349D01*
X77433460Y-43190350D01*
X77301053Y-43406420D01*
X77301051Y-43406423D01*
X77204073Y-43640550D01*
X77144916Y-43886960D01*
X77125033Y-44139600D01*
X75823480Y-44139600D01*
X76293790Y-43599805D01*
X76296677Y-43596607D01*
X77022973Y-42820570D01*
X77025945Y-42817506D01*
X77779377Y-42067819D01*
X77782459Y-42064859D01*
X78562096Y-41342442D01*
X78565338Y-41339546D01*
X79002661Y-40962333D01*
X79370106Y-40645393D01*
X79373435Y-40642622D01*
X80202460Y-39977488D01*
X80205870Y-39974851D01*
X81057998Y-39339661D01*
X81061519Y-39337132D01*
X81935710Y-38732660D01*
X81939330Y-38730251D01*
X82377151Y-38450000D01*
X89662168Y-38450000D01*
X89681459Y-38670499D01*
X89681461Y-38670509D01*
X89738745Y-38884300D01*
X89738749Y-38884309D01*
X89832295Y-39084919D01*
X89878103Y-39150341D01*
X89878105Y-39150342D01*
X90440871Y-38587575D01*
X90456755Y-38646853D01*
X90523898Y-38763147D01*
X90618853Y-38858102D01*
X90735147Y-38925245D01*
X90794424Y-38941128D01*
X90231656Y-39503894D01*
X90297083Y-39549706D01*
X90297085Y-39549707D01*
X90497690Y-39643250D01*
X90497699Y-39643254D01*
X90716725Y-39701941D01*
X90716082Y-39704338D01*
X90769317Y-39730670D01*
X90805254Y-39790589D01*
X90803092Y-39860425D01*
X90763517Y-39918006D01*
X90721249Y-39940485D01*
X90522276Y-40000844D01*
X90337181Y-40099779D01*
X90337174Y-40099783D01*
X90174932Y-40232932D01*
X90041783Y-40395174D01*
X90041779Y-40395181D01*
X89942844Y-40580276D01*
X89881917Y-40781123D01*
X89861345Y-40990000D01*
X89881917Y-41198876D01*
X89942844Y-41399723D01*
X90041779Y-41584818D01*
X90041783Y-41584825D01*
X90174932Y-41747067D01*
X90337174Y-41880216D01*
X90337181Y-41880220D01*
X90522276Y-41979155D01*
X90522278Y-41979156D01*
X90723126Y-42040083D01*
X90932000Y-42060655D01*
X91140874Y-42040083D01*
X91341722Y-41979156D01*
X91526824Y-41880217D01*
X91689067Y-41747067D01*
X91822217Y-41584824D01*
X91921156Y-41399722D01*
X91982083Y-41198874D01*
X92002655Y-40990000D01*
X104902168Y-40990000D01*
X104921459Y-41210499D01*
X104921461Y-41210509D01*
X104978745Y-41424300D01*
X104978749Y-41424309D01*
X105072295Y-41624919D01*
X105118103Y-41690341D01*
X105118105Y-41690342D01*
X105680871Y-41127575D01*
X105696755Y-41186853D01*
X105763898Y-41303147D01*
X105858853Y-41398102D01*
X105975147Y-41465245D01*
X106034424Y-41481128D01*
X105471656Y-42043894D01*
X105537083Y-42089706D01*
X105537085Y-42089707D01*
X105737690Y-42183250D01*
X105737699Y-42183254D01*
X105956725Y-42241941D01*
X105956082Y-42244338D01*
X106009317Y-42270670D01*
X106045254Y-42330589D01*
X106043092Y-42400425D01*
X106003517Y-42458006D01*
X105961249Y-42480485D01*
X105762276Y-42540844D01*
X105577181Y-42639779D01*
X105577174Y-42639783D01*
X105414932Y-42772932D01*
X105281783Y-42935174D01*
X105281779Y-42935181D01*
X105182844Y-43120276D01*
X105121917Y-43321123D01*
X105101345Y-43530000D01*
X105121917Y-43738876D01*
X105182844Y-43939723D01*
X105281779Y-44124818D01*
X105281783Y-44124825D01*
X105414932Y-44287067D01*
X105577174Y-44420216D01*
X105577181Y-44420220D01*
X105762276Y-44519155D01*
X105762278Y-44519156D01*
X105963126Y-44580083D01*
X106172000Y-44600655D01*
X106380874Y-44580083D01*
X106581722Y-44519156D01*
X106766824Y-44420217D01*
X106929067Y-44287067D01*
X107050091Y-44139600D01*
X116749033Y-44139600D01*
X116768916Y-44392239D01*
X116828073Y-44638649D01*
X116925051Y-44872776D01*
X116925053Y-44872779D01*
X117057460Y-45088849D01*
X117057461Y-45088850D01*
X117057462Y-45088852D01*
X117057464Y-45088854D01*
X117222046Y-45281554D01*
X117414746Y-45446136D01*
X117414748Y-45446137D01*
X117414749Y-45446138D01*
X117414750Y-45446139D01*
X117630820Y-45578546D01*
X117630823Y-45578548D01*
X117864950Y-45675526D01*
X118093881Y-45730486D01*
X118111364Y-45734684D01*
X118364000Y-45754567D01*
X118616636Y-45734684D01*
X118739844Y-45705104D01*
X118863049Y-45675526D01*
X118863050Y-45675525D01*
X118863052Y-45675525D01*
X118960027Y-45635356D01*
X119097176Y-45578548D01*
X119097177Y-45578547D01*
X119097180Y-45578546D01*
X119313254Y-45446136D01*
X119505954Y-45281554D01*
X119670536Y-45088854D01*
X119802946Y-44872780D01*
X119899925Y-44638652D01*
X119909048Y-44600654D01*
X119946634Y-44444095D01*
X119959084Y-44392236D01*
X119978967Y-44139600D01*
X119959084Y-43886964D01*
X119946634Y-43835106D01*
X119899926Y-43640550D01*
X119802948Y-43406423D01*
X119802946Y-43406420D01*
X119670539Y-43190350D01*
X119670538Y-43190349D01*
X119670537Y-43190348D01*
X119670536Y-43190346D01*
X119505954Y-42997646D01*
X119313254Y-42833064D01*
X119313252Y-42833062D01*
X119313250Y-42833061D01*
X119313249Y-42833060D01*
X119097179Y-42700653D01*
X119097176Y-42700651D01*
X118863049Y-42603673D01*
X118616639Y-42544516D01*
X118364000Y-42524633D01*
X118111360Y-42544516D01*
X117864950Y-42603673D01*
X117630823Y-42700651D01*
X117630820Y-42700653D01*
X117414750Y-42833060D01*
X117414749Y-42833061D01*
X117222046Y-42997646D01*
X117057461Y-43190349D01*
X117057460Y-43190350D01*
X116925053Y-43406420D01*
X116925051Y-43406423D01*
X116828073Y-43640550D01*
X116768916Y-43886960D01*
X116749033Y-44139600D01*
X107050091Y-44139600D01*
X107062217Y-44124824D01*
X107161156Y-43939722D01*
X107222083Y-43738874D01*
X107242655Y-43530000D01*
X107222083Y-43321126D01*
X107161156Y-43120278D01*
X107062217Y-42935176D01*
X107062216Y-42935174D01*
X106929067Y-42772932D01*
X106766825Y-42639783D01*
X106766818Y-42639779D01*
X106581723Y-42540844D01*
X106382750Y-42480485D01*
X106324312Y-42442188D01*
X106295855Y-42378375D01*
X106306416Y-42309308D01*
X106352641Y-42256915D01*
X106387669Y-42243413D01*
X106387275Y-42241941D01*
X106606300Y-42183254D01*
X106606309Y-42183250D01*
X106806915Y-42089706D01*
X106872342Y-42043894D01*
X106309575Y-41481127D01*
X106368853Y-41465245D01*
X106485147Y-41398102D01*
X106580102Y-41303147D01*
X106647245Y-41186853D01*
X106663128Y-41127575D01*
X107225894Y-41690342D01*
X107271706Y-41624915D01*
X107365250Y-41424309D01*
X107365254Y-41424300D01*
X107422538Y-41210509D01*
X107422540Y-41210499D01*
X107441832Y-40990000D01*
X107441832Y-40989999D01*
X107422540Y-40769500D01*
X107422538Y-40769490D01*
X107365254Y-40555699D01*
X107365250Y-40555690D01*
X107271707Y-40355085D01*
X107271706Y-40355083D01*
X107225894Y-40289657D01*
X107225894Y-40289656D01*
X106663127Y-40852423D01*
X106647245Y-40793147D01*
X106580102Y-40676853D01*
X106485147Y-40581898D01*
X106368853Y-40514755D01*
X106309575Y-40498872D01*
X106872342Y-39936105D01*
X106872341Y-39936103D01*
X106806919Y-39890295D01*
X106606309Y-39796749D01*
X106606300Y-39796745D01*
X106387275Y-39738059D01*
X106387909Y-39735692D01*
X106334565Y-39709221D01*
X106298705Y-39649256D01*
X106300957Y-39579422D01*
X106340606Y-39521892D01*
X106382748Y-39499514D01*
X106581722Y-39439156D01*
X106766824Y-39340217D01*
X106929067Y-39207067D01*
X107062217Y-39044824D01*
X107161156Y-38859722D01*
X107222083Y-38658874D01*
X107242655Y-38450000D01*
X107222083Y-38241126D01*
X107161156Y-38040278D01*
X107148018Y-38015699D01*
X107062220Y-37855181D01*
X107062216Y-37855174D01*
X106929067Y-37692932D01*
X106766825Y-37559783D01*
X106766818Y-37559779D01*
X106581723Y-37460844D01*
X106380876Y-37399917D01*
X106172000Y-37379345D01*
X105963123Y-37399917D01*
X105762276Y-37460844D01*
X105577181Y-37559779D01*
X105577174Y-37559783D01*
X105414932Y-37692932D01*
X105281783Y-37855174D01*
X105281779Y-37855181D01*
X105182844Y-38040276D01*
X105121917Y-38241123D01*
X105101345Y-38450000D01*
X105121917Y-38658876D01*
X105182844Y-38859723D01*
X105281779Y-39044818D01*
X105281783Y-39044825D01*
X105414932Y-39207067D01*
X105577174Y-39340216D01*
X105577181Y-39340220D01*
X105762271Y-39439153D01*
X105762274Y-39439153D01*
X105762278Y-39439156D01*
X105961250Y-39499514D01*
X106019687Y-39537811D01*
X106048144Y-39601623D01*
X106037583Y-39670690D01*
X105991359Y-39723084D01*
X105956338Y-39736617D01*
X105956725Y-39738059D01*
X105737699Y-39796745D01*
X105737690Y-39796749D01*
X105537084Y-39890293D01*
X105471657Y-39936104D01*
X106034424Y-40498871D01*
X105975147Y-40514755D01*
X105858853Y-40581898D01*
X105763898Y-40676853D01*
X105696755Y-40793147D01*
X105680871Y-40852424D01*
X105118104Y-40289657D01*
X105072293Y-40355084D01*
X104978749Y-40555690D01*
X104978745Y-40555699D01*
X104921461Y-40769490D01*
X104921459Y-40769500D01*
X104902168Y-40989999D01*
X104902168Y-40990000D01*
X92002655Y-40990000D01*
X91982083Y-40781126D01*
X91921156Y-40580278D01*
X91908018Y-40555699D01*
X91822220Y-40395181D01*
X91822216Y-40395174D01*
X91689067Y-40232932D01*
X91526825Y-40099783D01*
X91526818Y-40099779D01*
X91341723Y-40000844D01*
X91142750Y-39940485D01*
X91084312Y-39902188D01*
X91055855Y-39838375D01*
X91066416Y-39769308D01*
X91112641Y-39716915D01*
X91147669Y-39703413D01*
X91147275Y-39701941D01*
X91366300Y-39643254D01*
X91366309Y-39643250D01*
X91566915Y-39549706D01*
X91632342Y-39503894D01*
X91069575Y-38941127D01*
X91128853Y-38925245D01*
X91245147Y-38858102D01*
X91340102Y-38763147D01*
X91407245Y-38646853D01*
X91423128Y-38587575D01*
X91985894Y-39150342D01*
X92031706Y-39084915D01*
X92125250Y-38884309D01*
X92125254Y-38884300D01*
X92182538Y-38670509D01*
X92182540Y-38670499D01*
X92201832Y-38450000D01*
X92201832Y-38449999D01*
X92182540Y-38229500D01*
X92182538Y-38229490D01*
X92125254Y-38015699D01*
X92125250Y-38015690D01*
X92031707Y-37815085D01*
X92031706Y-37815083D01*
X91985894Y-37749657D01*
X91985894Y-37749656D01*
X91423127Y-38312423D01*
X91407245Y-38253147D01*
X91340102Y-38136853D01*
X91245147Y-38041898D01*
X91128853Y-37974755D01*
X91069575Y-37958872D01*
X91632342Y-37396105D01*
X91632341Y-37396103D01*
X91566919Y-37350295D01*
X91366309Y-37256749D01*
X91366300Y-37256745D01*
X91152509Y-37199461D01*
X91152499Y-37199459D01*
X90932001Y-37180168D01*
X90931999Y-37180168D01*
X90711500Y-37199459D01*
X90711490Y-37199461D01*
X90497699Y-37256745D01*
X90497690Y-37256749D01*
X90297084Y-37350293D01*
X90231657Y-37396104D01*
X90794424Y-37958871D01*
X90735147Y-37974755D01*
X90618853Y-38041898D01*
X90523898Y-38136853D01*
X90456755Y-38253147D01*
X90440871Y-38312424D01*
X89878104Y-37749657D01*
X89832293Y-37815084D01*
X89738749Y-38015690D01*
X89738745Y-38015699D01*
X89681461Y-38229490D01*
X89681459Y-38229500D01*
X89662168Y-38449999D01*
X89662168Y-38450000D01*
X82377151Y-38450000D01*
X82834487Y-38157257D01*
X82838156Y-38155000D01*
X83753122Y-37614224D01*
X83756910Y-37612076D01*
X84690516Y-37104207D01*
X84694340Y-37102213D01*
X85645496Y-36627848D01*
X85649387Y-36625993D01*
X86616742Y-36185804D01*
X86620747Y-36184067D01*
X87603138Y-35778579D01*
X87607215Y-35776981D01*
X88603436Y-35406694D01*
X88607554Y-35405246D01*
X89616295Y-35070646D01*
X89620417Y-35069359D01*
X90640493Y-34770841D01*
X90644692Y-34769693D01*
X91674686Y-34507673D01*
X91678882Y-34506684D01*
X92717625Y-34281458D01*
X92721828Y-34280625D01*
X93767853Y-34092513D01*
X93772176Y-34091814D01*
X94824220Y-33941039D01*
X94828585Y-33940492D01*
X95885339Y-33827242D01*
X95889621Y-33826861D01*
X96949752Y-33751280D01*
X96954145Y-33751046D01*
X98016201Y-33713234D01*
X98020613Y-33713156D01*
X99083387Y-33713156D01*
X99087798Y-33713234D01*
G37*
%TD.AperFunction*%
%TD*%
M02*
