M48
; DRILL file {KiCad 8.0.1} date 2024-04-29T03:40:26-0700
; FORMAT={-:-/ absolute / inch / decimal}
; #@! TF.CreationDate,2024-04-29T03:40:26-07:00
; #@! TF.GenerationSoftware,Kicad,Pcbnew,8.0.1
; #@! TF.FileFunction,Plated,1,2,PTH
FMAT,2
INCH
; #@! TA.AperFunction,Plated,PTH,ViaDrill
T1C0.0118
; #@! TA.AperFunction,Plated,PTH,ComponentDrill
T2C0.0394
; #@! TA.AperFunction,Plated,PTH,ComponentDrill
T3C0.0402
%
G90
G05
T1
X3.093Y-2.61
X3.126Y-2.9518
X3.128Y-3.0758
X3.13Y-2.6478
X3.136Y-1.9818
X3.166Y-2.626
X3.314Y-2.931
X3.352Y-2.8818
X3.38Y-1.658
X3.382Y-1.604
X3.386Y-1.8818
X3.388Y-1.9118
X3.422Y-1.8958
X3.449Y-2.271
X3.46Y-1.8958
X3.486Y-1.9578
X3.562Y-3.1158
X3.62Y-3.4558
X3.728Y-2.886
X3.73Y-3.0538
X3.754Y-3.5718
X3.982Y-3.5758
X4.086Y-2.9958
X4.1007Y-2.5085
X4.14Y-3.0538
X4.14Y-3.4578
X4.201Y-2.8858
X4.296Y-2.0418
X4.304Y-2.616
X4.304Y-2.648
X4.306Y-2.8224
X4.312Y-2.9338
X4.3294Y-2.7378
X4.3681Y-1.9714
X4.374Y-3.0118
X4.3751Y-3.25
X4.404Y-1.7038
X4.416Y-1.8658
X4.416Y-1.8978
X4.424Y-2.8138
X4.432Y-2.6158
X4.432Y-2.6558
X4.4423Y-2.0405
X4.4725Y-2.0497
X4.474Y-1.6258
X4.4837Y-3.2518
X4.484Y-1.9518
X4.486Y-1.7218
X4.5155Y-1.9518
X4.5254Y-1.7815
X4.54Y-1.8978
X4.553Y-2.786
X4.558Y-1.8658
X4.622Y-2.0638
X4.622Y-2.598
X4.624Y-2.3858
X4.624Y-3.0858
T2
X3.2029Y-2.2946
X3.2029Y-2.393
T3
X3.58Y-1.5138
X3.58Y-1.6138
X3.58Y-1.7138
X3.58Y-1.8138
X3.58Y-1.9138
X3.58Y-2.0138
X3.58Y-2.1138
X3.58Y-2.2138
X3.58Y-2.3138
X3.58Y-2.4138
X3.58Y-2.5138
X3.58Y-2.6138
X3.58Y-2.7138
X3.58Y-2.8138
X3.68Y-2.8138
X3.78Y-2.8138
X3.88Y-2.8138
X3.98Y-2.8138
X4.08Y-2.8138
X4.18Y-1.5138
X4.18Y-1.6138
X4.18Y-1.7138
X4.18Y-1.8138
X4.18Y-1.9138
X4.18Y-2.0138
X4.18Y-2.1138
X4.18Y-2.2138
X4.18Y-2.3138
X4.18Y-2.4138
X4.18Y-2.5138
X4.18Y-2.6138
X4.18Y-2.7138
X4.18Y-2.8138
M30
