%TF.GenerationSoftware,KiCad,Pcbnew,8.0.1*%
%TF.CreationDate,2024-04-29T03:40:20-07:00*%
%TF.ProjectId,CanSat PCB,43616e53-6174-4205-9043-422e6b696361,4*%
%TF.SameCoordinates,Original*%
%TF.FileFunction,Paste,Top*%
%TF.FilePolarity,Positive*%
%FSLAX46Y46*%
G04 Gerber Fmt 4.6, Leading zero omitted, Abs format (unit mm)*
G04 Created by KiCad (PCBNEW 8.0.1) date 2024-04-29 03:40:20*
%MOMM*%
%LPD*%
G01*
G04 APERTURE LIST*
G04 Aperture macros list*
%AMRoundRect*
0 Rectangle with rounded corners*
0 $1 Rounding radius*
0 $2 $3 $4 $5 $6 $7 $8 $9 X,Y pos of 4 corners*
0 Add a 4 corners polygon primitive as box body*
4,1,4,$2,$3,$4,$5,$6,$7,$8,$9,$2,$3,0*
0 Add four circle primitives for the rounded corners*
1,1,$1+$1,$2,$3*
1,1,$1+$1,$4,$5*
1,1,$1+$1,$6,$7*
1,1,$1+$1,$8,$9*
0 Add four rect primitives between the rounded corners*
20,1,$1+$1,$2,$3,$4,$5,0*
20,1,$1+$1,$4,$5,$6,$7,0*
20,1,$1+$1,$6,$7,$8,$9,0*
20,1,$1+$1,$8,$9,$2,$3,0*%
G04 Aperture macros list end*
%ADD10C,0.010000*%
%ADD11RoundRect,0.050000X-0.250000X0.100000X-0.250000X-0.100000X0.250000X-0.100000X0.250000X0.100000X0*%
%ADD12RoundRect,0.050000X0.250000X-0.100000X0.250000X0.100000X-0.250000X0.100000X-0.250000X-0.100000X0*%
%ADD13RoundRect,0.050000X0.100000X0.250000X-0.100000X0.250000X-0.100000X-0.250000X0.100000X-0.250000X0*%
%ADD14RoundRect,0.050000X-0.100000X-0.250000X0.100000X-0.250000X0.100000X0.250000X-0.100000X0.250000X0*%
%ADD15RoundRect,0.250000X-1.100000X0.250000X-1.100000X-0.250000X1.100000X-0.250000X1.100000X0.250000X0*%
%ADD16RoundRect,0.150000X-0.700000X0.150000X-0.700000X-0.150000X0.700000X-0.150000X0.700000X0.150000X0*%
%ADD17RoundRect,0.225000X0.225000X0.250000X-0.225000X0.250000X-0.225000X-0.250000X0.225000X-0.250000X0*%
%ADD18RoundRect,0.200000X0.200000X0.275000X-0.200000X0.275000X-0.200000X-0.275000X0.200000X-0.275000X0*%
%ADD19RoundRect,0.225000X0.250000X-0.225000X0.250000X0.225000X-0.250000X0.225000X-0.250000X-0.225000X0*%
%ADD20RoundRect,0.200000X-0.275000X0.200000X-0.275000X-0.200000X0.275000X-0.200000X0.275000X0.200000X0*%
%ADD21RoundRect,0.250000X0.475000X-0.250000X0.475000X0.250000X-0.475000X0.250000X-0.475000X-0.250000X0*%
%ADD22RoundRect,0.200000X-0.200000X-0.275000X0.200000X-0.275000X0.200000X0.275000X-0.200000X0.275000X0*%
%ADD23R,0.550000X0.950000*%
%ADD24RoundRect,0.250000X1.100000X-0.250000X1.100000X0.250000X-1.100000X0.250000X-1.100000X-0.250000X0*%
%ADD25RoundRect,0.150000X0.700000X-0.150000X0.700000X0.150000X-0.700000X0.150000X-0.700000X-0.150000X0*%
%ADD26R,1.320800X0.508000*%
%ADD27RoundRect,0.225000X-0.250000X0.225000X-0.250000X-0.225000X0.250000X-0.225000X0.250000X0.225000X0*%
%ADD28RoundRect,0.250000X-0.300000X-0.300000X0.300000X-0.300000X0.300000X0.300000X-0.300000X0.300000X0*%
%ADD29RoundRect,0.150000X0.150000X-0.512500X0.150000X0.512500X-0.150000X0.512500X-0.150000X-0.512500X0*%
%ADD30R,0.254000X0.482600*%
%ADD31R,0.482600X0.254000*%
%ADD32RoundRect,0.225000X-0.225000X-0.250000X0.225000X-0.250000X0.225000X0.250000X-0.225000X0.250000X0*%
%ADD33R,0.254000X0.279400*%
%ADD34R,0.279400X0.254000*%
%ADD35RoundRect,0.250000X-0.475000X0.250000X-0.475000X-0.250000X0.475000X-0.250000X0.475000X0.250000X0*%
%ADD36R,0.508000X1.320800*%
%ADD37RoundRect,0.250000X-0.300000X0.300000X-0.300000X-0.300000X0.300000X-0.300000X0.300000X0.300000X0*%
%ADD38RoundRect,0.250000X0.250000X1.150000X-0.250000X1.150000X-0.250000X-1.150000X0.250000X-1.150000X0*%
%ADD39RoundRect,0.150000X0.150000X0.700000X-0.150000X0.700000X-0.150000X-0.700000X0.150000X-0.700000X0*%
%ADD40RoundRect,0.250000X1.075000X-0.375000X1.075000X0.375000X-1.075000X0.375000X-1.075000X-0.375000X0*%
G04 APERTURE END LIST*
D10*
%TO.C,U5*%
X91812000Y-78756800D02*
X91092000Y-78756800D01*
X91092000Y-78176800D01*
X91812000Y-78176800D01*
X91812000Y-78756800D01*
G36*
X91812000Y-78756800D02*
G01*
X91092000Y-78756800D01*
X91092000Y-78176800D01*
X91812000Y-78176800D01*
X91812000Y-78756800D01*
G37*
X91812000Y-79616800D02*
X91092000Y-79616800D01*
X91092000Y-79036800D01*
X91812000Y-79036800D01*
X91812000Y-79616800D01*
G36*
X91812000Y-79616800D02*
G01*
X91092000Y-79616800D01*
X91092000Y-79036800D01*
X91812000Y-79036800D01*
X91812000Y-79616800D01*
G37*
X91812000Y-80656800D02*
X91092000Y-80656800D01*
X91092000Y-80076800D01*
X91812000Y-80076800D01*
X91812000Y-80656800D01*
G36*
X91812000Y-80656800D02*
G01*
X91092000Y-80656800D01*
X91092000Y-80076800D01*
X91812000Y-80076800D01*
X91812000Y-80656800D01*
G37*
X91812000Y-81516800D02*
X91092000Y-81516800D01*
X91092000Y-80936800D01*
X91812000Y-80936800D01*
X91812000Y-81516800D01*
G36*
X91812000Y-81516800D02*
G01*
X91092000Y-81516800D01*
X91092000Y-80936800D01*
X91812000Y-80936800D01*
X91812000Y-81516800D01*
G37*
X91812000Y-82556800D02*
X91092000Y-82556800D01*
X91092000Y-81976800D01*
X91812000Y-81976800D01*
X91812000Y-82556800D01*
G36*
X91812000Y-82556800D02*
G01*
X91092000Y-82556800D01*
X91092000Y-81976800D01*
X91812000Y-81976800D01*
X91812000Y-82556800D01*
G37*
X91812000Y-83416800D02*
X91092000Y-83416800D01*
X91092000Y-82836800D01*
X91812000Y-82836800D01*
X91812000Y-83416800D01*
G36*
X91812000Y-83416800D02*
G01*
X91092000Y-83416800D01*
X91092000Y-82836800D01*
X91812000Y-82836800D01*
X91812000Y-83416800D01*
G37*
X91812000Y-84456800D02*
X91092000Y-84456800D01*
X91092000Y-83876800D01*
X91812000Y-83876800D01*
X91812000Y-84456800D01*
G36*
X91812000Y-84456800D02*
G01*
X91092000Y-84456800D01*
X91092000Y-83876800D01*
X91812000Y-83876800D01*
X91812000Y-84456800D01*
G37*
X91812000Y-85316800D02*
X91092000Y-85316800D01*
X91092000Y-84736800D01*
X91812000Y-84736800D01*
X91812000Y-85316800D01*
G36*
X91812000Y-85316800D02*
G01*
X91092000Y-85316800D01*
X91092000Y-84736800D01*
X91812000Y-84736800D01*
X91812000Y-85316800D01*
G37*
X91812000Y-86356800D02*
X91092000Y-86356800D01*
X91092000Y-85776800D01*
X91812000Y-85776800D01*
X91812000Y-86356800D01*
G36*
X91812000Y-86356800D02*
G01*
X91092000Y-86356800D01*
X91092000Y-85776800D01*
X91812000Y-85776800D01*
X91812000Y-86356800D01*
G37*
X91812000Y-87216800D02*
X91092000Y-87216800D01*
X91092000Y-86636800D01*
X91812000Y-86636800D01*
X91812000Y-87216800D01*
G36*
X91812000Y-87216800D02*
G01*
X91092000Y-87216800D01*
X91092000Y-86636800D01*
X91812000Y-86636800D01*
X91812000Y-87216800D01*
G37*
X92812000Y-78756800D02*
X92092000Y-78756800D01*
X92092000Y-78176800D01*
X92812000Y-78176800D01*
X92812000Y-78756800D01*
G36*
X92812000Y-78756800D02*
G01*
X92092000Y-78756800D01*
X92092000Y-78176800D01*
X92812000Y-78176800D01*
X92812000Y-78756800D01*
G37*
X92812000Y-79616800D02*
X92092000Y-79616800D01*
X92092000Y-79036800D01*
X92812000Y-79036800D01*
X92812000Y-79616800D01*
G36*
X92812000Y-79616800D02*
G01*
X92092000Y-79616800D01*
X92092000Y-79036800D01*
X92812000Y-79036800D01*
X92812000Y-79616800D01*
G37*
X92812000Y-80656800D02*
X92092000Y-80656800D01*
X92092000Y-80076800D01*
X92812000Y-80076800D01*
X92812000Y-80656800D01*
G36*
X92812000Y-80656800D02*
G01*
X92092000Y-80656800D01*
X92092000Y-80076800D01*
X92812000Y-80076800D01*
X92812000Y-80656800D01*
G37*
X92812000Y-81516800D02*
X92092000Y-81516800D01*
X92092000Y-80936800D01*
X92812000Y-80936800D01*
X92812000Y-81516800D01*
G36*
X92812000Y-81516800D02*
G01*
X92092000Y-81516800D01*
X92092000Y-80936800D01*
X92812000Y-80936800D01*
X92812000Y-81516800D01*
G37*
X92812000Y-82556800D02*
X92092000Y-82556800D01*
X92092000Y-81976800D01*
X92812000Y-81976800D01*
X92812000Y-82556800D01*
G36*
X92812000Y-82556800D02*
G01*
X92092000Y-82556800D01*
X92092000Y-81976800D01*
X92812000Y-81976800D01*
X92812000Y-82556800D01*
G37*
X92812000Y-83416800D02*
X92092000Y-83416800D01*
X92092000Y-82836800D01*
X92812000Y-82836800D01*
X92812000Y-83416800D01*
G36*
X92812000Y-83416800D02*
G01*
X92092000Y-83416800D01*
X92092000Y-82836800D01*
X92812000Y-82836800D01*
X92812000Y-83416800D01*
G37*
X92812000Y-84456800D02*
X92092000Y-84456800D01*
X92092000Y-83876800D01*
X92812000Y-83876800D01*
X92812000Y-84456800D01*
G36*
X92812000Y-84456800D02*
G01*
X92092000Y-84456800D01*
X92092000Y-83876800D01*
X92812000Y-83876800D01*
X92812000Y-84456800D01*
G37*
X92812000Y-85316800D02*
X92092000Y-85316800D01*
X92092000Y-84736800D01*
X92812000Y-84736800D01*
X92812000Y-85316800D01*
G36*
X92812000Y-85316800D02*
G01*
X92092000Y-85316800D01*
X92092000Y-84736800D01*
X92812000Y-84736800D01*
X92812000Y-85316800D01*
G37*
X92812000Y-86356800D02*
X92092000Y-86356800D01*
X92092000Y-85776800D01*
X92812000Y-85776800D01*
X92812000Y-86356800D01*
G36*
X92812000Y-86356800D02*
G01*
X92092000Y-86356800D01*
X92092000Y-85776800D01*
X92812000Y-85776800D01*
X92812000Y-86356800D01*
G37*
X92812000Y-87216800D02*
X92092000Y-87216800D01*
X92092000Y-86636800D01*
X92812000Y-86636800D01*
X92812000Y-87216800D01*
G36*
X92812000Y-87216800D02*
G01*
X92092000Y-87216800D01*
X92092000Y-86636800D01*
X92812000Y-86636800D01*
X92812000Y-87216800D01*
G37*
X94612000Y-75956800D02*
X94032000Y-75956800D01*
X94032000Y-75236800D01*
X94612000Y-75236800D01*
X94612000Y-75956800D01*
G36*
X94612000Y-75956800D02*
G01*
X94032000Y-75956800D01*
X94032000Y-75236800D01*
X94612000Y-75236800D01*
X94612000Y-75956800D01*
G37*
X94612000Y-76956800D02*
X94032000Y-76956800D01*
X94032000Y-76236800D01*
X94612000Y-76236800D01*
X94612000Y-76956800D01*
G36*
X94612000Y-76956800D02*
G01*
X94032000Y-76956800D01*
X94032000Y-76236800D01*
X94612000Y-76236800D01*
X94612000Y-76956800D01*
G37*
X94612000Y-89156800D02*
X94032000Y-89156800D01*
X94032000Y-88436800D01*
X94612000Y-88436800D01*
X94612000Y-89156800D01*
G36*
X94612000Y-89156800D02*
G01*
X94032000Y-89156800D01*
X94032000Y-88436800D01*
X94612000Y-88436800D01*
X94612000Y-89156800D01*
G37*
X94612000Y-90156800D02*
X94032000Y-90156800D01*
X94032000Y-89436800D01*
X94612000Y-89436800D01*
X94612000Y-90156800D01*
G36*
X94612000Y-90156800D02*
G01*
X94032000Y-90156800D01*
X94032000Y-89436800D01*
X94612000Y-89436800D01*
X94612000Y-90156800D01*
G37*
X95472000Y-75956800D02*
X94892000Y-75956800D01*
X94892000Y-75236800D01*
X95472000Y-75236800D01*
X95472000Y-75956800D01*
G36*
X95472000Y-75956800D02*
G01*
X94892000Y-75956800D01*
X94892000Y-75236800D01*
X95472000Y-75236800D01*
X95472000Y-75956800D01*
G37*
X95472000Y-76956800D02*
X94892000Y-76956800D01*
X94892000Y-76236800D01*
X95472000Y-76236800D01*
X95472000Y-76956800D01*
G36*
X95472000Y-76956800D02*
G01*
X94892000Y-76956800D01*
X94892000Y-76236800D01*
X95472000Y-76236800D01*
X95472000Y-76956800D01*
G37*
X95472000Y-89156800D02*
X94892000Y-89156800D01*
X94892000Y-88436800D01*
X95472000Y-88436800D01*
X95472000Y-89156800D01*
G36*
X95472000Y-89156800D02*
G01*
X94892000Y-89156800D01*
X94892000Y-88436800D01*
X95472000Y-88436800D01*
X95472000Y-89156800D01*
G37*
X95472000Y-90156800D02*
X94892000Y-90156800D01*
X94892000Y-89436800D01*
X95472000Y-89436800D01*
X95472000Y-90156800D01*
G36*
X95472000Y-90156800D02*
G01*
X94892000Y-90156800D01*
X94892000Y-89436800D01*
X95472000Y-89436800D01*
X95472000Y-90156800D01*
G37*
X96512000Y-75956800D02*
X95932000Y-75956800D01*
X95932000Y-75236800D01*
X96512000Y-75236800D01*
X96512000Y-75956800D01*
G36*
X96512000Y-75956800D02*
G01*
X95932000Y-75956800D01*
X95932000Y-75236800D01*
X96512000Y-75236800D01*
X96512000Y-75956800D01*
G37*
X96512000Y-76956800D02*
X95932000Y-76956800D01*
X95932000Y-76236800D01*
X96512000Y-76236800D01*
X96512000Y-76956800D01*
G36*
X96512000Y-76956800D02*
G01*
X95932000Y-76956800D01*
X95932000Y-76236800D01*
X96512000Y-76236800D01*
X96512000Y-76956800D01*
G37*
X96512000Y-89156800D02*
X95932000Y-89156800D01*
X95932000Y-88436800D01*
X96512000Y-88436800D01*
X96512000Y-89156800D01*
G36*
X96512000Y-89156800D02*
G01*
X95932000Y-89156800D01*
X95932000Y-88436800D01*
X96512000Y-88436800D01*
X96512000Y-89156800D01*
G37*
X96512000Y-90156800D02*
X95932000Y-90156800D01*
X95932000Y-89436800D01*
X96512000Y-89436800D01*
X96512000Y-90156800D01*
G36*
X96512000Y-90156800D02*
G01*
X95932000Y-90156800D01*
X95932000Y-89436800D01*
X96512000Y-89436800D01*
X96512000Y-90156800D01*
G37*
X97372000Y-75956800D02*
X96792000Y-75956800D01*
X96792000Y-75236800D01*
X97372000Y-75236800D01*
X97372000Y-75956800D01*
G36*
X97372000Y-75956800D02*
G01*
X96792000Y-75956800D01*
X96792000Y-75236800D01*
X97372000Y-75236800D01*
X97372000Y-75956800D01*
G37*
X97372000Y-76956800D02*
X96792000Y-76956800D01*
X96792000Y-76236800D01*
X97372000Y-76236800D01*
X97372000Y-76956800D01*
G36*
X97372000Y-76956800D02*
G01*
X96792000Y-76956800D01*
X96792000Y-76236800D01*
X97372000Y-76236800D01*
X97372000Y-76956800D01*
G37*
X97372000Y-89156800D02*
X96792000Y-89156800D01*
X96792000Y-88436800D01*
X97372000Y-88436800D01*
X97372000Y-89156800D01*
G36*
X97372000Y-89156800D02*
G01*
X96792000Y-89156800D01*
X96792000Y-88436800D01*
X97372000Y-88436800D01*
X97372000Y-89156800D01*
G37*
X97372000Y-90156800D02*
X96792000Y-90156800D01*
X96792000Y-89436800D01*
X97372000Y-89436800D01*
X97372000Y-90156800D01*
G36*
X97372000Y-90156800D02*
G01*
X96792000Y-90156800D01*
X96792000Y-89436800D01*
X97372000Y-89436800D01*
X97372000Y-90156800D01*
G37*
X98412000Y-75956800D02*
X97832000Y-75956800D01*
X97832000Y-75236800D01*
X98412000Y-75236800D01*
X98412000Y-75956800D01*
G36*
X98412000Y-75956800D02*
G01*
X97832000Y-75956800D01*
X97832000Y-75236800D01*
X98412000Y-75236800D01*
X98412000Y-75956800D01*
G37*
X98412000Y-76956800D02*
X97832000Y-76956800D01*
X97832000Y-76236800D01*
X98412000Y-76236800D01*
X98412000Y-76956800D01*
G36*
X98412000Y-76956800D02*
G01*
X97832000Y-76956800D01*
X97832000Y-76236800D01*
X98412000Y-76236800D01*
X98412000Y-76956800D01*
G37*
X98412000Y-89156800D02*
X97832000Y-89156800D01*
X97832000Y-88436800D01*
X98412000Y-88436800D01*
X98412000Y-89156800D01*
G36*
X98412000Y-89156800D02*
G01*
X97832000Y-89156800D01*
X97832000Y-88436800D01*
X98412000Y-88436800D01*
X98412000Y-89156800D01*
G37*
X98412000Y-90156800D02*
X97832000Y-90156800D01*
X97832000Y-89436800D01*
X98412000Y-89436800D01*
X98412000Y-90156800D01*
G36*
X98412000Y-90156800D02*
G01*
X97832000Y-90156800D01*
X97832000Y-89436800D01*
X98412000Y-89436800D01*
X98412000Y-90156800D01*
G37*
X99272000Y-75956800D02*
X98692000Y-75956800D01*
X98692000Y-75236800D01*
X99272000Y-75236800D01*
X99272000Y-75956800D01*
G36*
X99272000Y-75956800D02*
G01*
X98692000Y-75956800D01*
X98692000Y-75236800D01*
X99272000Y-75236800D01*
X99272000Y-75956800D01*
G37*
X99272000Y-76956800D02*
X98692000Y-76956800D01*
X98692000Y-76236800D01*
X99272000Y-76236800D01*
X99272000Y-76956800D01*
G36*
X99272000Y-76956800D02*
G01*
X98692000Y-76956800D01*
X98692000Y-76236800D01*
X99272000Y-76236800D01*
X99272000Y-76956800D01*
G37*
X99272000Y-89156800D02*
X98692000Y-89156800D01*
X98692000Y-88436800D01*
X99272000Y-88436800D01*
X99272000Y-89156800D01*
G36*
X99272000Y-89156800D02*
G01*
X98692000Y-89156800D01*
X98692000Y-88436800D01*
X99272000Y-88436800D01*
X99272000Y-89156800D01*
G37*
X99272000Y-90156800D02*
X98692000Y-90156800D01*
X98692000Y-89436800D01*
X99272000Y-89436800D01*
X99272000Y-90156800D01*
G36*
X99272000Y-90156800D02*
G01*
X98692000Y-90156800D01*
X98692000Y-89436800D01*
X99272000Y-89436800D01*
X99272000Y-90156800D01*
G37*
X100312000Y-75956800D02*
X99732000Y-75956800D01*
X99732000Y-75236800D01*
X100312000Y-75236800D01*
X100312000Y-75956800D01*
G36*
X100312000Y-75956800D02*
G01*
X99732000Y-75956800D01*
X99732000Y-75236800D01*
X100312000Y-75236800D01*
X100312000Y-75956800D01*
G37*
X100312000Y-76956800D02*
X99732000Y-76956800D01*
X99732000Y-76236800D01*
X100312000Y-76236800D01*
X100312000Y-76956800D01*
G36*
X100312000Y-76956800D02*
G01*
X99732000Y-76956800D01*
X99732000Y-76236800D01*
X100312000Y-76236800D01*
X100312000Y-76956800D01*
G37*
X100312000Y-89156800D02*
X99732000Y-89156800D01*
X99732000Y-88436800D01*
X100312000Y-88436800D01*
X100312000Y-89156800D01*
G36*
X100312000Y-89156800D02*
G01*
X99732000Y-89156800D01*
X99732000Y-88436800D01*
X100312000Y-88436800D01*
X100312000Y-89156800D01*
G37*
X100312000Y-90156800D02*
X99732000Y-90156800D01*
X99732000Y-89436800D01*
X100312000Y-89436800D01*
X100312000Y-90156800D01*
G36*
X100312000Y-90156800D02*
G01*
X99732000Y-90156800D01*
X99732000Y-89436800D01*
X100312000Y-89436800D01*
X100312000Y-90156800D01*
G37*
X101172000Y-75956800D02*
X100592000Y-75956800D01*
X100592000Y-75236800D01*
X101172000Y-75236800D01*
X101172000Y-75956800D01*
G36*
X101172000Y-75956800D02*
G01*
X100592000Y-75956800D01*
X100592000Y-75236800D01*
X101172000Y-75236800D01*
X101172000Y-75956800D01*
G37*
X101172000Y-76956800D02*
X100592000Y-76956800D01*
X100592000Y-76236800D01*
X101172000Y-76236800D01*
X101172000Y-76956800D01*
G36*
X101172000Y-76956800D02*
G01*
X100592000Y-76956800D01*
X100592000Y-76236800D01*
X101172000Y-76236800D01*
X101172000Y-76956800D01*
G37*
X101172000Y-89156800D02*
X100592000Y-89156800D01*
X100592000Y-88436800D01*
X101172000Y-88436800D01*
X101172000Y-89156800D01*
G36*
X101172000Y-89156800D02*
G01*
X100592000Y-89156800D01*
X100592000Y-88436800D01*
X101172000Y-88436800D01*
X101172000Y-89156800D01*
G37*
X101172000Y-90156800D02*
X100592000Y-90156800D01*
X100592000Y-89436800D01*
X101172000Y-89436800D01*
X101172000Y-90156800D01*
G36*
X101172000Y-90156800D02*
G01*
X100592000Y-90156800D01*
X100592000Y-89436800D01*
X101172000Y-89436800D01*
X101172000Y-90156800D01*
G37*
X102212000Y-75956800D02*
X101632000Y-75956800D01*
X101632000Y-75236800D01*
X102212000Y-75236800D01*
X102212000Y-75956800D01*
G36*
X102212000Y-75956800D02*
G01*
X101632000Y-75956800D01*
X101632000Y-75236800D01*
X102212000Y-75236800D01*
X102212000Y-75956800D01*
G37*
X102212000Y-76956800D02*
X101632000Y-76956800D01*
X101632000Y-76236800D01*
X102212000Y-76236800D01*
X102212000Y-76956800D01*
G36*
X102212000Y-76956800D02*
G01*
X101632000Y-76956800D01*
X101632000Y-76236800D01*
X102212000Y-76236800D01*
X102212000Y-76956800D01*
G37*
X102212000Y-89156800D02*
X101632000Y-89156800D01*
X101632000Y-88436800D01*
X102212000Y-88436800D01*
X102212000Y-89156800D01*
G36*
X102212000Y-89156800D02*
G01*
X101632000Y-89156800D01*
X101632000Y-88436800D01*
X102212000Y-88436800D01*
X102212000Y-89156800D01*
G37*
X102212000Y-90156800D02*
X101632000Y-90156800D01*
X101632000Y-89436800D01*
X102212000Y-89436800D01*
X102212000Y-90156800D01*
G36*
X102212000Y-90156800D02*
G01*
X101632000Y-90156800D01*
X101632000Y-89436800D01*
X102212000Y-89436800D01*
X102212000Y-90156800D01*
G37*
X103072000Y-75956800D02*
X102492000Y-75956800D01*
X102492000Y-75236800D01*
X103072000Y-75236800D01*
X103072000Y-75956800D01*
G36*
X103072000Y-75956800D02*
G01*
X102492000Y-75956800D01*
X102492000Y-75236800D01*
X103072000Y-75236800D01*
X103072000Y-75956800D01*
G37*
X103072000Y-76956800D02*
X102492000Y-76956800D01*
X102492000Y-76236800D01*
X103072000Y-76236800D01*
X103072000Y-76956800D01*
G36*
X103072000Y-76956800D02*
G01*
X102492000Y-76956800D01*
X102492000Y-76236800D01*
X103072000Y-76236800D01*
X103072000Y-76956800D01*
G37*
X103072000Y-89156800D02*
X102492000Y-89156800D01*
X102492000Y-88436800D01*
X103072000Y-88436800D01*
X103072000Y-89156800D01*
G36*
X103072000Y-89156800D02*
G01*
X102492000Y-89156800D01*
X102492000Y-88436800D01*
X103072000Y-88436800D01*
X103072000Y-89156800D01*
G37*
X103072000Y-90156800D02*
X102492000Y-90156800D01*
X102492000Y-89436800D01*
X103072000Y-89436800D01*
X103072000Y-90156800D01*
G36*
X103072000Y-90156800D02*
G01*
X102492000Y-90156800D01*
X102492000Y-89436800D01*
X103072000Y-89436800D01*
X103072000Y-90156800D01*
G37*
X105012000Y-78756800D02*
X104292000Y-78756800D01*
X104292000Y-78176800D01*
X105012000Y-78176800D01*
X105012000Y-78756800D01*
G36*
X105012000Y-78756800D02*
G01*
X104292000Y-78756800D01*
X104292000Y-78176800D01*
X105012000Y-78176800D01*
X105012000Y-78756800D01*
G37*
X105012000Y-79616800D02*
X104292000Y-79616800D01*
X104292000Y-79036800D01*
X105012000Y-79036800D01*
X105012000Y-79616800D01*
G36*
X105012000Y-79616800D02*
G01*
X104292000Y-79616800D01*
X104292000Y-79036800D01*
X105012000Y-79036800D01*
X105012000Y-79616800D01*
G37*
X105012000Y-80656800D02*
X104292000Y-80656800D01*
X104292000Y-80076800D01*
X105012000Y-80076800D01*
X105012000Y-80656800D01*
G36*
X105012000Y-80656800D02*
G01*
X104292000Y-80656800D01*
X104292000Y-80076800D01*
X105012000Y-80076800D01*
X105012000Y-80656800D01*
G37*
X105012000Y-81516800D02*
X104292000Y-81516800D01*
X104292000Y-80936800D01*
X105012000Y-80936800D01*
X105012000Y-81516800D01*
G36*
X105012000Y-81516800D02*
G01*
X104292000Y-81516800D01*
X104292000Y-80936800D01*
X105012000Y-80936800D01*
X105012000Y-81516800D01*
G37*
X105012000Y-82556800D02*
X104292000Y-82556800D01*
X104292000Y-81976800D01*
X105012000Y-81976800D01*
X105012000Y-82556800D01*
G36*
X105012000Y-82556800D02*
G01*
X104292000Y-82556800D01*
X104292000Y-81976800D01*
X105012000Y-81976800D01*
X105012000Y-82556800D01*
G37*
X105012000Y-83416800D02*
X104292000Y-83416800D01*
X104292000Y-82836800D01*
X105012000Y-82836800D01*
X105012000Y-83416800D01*
G36*
X105012000Y-83416800D02*
G01*
X104292000Y-83416800D01*
X104292000Y-82836800D01*
X105012000Y-82836800D01*
X105012000Y-83416800D01*
G37*
X105012000Y-84456800D02*
X104292000Y-84456800D01*
X104292000Y-83876800D01*
X105012000Y-83876800D01*
X105012000Y-84456800D01*
G36*
X105012000Y-84456800D02*
G01*
X104292000Y-84456800D01*
X104292000Y-83876800D01*
X105012000Y-83876800D01*
X105012000Y-84456800D01*
G37*
X105012000Y-85316800D02*
X104292000Y-85316800D01*
X104292000Y-84736800D01*
X105012000Y-84736800D01*
X105012000Y-85316800D01*
G36*
X105012000Y-85316800D02*
G01*
X104292000Y-85316800D01*
X104292000Y-84736800D01*
X105012000Y-84736800D01*
X105012000Y-85316800D01*
G37*
X105012000Y-86356800D02*
X104292000Y-86356800D01*
X104292000Y-85776800D01*
X105012000Y-85776800D01*
X105012000Y-86356800D01*
G36*
X105012000Y-86356800D02*
G01*
X104292000Y-86356800D01*
X104292000Y-85776800D01*
X105012000Y-85776800D01*
X105012000Y-86356800D01*
G37*
X105012000Y-87216800D02*
X104292000Y-87216800D01*
X104292000Y-86636800D01*
X105012000Y-86636800D01*
X105012000Y-87216800D01*
G36*
X105012000Y-87216800D02*
G01*
X104292000Y-87216800D01*
X104292000Y-86636800D01*
X105012000Y-86636800D01*
X105012000Y-87216800D01*
G37*
X106012000Y-78756800D02*
X105292000Y-78756800D01*
X105292000Y-78176800D01*
X106012000Y-78176800D01*
X106012000Y-78756800D01*
G36*
X106012000Y-78756800D02*
G01*
X105292000Y-78756800D01*
X105292000Y-78176800D01*
X106012000Y-78176800D01*
X106012000Y-78756800D01*
G37*
X106012000Y-79616800D02*
X105292000Y-79616800D01*
X105292000Y-79036800D01*
X106012000Y-79036800D01*
X106012000Y-79616800D01*
G36*
X106012000Y-79616800D02*
G01*
X105292000Y-79616800D01*
X105292000Y-79036800D01*
X106012000Y-79036800D01*
X106012000Y-79616800D01*
G37*
X106012000Y-80656800D02*
X105292000Y-80656800D01*
X105292000Y-80076800D01*
X106012000Y-80076800D01*
X106012000Y-80656800D01*
G36*
X106012000Y-80656800D02*
G01*
X105292000Y-80656800D01*
X105292000Y-80076800D01*
X106012000Y-80076800D01*
X106012000Y-80656800D01*
G37*
X106012000Y-81516800D02*
X105292000Y-81516800D01*
X105292000Y-80936800D01*
X106012000Y-80936800D01*
X106012000Y-81516800D01*
G36*
X106012000Y-81516800D02*
G01*
X105292000Y-81516800D01*
X105292000Y-80936800D01*
X106012000Y-80936800D01*
X106012000Y-81516800D01*
G37*
X106012000Y-82556800D02*
X105292000Y-82556800D01*
X105292000Y-81976800D01*
X106012000Y-81976800D01*
X106012000Y-82556800D01*
G36*
X106012000Y-82556800D02*
G01*
X105292000Y-82556800D01*
X105292000Y-81976800D01*
X106012000Y-81976800D01*
X106012000Y-82556800D01*
G37*
X106012000Y-83416800D02*
X105292000Y-83416800D01*
X105292000Y-82836800D01*
X106012000Y-82836800D01*
X106012000Y-83416800D01*
G36*
X106012000Y-83416800D02*
G01*
X105292000Y-83416800D01*
X105292000Y-82836800D01*
X106012000Y-82836800D01*
X106012000Y-83416800D01*
G37*
X106012000Y-84456800D02*
X105292000Y-84456800D01*
X105292000Y-83876800D01*
X106012000Y-83876800D01*
X106012000Y-84456800D01*
G36*
X106012000Y-84456800D02*
G01*
X105292000Y-84456800D01*
X105292000Y-83876800D01*
X106012000Y-83876800D01*
X106012000Y-84456800D01*
G37*
X106012000Y-85316800D02*
X105292000Y-85316800D01*
X105292000Y-84736800D01*
X106012000Y-84736800D01*
X106012000Y-85316800D01*
G36*
X106012000Y-85316800D02*
G01*
X105292000Y-85316800D01*
X105292000Y-84736800D01*
X106012000Y-84736800D01*
X106012000Y-85316800D01*
G37*
X106012000Y-86356800D02*
X105292000Y-86356800D01*
X105292000Y-85776800D01*
X106012000Y-85776800D01*
X106012000Y-86356800D01*
G36*
X106012000Y-86356800D02*
G01*
X105292000Y-86356800D01*
X105292000Y-85776800D01*
X106012000Y-85776800D01*
X106012000Y-86356800D01*
G37*
X106012000Y-87216800D02*
X105292000Y-87216800D01*
X105292000Y-86636800D01*
X106012000Y-86636800D01*
X106012000Y-87216800D01*
G36*
X106012000Y-87216800D02*
G01*
X105292000Y-87216800D01*
X105292000Y-86636800D01*
X106012000Y-86636800D01*
X106012000Y-87216800D01*
G37*
%TD*%
D11*
%TO.C,D3*%
X116687600Y-69793600D03*
X116687600Y-70493600D03*
%TD*%
%TO.C,D4*%
X116687600Y-51048400D03*
X116687600Y-51748400D03*
%TD*%
%TO.C,D5*%
X116687600Y-59334400D03*
X116687600Y-60034400D03*
%TD*%
%TO.C,D6*%
X116687600Y-77012800D03*
X116687600Y-77712800D03*
%TD*%
D12*
%TO.C,D7*%
X80416400Y-68213200D03*
X80416400Y-67513200D03*
%TD*%
D11*
%TO.C,D8*%
X80416400Y-77216000D03*
X80416400Y-77916000D03*
%TD*%
D12*
%TO.C,D9*%
X80416400Y-75985600D03*
X80416400Y-75285600D03*
%TD*%
D13*
%TO.C,D10*%
X111856000Y-81579200D03*
X111156000Y-81579200D03*
%TD*%
D14*
%TO.C,D11*%
X113086400Y-81579200D03*
X113786400Y-81579200D03*
%TD*%
D12*
%TO.C,D12*%
X86512400Y-58414400D03*
X86512400Y-57714400D03*
%TD*%
%TO.C,D13*%
X80416400Y-51550800D03*
X80416400Y-50850800D03*
%TD*%
D15*
%TO.C,J5*%
X75104000Y-71572800D03*
X75104000Y-65372800D03*
D16*
X78304000Y-69722800D03*
X78304000Y-68472800D03*
X78304000Y-67222800D03*
%TD*%
D17*
%TO.C,C9*%
X112691900Y-49215900D03*
X111141900Y-49215900D03*
%TD*%
D18*
%TO.C,R11*%
X83476600Y-53283600D03*
X81826600Y-53283600D03*
%TD*%
%TO.C,R4*%
X111429600Y-65018400D03*
X109779600Y-65018400D03*
%TD*%
D19*
%TO.C,C2*%
X81737200Y-49131000D03*
X81737200Y-47581000D03*
%TD*%
%TO.C,C12*%
X89458800Y-80677800D03*
X89458800Y-79127800D03*
%TD*%
D20*
%TO.C,R7*%
X107848400Y-75572600D03*
X107848400Y-77222600D03*
%TD*%
D18*
%TO.C,R2*%
X111429600Y-56179200D03*
X109779600Y-56179200D03*
%TD*%
D21*
%TO.C,C1*%
X87223600Y-51033200D03*
X87223600Y-49133200D03*
%TD*%
D22*
%TO.C,R6*%
X85331800Y-71724000D03*
X86981800Y-71724000D03*
%TD*%
D18*
%TO.C,R3*%
X111429600Y-62072000D03*
X109779600Y-62072000D03*
%TD*%
D23*
%TO.C,U4*%
X112902900Y-50807900D03*
X111652900Y-50807900D03*
X110402900Y-50807900D03*
X109152900Y-50807900D03*
X109152900Y-52957900D03*
X110402900Y-52957900D03*
X111652900Y-52957900D03*
X112902900Y-52957900D03*
%TD*%
D24*
%TO.C,J4*%
X122000000Y-73602400D03*
X122000000Y-79802400D03*
D25*
X118800000Y-75452400D03*
X118800000Y-76702400D03*
X118800000Y-77952400D03*
%TD*%
D22*
%TO.C,R5*%
X85331800Y-68828400D03*
X86981800Y-68828400D03*
%TD*%
D26*
%TO.C,U8*%
X111582200Y-75447599D03*
X111582200Y-77347601D03*
X113969800Y-76397600D03*
%TD*%
D27*
%TO.C,C6*%
X113334800Y-70288600D03*
X113334800Y-71838600D03*
%TD*%
D28*
%TO.C,D2*%
X111085400Y-79598000D03*
X113885400Y-79598000D03*
%TD*%
D20*
%TO.C,R8*%
X109524800Y-75572600D03*
X109524800Y-77222600D03*
%TD*%
D29*
%TO.C,U1*%
X83378000Y-50865100D03*
X84328000Y-50865100D03*
X85278000Y-50865100D03*
X85278000Y-48590100D03*
X84328000Y-48590100D03*
X83378000Y-48590100D03*
%TD*%
D24*
%TO.C,J2*%
X122000000Y-47694400D03*
X122000000Y-53894400D03*
D25*
X118800000Y-49544400D03*
X118800000Y-50794400D03*
X118800000Y-52044400D03*
%TD*%
D30*
%TO.C,U3*%
X111428400Y-42069500D03*
X111928399Y-42069500D03*
X112428401Y-42069500D03*
X112928400Y-42069500D03*
X113428399Y-42069500D03*
X113928401Y-42069500D03*
X114428400Y-42069500D03*
D31*
X114839700Y-43225200D03*
D30*
X114428400Y-44380900D03*
X113928401Y-44380900D03*
X113428399Y-44380900D03*
X112928400Y-44380900D03*
X112428401Y-44380900D03*
X111928399Y-44380900D03*
X111428400Y-44380900D03*
D31*
X111017100Y-43225200D03*
%TD*%
D32*
%TO.C,C7*%
X113118600Y-46070000D03*
X114668600Y-46070000D03*
%TD*%
%TO.C,C11*%
X98742200Y-91721100D03*
X100292200Y-91721100D03*
%TD*%
D21*
%TO.C,C4*%
X87223600Y-43413200D03*
X87223600Y-41513200D03*
%TD*%
D33*
%TO.C,U2*%
X111095600Y-70276200D03*
X110595600Y-70276200D03*
D34*
X110058200Y-70563601D03*
X110058200Y-71063600D03*
X110058200Y-71563599D03*
D33*
X110595600Y-71851000D03*
X111095600Y-71851000D03*
D34*
X111633000Y-71563599D03*
X111633000Y-71063600D03*
X111633000Y-70563601D03*
%TD*%
D18*
%TO.C,R1*%
X111429600Y-59125600D03*
X109779600Y-59125600D03*
%TD*%
D32*
%TO.C,C8*%
X112102600Y-40380400D03*
X113652600Y-40380400D03*
%TD*%
D15*
%TO.C,J6*%
X75104000Y-79075800D03*
X75104000Y-74125800D03*
D16*
X78304000Y-77225800D03*
X78304000Y-75975800D03*
%TD*%
D35*
%TO.C,C3*%
X87223600Y-45323200D03*
X87223600Y-47223200D03*
%TD*%
D24*
%TO.C,J1*%
X122000000Y-64138200D03*
X122000000Y-71588200D03*
D25*
X118800000Y-65988200D03*
X118800000Y-67238200D03*
X118800000Y-68488200D03*
X118800000Y-69738200D03*
%TD*%
D36*
%TO.C,U7*%
X87005201Y-74848200D03*
X85105199Y-74848200D03*
X86055200Y-77235800D03*
%TD*%
D17*
%TO.C,C5*%
X111379600Y-68498200D03*
X109829600Y-68498200D03*
%TD*%
%TO.C,C10*%
X96990200Y-91721100D03*
X95440200Y-91721100D03*
%TD*%
D37*
%TO.C,D1*%
X82651600Y-74438800D03*
X82651600Y-77238800D03*
%TD*%
D38*
%TO.C,J7*%
X109996200Y-87094000D03*
X114946200Y-87094000D03*
D39*
X111846200Y-83744000D03*
X113096200Y-83744000D03*
%TD*%
D15*
%TO.C,J9*%
X75104000Y-53675800D03*
X75104000Y-48725800D03*
D16*
X78304000Y-51825800D03*
X78304000Y-50575800D03*
%TD*%
D24*
%TO.C,J3*%
X122000000Y-55924000D03*
X122000000Y-62124000D03*
D25*
X118800000Y-57774000D03*
X118800000Y-59024000D03*
X118800000Y-60274000D03*
%TD*%
D40*
%TO.C,L1*%
X84226400Y-46403200D03*
X84226400Y-43603200D03*
%TD*%
M02*
