%TF.GenerationSoftware,KiCad,Pcbnew,8.0.1*%
%TF.CreationDate,2024-04-29T03:40:20-07:00*%
%TF.ProjectId,CanSat PCB,43616e53-6174-4205-9043-422e6b696361,4*%
%TF.SameCoordinates,Original*%
%TF.FileFunction,Soldermask,Top*%
%TF.FilePolarity,Negative*%
%FSLAX46Y46*%
G04 Gerber Fmt 4.6, Leading zero omitted, Abs format (unit mm)*
G04 Created by KiCad (PCBNEW 8.0.1) date 2024-04-29 03:40:20*
%MOMM*%
%LPD*%
G01*
G04 APERTURE LIST*
G04 Aperture macros list*
%AMRoundRect*
0 Rectangle with rounded corners*
0 $1 Rounding radius*
0 $2 $3 $4 $5 $6 $7 $8 $9 X,Y pos of 4 corners*
0 Add a 4 corners polygon primitive as box body*
4,1,4,$2,$3,$4,$5,$6,$7,$8,$9,$2,$3,0*
0 Add four circle primitives for the rounded corners*
1,1,$1+$1,$2,$3*
1,1,$1+$1,$4,$5*
1,1,$1+$1,$6,$7*
1,1,$1+$1,$8,$9*
0 Add four rect primitives between the rounded corners*
20,1,$1+$1,$2,$3,$4,$5,0*
20,1,$1+$1,$4,$5,$6,$7,0*
20,1,$1+$1,$6,$7,$8,$9,0*
20,1,$1+$1,$8,$9,$2,$3,0*%
G04 Aperture macros list end*
%ADD10C,0.010000*%
%ADD11RoundRect,0.264941X-0.785859X0.635859X-0.785859X-0.635859X0.785859X-0.635859X0.785859X0.635859X0*%
%ADD12O,2.101600X1.801600*%
%ADD13RoundRect,0.062700X-0.338100X0.188100X-0.338100X-0.188100X0.338100X-0.188100X0.338100X0.188100X0*%
%ADD14RoundRect,0.062700X0.338100X-0.188100X0.338100X0.188100X-0.338100X0.188100X-0.338100X-0.188100X0*%
%ADD15RoundRect,0.062700X0.188100X0.338100X-0.188100X0.338100X-0.188100X-0.338100X0.188100X-0.338100X0*%
%ADD16RoundRect,0.062700X-0.188100X-0.338100X0.188100X-0.338100X0.188100X0.338100X-0.188100X0.338100X0*%
%ADD17RoundRect,0.275400X-1.125400X0.275400X-1.125400X-0.275400X1.125400X-0.275400X1.125400X0.275400X0*%
%ADD18RoundRect,0.175400X-0.725400X0.175400X-0.725400X-0.175400X0.725400X-0.175400X0.725400X0.175400X0*%
%ADD19RoundRect,0.250400X0.250400X0.275400X-0.250400X0.275400X-0.250400X-0.275400X0.250400X-0.275400X0*%
%ADD20RoundRect,0.225400X0.225400X0.300400X-0.225400X0.300400X-0.225400X-0.300400X0.225400X-0.300400X0*%
%ADD21RoundRect,0.250400X0.275400X-0.250400X0.275400X0.250400X-0.275400X0.250400X-0.275400X-0.250400X0*%
%ADD22RoundRect,0.225400X-0.300400X0.225400X-0.300400X-0.225400X0.300400X-0.225400X0.300400X0.225400X0*%
%ADD23RoundRect,0.275400X0.500400X-0.275400X0.500400X0.275400X-0.500400X0.275400X-0.500400X-0.275400X0*%
%ADD24RoundRect,0.225400X-0.225400X-0.300400X0.225400X-0.300400X0.225400X0.300400X-0.225400X0.300400X0*%
%ADD25RoundRect,0.050800X-0.275000X0.475000X-0.275000X-0.475000X0.275000X-0.475000X0.275000X0.475000X0*%
%ADD26RoundRect,0.275400X1.125400X-0.275400X1.125400X0.275400X-1.125400X0.275400X-1.125400X-0.275400X0*%
%ADD27RoundRect,0.175400X0.725400X-0.175400X0.725400X0.175400X-0.725400X0.175400X-0.725400X-0.175400X0*%
%ADD28RoundRect,0.050800X-0.660400X0.254000X-0.660400X-0.254000X0.660400X-0.254000X0.660400X0.254000X0*%
%ADD29RoundRect,0.250400X-0.275400X0.250400X-0.275400X-0.250400X0.275400X-0.250400X0.275400X0.250400X0*%
%ADD30RoundRect,0.273091X-0.327709X-0.327709X0.327709X-0.327709X0.327709X0.327709X-0.327709X0.327709X0*%
%ADD31RoundRect,0.175400X0.175400X-0.537900X0.175400X0.537900X-0.175400X0.537900X-0.175400X-0.537900X0*%
%ADD32RoundRect,0.050800X-0.127000X-0.241300X0.127000X-0.241300X0.127000X0.241300X-0.127000X0.241300X0*%
%ADD33RoundRect,0.050800X0.241300X-0.127000X0.241300X0.127000X-0.241300X0.127000X-0.241300X-0.127000X0*%
%ADD34RoundRect,0.250400X-0.250400X-0.275400X0.250400X-0.275400X0.250400X0.275400X-0.250400X0.275400X0*%
%ADD35C,1.734000*%
%ADD36RoundRect,0.050800X-0.127000X-0.139700X0.127000X-0.139700X0.127000X0.139700X-0.127000X0.139700X0*%
%ADD37RoundRect,0.050800X-0.139700X0.127000X-0.139700X-0.127000X0.139700X-0.127000X0.139700X0.127000X0*%
%ADD38RoundRect,0.275400X-0.500400X0.275400X-0.500400X-0.275400X0.500400X-0.275400X0.500400X0.275400X0*%
%ADD39RoundRect,0.050800X0.254000X0.660400X-0.254000X0.660400X-0.254000X-0.660400X0.254000X-0.660400X0*%
%ADD40RoundRect,0.273091X-0.327709X0.327709X-0.327709X-0.327709X0.327709X-0.327709X0.327709X0.327709X0*%
%ADD41RoundRect,0.275400X0.275400X1.175400X-0.275400X1.175400X-0.275400X-1.175400X0.275400X-1.175400X0*%
%ADD42RoundRect,0.175400X0.175400X0.725400X-0.175400X0.725400X-0.175400X-0.725400X0.175400X-0.725400X0*%
%ADD43RoundRect,0.270320X1.105480X-0.405480X1.105480X0.405480X-1.105480X0.405480X-1.105480X-0.405480X0*%
G04 APERTURE END LIST*
D10*
%TO.C,U5*%
X92902000Y-79696800D02*
X91002000Y-79696800D01*
X91002000Y-78096800D01*
X92902000Y-78096800D01*
X92902000Y-79696800D01*
G36*
X92902000Y-79696800D02*
G01*
X91002000Y-79696800D01*
X91002000Y-78096800D01*
X92902000Y-78096800D01*
X92902000Y-79696800D01*
G37*
X92902000Y-81596800D02*
X91002000Y-81596800D01*
X91002000Y-79996800D01*
X92902000Y-79996800D01*
X92902000Y-81596800D01*
G36*
X92902000Y-81596800D02*
G01*
X91002000Y-81596800D01*
X91002000Y-79996800D01*
X92902000Y-79996800D01*
X92902000Y-81596800D01*
G37*
X92902000Y-83496800D02*
X91002000Y-83496800D01*
X91002000Y-81896800D01*
X92902000Y-81896800D01*
X92902000Y-83496800D01*
G36*
X92902000Y-83496800D02*
G01*
X91002000Y-83496800D01*
X91002000Y-81896800D01*
X92902000Y-81896800D01*
X92902000Y-83496800D01*
G37*
X92902000Y-85396800D02*
X91002000Y-85396800D01*
X91002000Y-83796800D01*
X92902000Y-83796800D01*
X92902000Y-85396800D01*
G36*
X92902000Y-85396800D02*
G01*
X91002000Y-85396800D01*
X91002000Y-83796800D01*
X92902000Y-83796800D01*
X92902000Y-85396800D01*
G37*
X92902000Y-87296800D02*
X91002000Y-87296800D01*
X91002000Y-85696800D01*
X92902000Y-85696800D01*
X92902000Y-87296800D01*
G36*
X92902000Y-87296800D02*
G01*
X91002000Y-87296800D01*
X91002000Y-85696800D01*
X92902000Y-85696800D01*
X92902000Y-87296800D01*
G37*
X95552000Y-77046800D02*
X93952000Y-77046800D01*
X93952000Y-75146800D01*
X95552000Y-75146800D01*
X95552000Y-77046800D01*
G36*
X95552000Y-77046800D02*
G01*
X93952000Y-77046800D01*
X93952000Y-75146800D01*
X95552000Y-75146800D01*
X95552000Y-77046800D01*
G37*
X95552000Y-90246800D02*
X93952000Y-90246800D01*
X93952000Y-88346800D01*
X95552000Y-88346800D01*
X95552000Y-90246800D01*
G36*
X95552000Y-90246800D02*
G01*
X93952000Y-90246800D01*
X93952000Y-88346800D01*
X95552000Y-88346800D01*
X95552000Y-90246800D01*
G37*
X97452000Y-77046800D02*
X95852000Y-77046800D01*
X95852000Y-75146800D01*
X97452000Y-75146800D01*
X97452000Y-77046800D01*
G36*
X97452000Y-77046800D02*
G01*
X95852000Y-77046800D01*
X95852000Y-75146800D01*
X97452000Y-75146800D01*
X97452000Y-77046800D01*
G37*
X97452000Y-90246800D02*
X95852000Y-90246800D01*
X95852000Y-88346800D01*
X97452000Y-88346800D01*
X97452000Y-90246800D01*
G36*
X97452000Y-90246800D02*
G01*
X95852000Y-90246800D01*
X95852000Y-88346800D01*
X97452000Y-88346800D01*
X97452000Y-90246800D01*
G37*
X99352000Y-77046800D02*
X97752000Y-77046800D01*
X97752000Y-75146800D01*
X99352000Y-75146800D01*
X99352000Y-77046800D01*
G36*
X99352000Y-77046800D02*
G01*
X97752000Y-77046800D01*
X97752000Y-75146800D01*
X99352000Y-75146800D01*
X99352000Y-77046800D01*
G37*
X99352000Y-90246800D02*
X97752000Y-90246800D01*
X97752000Y-88346800D01*
X99352000Y-88346800D01*
X99352000Y-90246800D01*
G36*
X99352000Y-90246800D02*
G01*
X97752000Y-90246800D01*
X97752000Y-88346800D01*
X99352000Y-88346800D01*
X99352000Y-90246800D01*
G37*
X101252000Y-77046800D02*
X99652000Y-77046800D01*
X99652000Y-75146800D01*
X101252000Y-75146800D01*
X101252000Y-77046800D01*
G36*
X101252000Y-77046800D02*
G01*
X99652000Y-77046800D01*
X99652000Y-75146800D01*
X101252000Y-75146800D01*
X101252000Y-77046800D01*
G37*
X101252000Y-90246800D02*
X99652000Y-90246800D01*
X99652000Y-88346800D01*
X101252000Y-88346800D01*
X101252000Y-90246800D01*
G36*
X101252000Y-90246800D02*
G01*
X99652000Y-90246800D01*
X99652000Y-88346800D01*
X101252000Y-88346800D01*
X101252000Y-90246800D01*
G37*
X103152000Y-77046800D02*
X101552000Y-77046800D01*
X101552000Y-75146800D01*
X103152000Y-75146800D01*
X103152000Y-77046800D01*
G36*
X103152000Y-77046800D02*
G01*
X101552000Y-77046800D01*
X101552000Y-75146800D01*
X103152000Y-75146800D01*
X103152000Y-77046800D01*
G37*
X103152000Y-90246800D02*
X101552000Y-90246800D01*
X101552000Y-88346800D01*
X103152000Y-88346800D01*
X103152000Y-90246800D01*
G36*
X103152000Y-90246800D02*
G01*
X101552000Y-90246800D01*
X101552000Y-88346800D01*
X103152000Y-88346800D01*
X103152000Y-90246800D01*
G37*
X106102000Y-79696800D02*
X104202000Y-79696800D01*
X104202000Y-78096800D01*
X106102000Y-78096800D01*
X106102000Y-79696800D01*
G36*
X106102000Y-79696800D02*
G01*
X104202000Y-79696800D01*
X104202000Y-78096800D01*
X106102000Y-78096800D01*
X106102000Y-79696800D01*
G37*
X106102000Y-81596800D02*
X104202000Y-81596800D01*
X104202000Y-79996800D01*
X106102000Y-79996800D01*
X106102000Y-81596800D01*
G36*
X106102000Y-81596800D02*
G01*
X104202000Y-81596800D01*
X104202000Y-79996800D01*
X106102000Y-79996800D01*
X106102000Y-81596800D01*
G37*
X106102000Y-83496800D02*
X104202000Y-83496800D01*
X104202000Y-81896800D01*
X106102000Y-81896800D01*
X106102000Y-83496800D01*
G36*
X106102000Y-83496800D02*
G01*
X104202000Y-83496800D01*
X104202000Y-81896800D01*
X106102000Y-81896800D01*
X106102000Y-83496800D01*
G37*
X106102000Y-85396800D02*
X104202000Y-85396800D01*
X104202000Y-83796800D01*
X106102000Y-83796800D01*
X106102000Y-85396800D01*
G36*
X106102000Y-85396800D02*
G01*
X104202000Y-85396800D01*
X104202000Y-83796800D01*
X106102000Y-83796800D01*
X106102000Y-85396800D01*
G37*
X106102000Y-87296800D02*
X104202000Y-87296800D01*
X104202000Y-85696800D01*
X106102000Y-85696800D01*
X106102000Y-87296800D01*
G36*
X106102000Y-87296800D02*
G01*
X104202000Y-87296800D01*
X104202000Y-85696800D01*
X106102000Y-85696800D01*
X106102000Y-87296800D01*
G37*
%TD*%
D11*
%TO.C,J8*%
X81354000Y-58282000D03*
D12*
X81354000Y-60782000D03*
%TD*%
D13*
%TO.C,D3*%
X116687600Y-69793600D03*
X116687600Y-70493600D03*
%TD*%
%TO.C,D4*%
X116687600Y-51048400D03*
X116687600Y-51748400D03*
%TD*%
%TO.C,D5*%
X116687600Y-59334400D03*
X116687600Y-60034400D03*
%TD*%
%TO.C,D6*%
X116687600Y-77012800D03*
X116687600Y-77712800D03*
%TD*%
D14*
%TO.C,D7*%
X80416400Y-68213200D03*
X80416400Y-67513200D03*
%TD*%
D13*
%TO.C,D8*%
X80416400Y-77216000D03*
X80416400Y-77916000D03*
%TD*%
D14*
%TO.C,D9*%
X80416400Y-75985600D03*
X80416400Y-75285600D03*
%TD*%
D15*
%TO.C,D10*%
X111856000Y-81579200D03*
X111156000Y-81579200D03*
%TD*%
D16*
%TO.C,D11*%
X113086400Y-81579200D03*
X113786400Y-81579200D03*
%TD*%
D14*
%TO.C,D12*%
X86512400Y-58414400D03*
X86512400Y-57714400D03*
%TD*%
%TO.C,D13*%
X80416400Y-51550800D03*
X80416400Y-50850800D03*
%TD*%
D17*
%TO.C,J5*%
X75104000Y-71572800D03*
X75104000Y-65372800D03*
D18*
X78304000Y-69722800D03*
X78304000Y-68472800D03*
X78304000Y-67222800D03*
%TD*%
D19*
%TO.C,C9*%
X112691900Y-49215900D03*
X111141900Y-49215900D03*
%TD*%
D20*
%TO.C,R11*%
X83476600Y-53283600D03*
X81826600Y-53283600D03*
%TD*%
%TO.C,R4*%
X111429600Y-65018400D03*
X109779600Y-65018400D03*
%TD*%
D21*
%TO.C,C2*%
X81737200Y-49131000D03*
X81737200Y-47581000D03*
%TD*%
%TO.C,C12*%
X89458800Y-80677800D03*
X89458800Y-79127800D03*
%TD*%
D22*
%TO.C,R7*%
X107848400Y-75572600D03*
X107848400Y-77222600D03*
%TD*%
D20*
%TO.C,R2*%
X111429600Y-56179200D03*
X109779600Y-56179200D03*
%TD*%
D23*
%TO.C,C1*%
X87223600Y-51033200D03*
X87223600Y-49133200D03*
%TD*%
D24*
%TO.C,R6*%
X85331800Y-71724000D03*
X86981800Y-71724000D03*
%TD*%
D20*
%TO.C,R3*%
X111429600Y-62072000D03*
X109779600Y-62072000D03*
%TD*%
D25*
%TO.C,U4*%
X112902900Y-50807900D03*
X111652900Y-50807900D03*
X110402900Y-50807900D03*
X109152900Y-50807900D03*
X109152900Y-52957900D03*
X110402900Y-52957900D03*
X111652900Y-52957900D03*
X112902900Y-52957900D03*
%TD*%
D26*
%TO.C,J4*%
X122000000Y-73602400D03*
X122000000Y-79802400D03*
D27*
X118800000Y-75452400D03*
X118800000Y-76702400D03*
X118800000Y-77952400D03*
%TD*%
D24*
%TO.C,R5*%
X85331800Y-68828400D03*
X86981800Y-68828400D03*
%TD*%
D28*
%TO.C,U8*%
X111582200Y-75447599D03*
X111582200Y-77347601D03*
X113969800Y-76397600D03*
%TD*%
D29*
%TO.C,C6*%
X113334800Y-70288600D03*
X113334800Y-71838600D03*
%TD*%
D30*
%TO.C,D2*%
X111085400Y-79598000D03*
X113885400Y-79598000D03*
%TD*%
D22*
%TO.C,R8*%
X109524800Y-75572600D03*
X109524800Y-77222600D03*
%TD*%
D31*
%TO.C,U1*%
X83378000Y-50865100D03*
X84328000Y-50865100D03*
X85278000Y-50865100D03*
X85278000Y-48590100D03*
X84328000Y-48590100D03*
X83378000Y-48590100D03*
%TD*%
D26*
%TO.C,J2*%
X122000000Y-47694400D03*
X122000000Y-53894400D03*
D27*
X118800000Y-49544400D03*
X118800000Y-50794400D03*
X118800000Y-52044400D03*
%TD*%
D32*
%TO.C,U3*%
X111428400Y-42069500D03*
X111928399Y-42069500D03*
X112428401Y-42069500D03*
X112928400Y-42069500D03*
X113428399Y-42069500D03*
X113928401Y-42069500D03*
X114428400Y-42069500D03*
D33*
X114839700Y-43225200D03*
D32*
X114428400Y-44380900D03*
X113928401Y-44380900D03*
X113428399Y-44380900D03*
X112928400Y-44380900D03*
X112428401Y-44380900D03*
X111928399Y-44380900D03*
X111428400Y-44380900D03*
D33*
X111017100Y-43225200D03*
%TD*%
D34*
%TO.C,C7*%
X113118600Y-46070000D03*
X114668600Y-46070000D03*
%TD*%
%TO.C,C11*%
X98742200Y-91721100D03*
X100292200Y-91721100D03*
%TD*%
D23*
%TO.C,C4*%
X87223600Y-43413200D03*
X87223600Y-41513200D03*
%TD*%
D35*
%TO.C,U6*%
X90932000Y-40990000D03*
X90932000Y-43530000D03*
X90932000Y-46070000D03*
X90932000Y-48610000D03*
X96012000Y-71470000D03*
X106172000Y-43530000D03*
X90932000Y-51150000D03*
X90932000Y-53690000D03*
X90932000Y-56230000D03*
X90932000Y-58770000D03*
X90932000Y-61310000D03*
X90932000Y-63850000D03*
X90932000Y-66390000D03*
X90932000Y-68930000D03*
X90932000Y-71470000D03*
X106172000Y-71470000D03*
X106172000Y-68930000D03*
X106172000Y-66390000D03*
X106172000Y-63850000D03*
X106172000Y-61310000D03*
X106172000Y-58770000D03*
X106172000Y-56230000D03*
X106172000Y-53690000D03*
X106172000Y-51150000D03*
X106172000Y-48610000D03*
X106172000Y-46070000D03*
X90932000Y-38450000D03*
X98552000Y-71470000D03*
X106172000Y-40990000D03*
X103632000Y-71470000D03*
X101092000Y-71470000D03*
X93472000Y-71470000D03*
X106172000Y-38450000D03*
%TD*%
D36*
%TO.C,U2*%
X111095600Y-70276200D03*
X110595600Y-70276200D03*
D37*
X110058200Y-70563601D03*
X110058200Y-71063600D03*
X110058200Y-71563599D03*
D36*
X110595600Y-71851000D03*
X111095600Y-71851000D03*
D37*
X111633000Y-71563599D03*
X111633000Y-71063600D03*
X111633000Y-70563601D03*
%TD*%
D20*
%TO.C,R1*%
X111429600Y-59125600D03*
X109779600Y-59125600D03*
%TD*%
D34*
%TO.C,C8*%
X112102600Y-40380400D03*
X113652600Y-40380400D03*
%TD*%
D17*
%TO.C,J6*%
X75104000Y-79075800D03*
X75104000Y-74125800D03*
D18*
X78304000Y-77225800D03*
X78304000Y-75975800D03*
%TD*%
D38*
%TO.C,C3*%
X87223600Y-45323200D03*
X87223600Y-47223200D03*
%TD*%
D26*
%TO.C,J1*%
X122000000Y-64138200D03*
X122000000Y-71588200D03*
D27*
X118800000Y-65988200D03*
X118800000Y-67238200D03*
X118800000Y-68488200D03*
X118800000Y-69738200D03*
%TD*%
D39*
%TO.C,U7*%
X87005201Y-74848200D03*
X85105199Y-74848200D03*
X86055200Y-77235800D03*
%TD*%
D19*
%TO.C,C5*%
X111379600Y-68498200D03*
X109829600Y-68498200D03*
%TD*%
%TO.C,C10*%
X96990200Y-91721100D03*
X95440200Y-91721100D03*
%TD*%
D40*
%TO.C,D1*%
X82651600Y-74438800D03*
X82651600Y-77238800D03*
%TD*%
D41*
%TO.C,J7*%
X109996200Y-87094000D03*
X114946200Y-87094000D03*
D42*
X111846200Y-83744000D03*
X113096200Y-83744000D03*
%TD*%
D17*
%TO.C,J9*%
X75104000Y-53675800D03*
X75104000Y-48725800D03*
D18*
X78304000Y-51825800D03*
X78304000Y-50575800D03*
%TD*%
D26*
%TO.C,J3*%
X122000000Y-55924000D03*
X122000000Y-62124000D03*
D27*
X118800000Y-57774000D03*
X118800000Y-59024000D03*
X118800000Y-60274000D03*
%TD*%
D43*
%TO.C,L1*%
X84226400Y-46403200D03*
X84226400Y-43603200D03*
%TD*%
M02*
